<svg xmlns="http://www.w3.org/2000/svg" viewBox="0 0 882.02 134.28"><defs><style>.cls-1{fill:#fff;}</style></defs><g id="Capa_2" data-name="Capa 2"><g id="Layer_1" data-name="Layer 1"><path class="cls-1" d="M44.1,125.68v7.24H0v-7.24H17.2L64.29,0h7.15l44.19,125.68h17.93v7.24H77.87v-7.24H96.7L83.12,87H40.38L26,125.68ZM62.3,28.61,43.19,79.68h37.4L62.66,28.61Z"/><path class="cls-1" d="M194.68,125.68q7,0,12.4-.54a38.68,38.68,0,0,0,9.37-2,20.75,20.75,0,0,0,6.93-4.17,23.19,23.19,0,0,0,5-6.92,52,52,0,0,0,3.58-10.37q1.49-6.12,2.67-14.53H241l-2,45.81H137.63v-7.24h18.11V8.6H137.63V1.36h53.88V8.6H173.4V125.68Z"/><path class="cls-1" d="M261.77,82.58h40.29V96.25H261.77Z"/><path class="cls-1" d="M340.55,125.68V8.6H322.44V1.36h53.87V8.6H358.2V61h60.58V8.6H400.67V1.36h53.88V8.6H436.44V125.68h18.11v7.24H400.67v-7.24h18.11V68.45H358.2v57.23h18.11v7.24H322.44v-7.24Z"/><path class="cls-1" d="M500.91,125.68v7.24h-44.1v-7.24H474L521.1,0h7.15l44.19,125.68h17.93v7.24H534.68v-7.24h18.83L539.93,87H497.19L482.8,125.68Zm18.2-97.07L500,79.68h37.4L519.47,28.61Z"/><path class="cls-1" d="M664.25,65.56l-26.17,68.72h-7L586,8.6H568.09V1.36h52.79V8.6H604.76l35,97.07h.37l20-52.16L644,8.6H628.76V1.36h52.79V8.6H662.71l34.95,97.07H698L735.24,8.6H717.13V1.36h43.19V8.6H744L696,134.28h-7L664.61,65.56Z"/><path class="cls-1" d="M762.86,132.92v-7.24H781V8.6H762.86V1.36h54.69q18.29,0,30.65,4.53t19.87,12.9A48.88,48.88,0,0,1,878.8,39,101.5,101.5,0,0,1,882,65.56a124.61,124.61,0,0,1-1.13,16.79A72.9,72.9,0,0,1,877,98.11,56,56,0,0,1,869.39,112,44.86,44.86,0,0,1,857.3,123a60.77,60.77,0,0,1-17.48,7.29,94.9,94.9,0,0,1-23.63,2.62Zm35.76-7.24H815q13.95,0,23.14-2.72a28,28,0,0,0,14.53-9.5q5.34-6.79,7.52-18.39t2.17-29.33q0-9.69-.68-17.75a75.46,75.46,0,0,0-2.49-14.4,37.84,37.84,0,0,0-5-11,26.71,26.71,0,0,0-8.24-7.79,39,39,0,0,0-12.17-4.62A81.41,81.41,0,0,0,816.91,8.6H798.62Z"/></g></g></svg>