<svg xmlns="http://www.w3.org/2000/svg" viewBox="0 0 648.6 663.92"><defs><style>.cls-1,.cls-10,.cls-11,.cls-2,.cls-3,.cls-4,.cls-5,.cls-6,.cls-7,.cls-8,.cls-9{fill:none;stroke-miterlimit:10;stroke-width:0;}.cls-1{stroke:#eee5b9;}.cls-2{stroke:#b09281;}.cls-3{stroke:#e9d39a;}.cls-4{stroke:#7f8080;}.cls-5{stroke:#2f170e;}.cls-6{stroke:#70673b;}.cls-7{stroke:#a0783b;}.cls-8{stroke:#d9b956;}.cls-9{stroke:#9c651d;}.cls-10{stroke:#bd7fb5;}.cls-11{stroke:#3a1337;}.cls-12{fill:#010101;}.cls-13{fill:#decb74;}.cls-14{fill:#61250c;}.cls-15{fill:#d5a736;}.cls-16{fill:#fff;}.cls-17{fill:#78216d;}</style></defs><g id="Capa_2" data-name="Capa 2"><g id="Layer_1" data-name="Layer 1"><path class="cls-1" d="M365.82,3c5.77,1.31,3.63,8.45,2.66,13.18Q362.39,45.7,355.36,75c-.88,3.65-3,4.68-6.2,3.08a1,1,0,0,0-1.37.4l-.33.56a.72.72,0,0,0,.45,1.07l15,3.61"/><path class="cls-2" d="M362.92,83.74l9,2.73a1.23,1.23,0,0,0,.8-2.32l-5.13-2A1.68,1.68,0,0,1,366.5,81a17.24,17.24,0,0,1-.1-6.72q2.79-15.13,6.31-30.16a1.06,1.06,0,0,1,1.24-.9l.78.08"/><path class="cls-1" d="M374.73,43.29l37.33,9.51a.8.8,0,0,1,.66,1.06q-3.12,15.87-7.11,31.86a13.16,13.16,0,0,1-3.79,6.7"/><path class="cls-3" d="M401.82,92.42q-.75-2.33-3.72-1.4a1,1,0,0,0-.3,1.69,7,7,0,0,0,3.93,1.34"/><line class="cls-1" x1="401.73" y1="94.05" x2="415.42" y2="97.31"/><path class="cls-2" d="M415.42,97.31A12,12,0,0,0,421.89,99c.75,0,1.05-.33.9-1.08l-.15-.77a1.08,1.08,0,0,0-1.18-1,6.31,6.31,0,0,1-5.07-2.31,2.53,2.53,0,0,1-.62-1.77,53.37,53.37,0,0,1,1.12-9.42Q423,53.41,430,23.67A3.72,3.72,0,0,1,434.64,21a2.5,2.5,0,0,0,3-.82c.44-.65.29-1.07-.47-1.27l-23.72-6.1"/><path class="cls-3" d="M413.49,12.76q-1.51,2.58,5.3,4.34"/><path class="cls-1" d="M418.79,17.1a15.65,15.65,0,0,1,0,8.72q-1,3.9-4,19"/><path class="cls-2" d="M414.82,44.86c-.28,1.78-.88,2.53-1.84,2.28q-18.71-4.83-37.59-9.88a1,1,0,0,1-.83-1.27c1.41-8.17,3.69-16.1,5.32-24.19.68-3.39,2.83-4.59,6.48-3.59a.6.6,0,0,0,.86-.55l.11-.58a1.1,1.1,0,0,0-.9-1.4l-15.89-4"/><path class="cls-4" d="M370.54,1.67A10.48,10.48,0,0,0,364,.06a1.28,1.28,0,0,0-.69,2.23,3.25,3.25,0,0,0,2.49.71"/><line class="cls-5" x1="370.54" y1="1.67" x2="367.51" y2="2.31"/><path class="cls-6" d="M367.51,2.31c-.13-.67-.62-1-1.44-.92s-.92.42-.57,1.05l.32.56"/><path class="cls-7" d="M367.51,2.31a14.11,14.11,0,0,1,7.35,6.61,1.24,1.24,0,0,1,.12.82L360.26,77.11a2,2,0,0,0,.45,1.82c1.67,2,2.42,3.57,2.21,4.81m51.9-38.88a9.51,9.51,0,0,1-.23,4.08,1.1,1.1,0,0,1-1.48.82L373.16,39.52a1.38,1.38,0,0,0-.92,2.59l2.49,1.18"/><path class="cls-8" d="M401.73,94.05a1.51,1.51,0,0,0,.09-1.63"/><path class="cls-7" d="M415.42,97.31l-4.5-5.3a2.1,2.1,0,0,1-.47-1.74q6.33-32.2,13.88-64.13c1.12-4.79-.81-7.66-4.76-9.9"/><line class="cls-9" x1="413.49" y1="12.76" x2="419.57" y2="16.24"/><path class="cls-8" d="M419.57,16.24c-.64.13-.9.41-.78.86"/><line class="cls-2" x1="257.18" y1="8.06" x2="239.11" y2="12.01"/><path class="cls-1" d="M239.11,12a3.89,3.89,0,0,0-2.78,1.33.92.92,0,0,0,.74,1.51l4.85-.18a2.08,2.08,0,0,1,1.29.37,4.67,4.67,0,0,1,2,3"/><line class="cls-2" x1="245.2" y1="18.03" x2="246.83" y2="25.71"/><line class="cls-1" x1="246.83" y1="25.71" x2="247.65" y2="29"/><line class="cls-2" x1="247.65" y1="29" x2="250.31" y2="43.12"/><line class="cls-1" x1="250.31" y1="43.12" x2="252.31" y2="54.05"/><line class="cls-2" x1="252.31" y1="54.05" x2="254.54" y2="63.77"/><line class="cls-1" x1="254.54" y1="63.77" x2="255.48" y2="68.01"/><path class="cls-2" d="M255.48,68a11.91,11.91,0,0,0,1,7.34"/><line class="cls-1" x1="256.49" y1="75.35" x2="257.72" y2="87.69"/><path class="cls-2" d="M257.72,87.69a8.25,8.25,0,0,1-3.35,2.41"/><path class="cls-1" d="M254.37,90.1c-1,.17-1.59.53-1.76,1.07a.69.69,0,0,0,.79.88l41.79-8.16"/><path class="cls-2" d="M295.19,83.89c2.79-3.75,2-11.16.58-15A1.45,1.45,0,0,0,294,68a1.42,1.42,0,0,0-1,1.7q1.68,7.28-5.28,9.49a51.85,51.85,0,0,1-15.92,2.6,3.84,3.84,0,0,1-3.72-3q-7.21-31-12.47-63.46c-.51-3.05.92-4.77,4.25-5.17"/><path class="cls-4" d="M259.86,10.13l1.48-.69a1,1,0,0,0-.15-1.91,5.12,5.12,0,0,0-4,.53"/><path class="cls-5" d="M259.86,10.13a3.12,3.12,0,0,0,.28-1.27c0-.37-.32-.62-.82-.73a6.58,6.58,0,0,0-2.14-.07"/><path class="cls-7" d="M295.19,83.89a2.19,2.19,0,0,0-2-2.72,6.23,6.23,0,0,0-2.92.34,99.28,99.28,0,0,1-22.78,4.23c-2.49.17-4-1-4.5-3.55q-6.54-32.26-12.31-64.83a2.77,2.77,0,0,0-.9-1.61A16.25,16.25,0,0,0,239.11,12M254.37,90.1l1.29.34a1.37,1.37,0,0,0,1.63-.6,2.6,2.6,0,0,0,.43-2.15m-1.23-12.34a10.88,10.88,0,0,0-1-7.34m-.94-4.24-2.26-14.19c-.1-.57-.19-.57-.32,0a9.92,9.92,0,0,0,.35,4.49m-2-10.93A34.1,34.1,0,0,0,247.65,29m-.82-3.29A12,12,0,0,0,245.2,18"/><line class="cls-1" x1="175.03" y1="49.11" x2="180.44" y2="103.17"/><line class="cls-2" x1="180.44" y1="103.17" x2="181.64" y2="115.58"/><path class="cls-1" d="M181.64,115.58q1.83,8.63-5.34,12a1.07,1.07,0,0,0-.59.52,1.15,1.15,0,0,0,.07.9,1,1,0,0,0,1.33.41l14-7.69"/><path class="cls-2" d="M191.09,121.72a6.76,6.76,0,0,0,5.66-3.35.86.86,0,0,0-1-1.25l-3.38,1a2.23,2.23,0,0,1-2.83-1.84L186,89.77"/><line class="cls-1" x1="186.04" y1="89.77" x2="203.43" y2="80.39"/><path class="cls-2" d="M203.43,80.39a1.55,1.55,0,0,1,2,.19q9.27,9.35,19.19,18.55m0,0-.35,2.07a1.24,1.24,0,0,0,.77,1.46,2,2,0,0,0,2.13-.24"/><path class="cls-1" d="M227.17,102.42l17.21-9a.91.91,0,0,0-.43-1.71c-1.39,0-1.63.06-.72.08"/><path class="cls-2" d="M243.23,91.81q-8,3.06-12.07-.88-27.43-26.4-54.09-53.47a1.78,1.78,0,0,0-3,1,26,26,0,0,0,1,10.65"/><path class="cls-7" d="M243.23,91.81c-6.1,6.27-12.13,6-18.42-.23Q202.88,70,181.49,47.89a23.5,23.5,0,0,1-5-7.32,1,1,0,0,0-1.16-.6,1,1,0,0,0-.79,1.05l.45,8.09m52.14,53.31c-1.1,0-1.95-1.09-2.55-3.29m0,0a173.14,173.14,0,0,0-18.34-19.3,1.9,1.9,0,0,0-1.46-.64,2,2,0,0,0-1.39,1.2M186,89.77c-1.18-.08-1.78-.53-1.84-1.33a1.43,1.43,0,0,1,.73-1.28l18.3-9.5c.61-.32.65-.72.11-1.15l-6.72-5.28"/><line class="cls-1" x1="196.62" y1="71.23" x2="182.5" y2="56.39"/><path class="cls-7" d="M182.5,56.39c-.2-1.59-1.78-3.8-4.68-6.65a.6.6,0,0,0-.8-.05.59.59,0,0,0-.19.78L178,52.59a4.52,4.52,0,0,1,.49,1.59q3.19,30.78,7.22,61.49a5.68,5.68,0,0,0,1.75,3.69,17.57,17.57,0,0,0,3.68,2.36m-9.45-6.14a23.53,23.53,0,0,0-1.2-12.41"/><path class="cls-2" d="M182.5,56.39l2.77,26.17c.1.8.49,1,1.2.64l13.11-7a1,1,0,0,0,.24-1.55l-3.2-3.41"/><line class="cls-1" x1="311.9" y1="50.03" x2="332.87" y2="44.24"/><path class="cls-4" d="M332.87,44.24q2.44-.42-.22-2.39a.44.44,0,0,0-.26-.1L307.93,42a1.25,1.25,0,0,0-1.34,1.14l-1.35,7.41a1.09,1.09,0,0,0,1.09,1.31A10,10,0,0,0,311.9,50"/><path class="cls-6" d="M332.87,44.24l-.13-1.16c-.07-.77-.49-1.07-1.25-.9-6.31,1.44-16.78,4.33-23,2.14a1.09,1.09,0,0,0-1.61.84l-1.31,4.66c-.22.77.06,1.2.86,1.25a13.25,13.25,0,0,0,5.43-1"/><path class="cls-1" d="M498.56,53.15q-28.23,23.64-56.49,47.36-5.7,4.8-10.95.24a1.07,1.07,0,0,0-1.61.27,1.16,1.16,0,0,0,.41,1.68,118.21,118.21,0,0,0,12.21,8.13"/><path class="cls-2" d="M442.13,110.83a17.24,17.24,0,0,0,5.56,4,.77.77,0,0,0,.81-.09l.39-.32a.62.62,0,0,0,.11-.86l-3-3.9a1.68,1.68,0,0,1,.22-2.3L465.66,90"/><path class="cls-1" d="M465.66,90,483,101.78a1.24,1.24,0,0,1,.54,1.43l-.32,1.4"/><line class="cls-4" x1="483.22" y1="104.61" x2="481.35" y2="114.68"/><line class="cls-1" x1="481.35" y1="114.68" x2="480.7" y2="119.94"/><path class="cls-2" d="M480.7,119.94a6.25,6.25,0,0,0-1.18,5"/><path class="cls-1" d="M479.52,125l-2.92,8a1.06,1.06,0,0,0,.43,1.38l9.51,6.61"/><path class="cls-2" d="M486.54,141a17.36,17.36,0,0,0,6.55,4.42c.84.35,1.2.09,1.09-.83l-.13-1a.39.39,0,0,0-.17-.27c-4.38-2.71-6.05-7.17-5-13.34q6.38-37,13.21-74a4.87,4.87,0,0,0,0-2.64c-.55-1.35-1.71-1.4-3.52-.15"/><path class="cls-7" d="M486.54,141c-.75-2-1.42-3.8-2-5.5a10.64,10.64,0,0,1-.45-5.66q8.85-49.21,12.8-68.21A20.09,20.09,0,0,1,500,55c.43-.62.3-1.08-.4-1.4l-1.06-.49m-19,71.83c.91-1.11,1.31-2.79,1.18-5"/><path class="cls-6" d="M481.35,114.68a25.56,25.56,0,0,0,1.87-10.07"/><path class="cls-7" d="M465.66,90a1.68,1.68,0,0,1-.24-1.7,1.22,1.22,0,0,1,2-.55L484.2,99c.48.34.78.23.9-.35.31-1.48.26-2.38-.15-2.73"/><line class="cls-1" x1="484.95" y1="95.91" x2="490.68" y2="67.86"/><path class="cls-7" d="M490.68,67.86A8.1,8.1,0,0,0,492.87,63c.09-1.11-.27-1.3-1.11-.57l-48.17,41.88a1.84,1.84,0,0,0-.67,1.74c.28,2.08,0,3.67-.79,4.74"/><path class="cls-2" d="M490.68,67.86,470.83,85.5c-.54.47-.52.92.09,1.31l14,9.1"/><path class="cls-1" d="M550.85,95.33l-.47,2.2a6,6,0,0,1-.69,1.71l-40.18,64.17"/><path class="cls-2" d="M509.51,163.41c-.6,1.66-.09,2.79,1.52,3.35a3.7,3.7,0,0,0,2.54,0L570.28,146"/><line class="cls-1" x1="570.28" y1="145.98" x2="539.22" y2="201.43"/><path class="cls-2" d="M539.22,201.43c-.82.73-.86,1.77-.13,3.14a1.44,1.44,0,0,0,1.48.81,15.73,15.73,0,0,0,5-1.2q31.59-13.23,63.2-26.41c3.82-1.6,6.84-.85,9.06,2.22a1.56,1.56,0,0,0,.66.53,1.16,1.16,0,0,0,.86.07,1.23,1.23,0,0,0,.43-1.87l-12.6-16.81a1.35,1.35,0,0,0-1.16-.58l-.52,0a.84.84,0,0,0-.7,1.33,10.42,10.42,0,0,1,2.12,6.32"/><path class="cls-1" d="M606.88,169q-3.28,2.87-10.88,6.28-20.61,9.22-41.75,18.79"/><path class="cls-2" d="M554.25,194.07l31.62-56.33a2.7,2.7,0,0,0,.34-1.77c-.34-2.36-1.46-2.78-3.39-1.24"/><line class="cls-1" x1="582.82" y1="134.73" x2="525.57" y2="156.03"/><path class="cls-2" d="M525.57,156,558,106.54a2,2,0,0,1,3.14-.32l2.66,2.66a.94.94,0,0,0,1.58-.86,8.87,8.87,0,0,0-3.24-4.91"/><path class="cls-4" d="M562.12,103.11q-6-8-12.08-16.3a1.16,1.16,0,0,0-.77-.56,1.58,1.58,0,0,0-.86.15.86.86,0,0,0-.48,1.23l2.92,7.7"/><path class="cls-5" d="M562.12,103.11c-1.44-1-4.07-1.59-7.85-1.64"/><path class="cls-6" d="M554.27,101.47l-.86-7.66a1,1,0,0,0-2-.21l-.54,1.73"/><path class="cls-7" d="M554.27,101.47a13.3,13.3,0,0,1-2.66,5.56c-2.17,2.84-3.37,4.45-3.59,4.81q-15.19,23.72-30.29,47.47-3.51,5.53-8.22,4.1M525.57,156a11.68,11.68,0,0,0-5.18,4.23c-.51.75-.34,1,.5.66l50.92-18.87c.7-.26,1,0,.77.69a5.32,5.32,0,0,1-2.3,3.24m-16,48.09a9.46,9.46,0,0,0-4.83,4.55c-.35.8-.11,1,.7.67l57.49-25.08a2.23,2.23,0,0,0,1.27-1.52q2.79-11-2-3.69m-67.66,32.43q6.66-.48,10.56-8.48c7.68-15.71,16.85-31.1,25.55-46.28,2.33-4.08,5.49-6.85,9-9.73a1.14,1.14,0,0,0-.79-2,4.71,4.71,0,0,1-.71-.19"/><path class="cls-4" d="M350.68,176.1c6.79-5,21.1-5.8,28.9-6.2q6.54-.33,20.93,1.28,21.66,2.41,43.53,3c.69,0,1-.32.95-1-1.27-18.33-22.7-23.55-33.66-33.47-9.11-8.26-23.42-9.85-35-12.58-13.06-3.09-29.31-2.73-42.63-1.84q-12.72.87-20.35,4.65c-5.67,2.82-19.45,12.43-17.43,20a2,2,0,0,0,1.13,1.33c11.16,5,21.47-2.77,33.72,1,.61.2.67.48.13.86-3.43,2.38-6.28,3.82-8.58,4.28q-18.1,3.74-45.1,5.43c-3.63.23-7.22,1.78-10.84,2.68-8,2-11.17,5.24-7.84,13.57,2.54,6.39,3.69,10.92,10.18,14.13a48.43,48.43,0,0,0,22.88,5.68c13.7.18,26.9-.45,40,3.78.92.28.9.48,0,.62L241,215.3a1.25,1.25,0,0,0-1.14,1c-1,3.46-1.93,6.94-2.89,10.44-1.68,6.28,1.52,13,3.52,19.06a4.41,4.41,0,0,0,4.61,3c6.46-.64,13-1.56,19.64-2.75,24.3-4.38,48.75-7.83,73.14-11.59a827.28,827.28,0,0,1,102.33-9.29,3.3,3.3,0,0,0,3.17-3.72c-3.09-23.68-24.75-15.18-33.87-31.94A2.2,2.2,0,0,0,408,188.4c-4.4-.94-8.78-2.77-13.09-3.3a409.07,409.07,0,0,1-44-7.84c-.94-.21-1-.6-.24-1.16"/><path class="cls-1" d="M63.64,176c6.76,1.93,12.92,2.14,18.46.58a105.8,105.8,0,0,1,21.88-4"/><path class="cls-2" d="M104,172.6q12.52,4.89,11.74,14.92c-.63,7.88-12.39,22.46-21,12.93A1.35,1.35,0,0,0,92.6,202a13.39,13.39,0,0,0,5.43,5.2"/><path class="cls-1" d="M98,207.23a11.25,11.25,0,0,0,5.45,4.1,1.94,1.94,0,0,0,1.72-.24c11.31-7.36,19.64-21.53,15-35"/><path class="cls-2" d="M120.16,176.08c-15.78-35.21-51.09,7.6-62-18.29"/><path class="cls-1" d="M58.13,157.79q-.65-11.88,11.57-18.36"/><path class="cls-4" d="M69.7,139.43l6.61,2.69a1.28,1.28,0,0,0,1.58-.5,1.3,1.3,0,0,0-.25-1.65L69,132.41a1.09,1.09,0,0,0-1.52,0q-10.23,7.89-13.69,17.13Q47.44,166.38,63.64,176"/><path class="cls-6" d="M69.7,139.43l3.56-.11c1.12,0,1.18-.3.17-.81l-4.14-2a1.81,1.81,0,0,0-1.85.17Q42.81,154.45,63.64,176"/><path class="cls-7" d="M58.13,157.79,58,165a1.78,1.78,0,0,0,.58,1.37c17.21,15.42,36.55-9.31,53.79,5.74a18.42,18.42,0,0,0,7.77,4M98,207.23c4.62-.38,7.51-.9,8.65-1.59q12.43-7.5,12.75-23.66a1.73,1.73,0,0,0-.58-1.35,32.18,32.18,0,0,0-14.87-8"/><path class="cls-1" d="M133.15,160.77c-1,3,1.52,4.81,7.66,5.43,1.18.13,2-.53,2.41-1.95"/><path class="cls-2" d="M143.22,164.25a11.38,11.38,0,0,0,0-7.49,1.71,1.71,0,0,0-1.57-1.27l-5.71-.6a1.4,1.4,0,0,0-1.69,1.18l-1.12,4.7"/><path class="cls-7" d="M143.22,164.25q-.67-4.25-10.07-3.48"/><path class="cls-1" d="M633.56,225.11a17.62,17.62,0,0,1-5.47,3.46Q600.6,238.88,572.66,248q-6.37,2.1-7.64-3.93c-.17-.85-.53-.92-1-.25l-.36.47a1.9,1.9,0,0,0-.33,1.78c1.53,5.45,3.69,10.59,4.77,16.14,3.09,15.59,7.49,31,20.2,40.92"/><line class="cls-3" x1="588.25" y1="303.17" x2="595.44" y2="307.38"/><path class="cls-2" d="M595.44,307.38c25.2,9.94,52.38-7.28,53.15-34.45q.25-8.44-5.33-27.79-3.94-13.62-8.24-27.24a1.28,1.28,0,0,0-2.49.58l1,6.63"/><line class="cls-9" x1="595.44" y1="307.38" x2="622.76" y2="302.32"/><path class="cls-7" d="M622.76,302.32q22.23-9.57,22-34.83c-.07-8.46-2.21-22.88-7.43-31.47a.9.9,0,0,0-1.52,0,3.23,3.23,0,0,0-.43,2"/><path class="cls-2" d="M635.39,238q-25.92,8.19-51.39,18c-6.33,2.46-10.44,2.62-8.8,11.46,5.15,27.7,22.15,42.66,50.29,26.58"/><path class="cls-7" d="M625.49,294a15.33,15.33,0,0,1-8.24,5"/><path class="cls-9" d="M617.25,299.07q-7.54,2-14.75,4.21c-5.21,1.59-8.56.32-12.73-2.53"/><path class="cls-7" d="M589.77,300.75c-11.38-9.08-16.53-23.38-19-37.91a14.59,14.59,0,0,1,.49-7.45,2.15,2.15,0,0,1,1.29-1.31q28.2-10.35,56.65-20a8.56,8.56,0,0,0,4.44-2.94c1.52-2.19,1.48-4.21-.11-6"/><path class="cls-8" d="M589.77,300.75a1.59,1.59,0,0,0,.69,1.5c.38.32.32.5-.17.58l-2,.34m34.51-.85-7.42.55c-1.05.09-1.21-.27-.52-1.05l2.43-2.75"/><path class="cls-1" d="M625.49,294a34.61,34.61,0,0,0,12.92-16.42"/><path class="cls-7" d="M638.41,277.61c.54,2,1,.92,1.46-3.29"/><path class="cls-1" d="M639.87,274.32q3.55-16.87-4.48-36.35"/><path class="cls-2" d="M639.87,274.32a6.32,6.32,0,0,0-1.46,3.29"/><path class="cls-1" d="M86.1,233.17c.62,2.34,4,2.4,10.21.19"/><path class="cls-2" d="M96.31,233.36c.47-2.15-.28-4.49-.75-6.91-.73-3.89-5.67-2.65-8.24-1.46a2.26,2.26,0,0,0-1.18,1.37,13.22,13.22,0,0,0,0,6.81"/><path class="cls-7" d="M96.31,233.36l-.64-2.45a1.06,1.06,0,0,0-1.18-.9c-5.2,0-8,1.09-8.39,3.16"/><path class="cls-1" d="M45.61,312.47c23.59-4,35.23-29.35,35.55-50.77"/><path class="cls-2" d="M81.16,261.7c1.27-6.16.25-9.75-3.11-10.74a260.26,260.26,0,0,1-25.93-9.25,1.25,1.25,0,0,1-.84-1.44l.64-5.17a.88.88,0,0,0-.88-1H50.4a1,1,0,0,0-1,.75l-5.8,19.84"/><path class="cls-1" d="M43.61,254.7l-1.11,4.46c-.13.52.06.76.6.73a3.42,3.42,0,0,1,.64,0,.93.93,0,0,0,.9-.55l2.6-5.72a1.21,1.21,0,0,1,1.65-.73l20.76,6.68"/><path class="cls-2" d="M69.65,259.57l4,1.65a1.33,1.33,0,0,1,.88,1.27c1.38,36.33-37.22,50.84-62.93,26.9"/><path class="cls-1" d="M11.59,289.39Q3,278.41,6,263.52c1.57-8,7.19-24.67,16.58-27.5"/><path class="cls-3" d="M22.54,236c5.43,1.1,7.46.56,6.09-1.65"/><path class="cls-2" d="M28.63,234.37l-13.5-5.54a1.34,1.34,0,0,0-1.7.62c-11.33,22.26-22.9,51.18-1.24,71.92q14.13,13.5,33.42,11.1"/><line class="cls-9" x1="28.63" y1="234.37" x2="19.62" y2="234.45"/><path class="cls-7" d="M19.62,234.45q-3.59-.7-6.12,3.2a61.92,61.92,0,0,0-10.33,39.2c.32,4.41,2.34,8.55,4,12.71a33.16,33.16,0,0,0,4.75,8.79q12.27,15.28,33.72,14.12"/><line class="cls-8" x1="19.62" y1="234.45" x2="22.54" y2="236.02"/><path class="cls-7" d="M81.16,261.7a1.68,1.68,0,0,1-.77-1.7.61.61,0,0,0-.63-.73l-.51,0a.79.79,0,0,0-.84.77q-.14,16.68-7.81,28.81c-10,15.95-32.59,23.3-49.95,12.28a16.15,16.15,0,0,1-4.79-5.52,53.28,53.28,0,0,0-4.27-6.18m58.06-29.82a9.92,9.92,0,0,1,4.42.78,1.48,1.48,0,0,0,1.81-.61l1.31-2.23c.41-.71.23-1.2-.54-1.46L53.79,248.3a5,5,0,0,0-5.9,2.25,10,10,0,0,1-4.28,4.15"/><path class="cls-4" d="M130,322.43a123.75,123.75,0,0,0-11-13.09c-3.31-3.42-7.13-4.79-11.31-6.89a21.93,21.93,0,0,0-9.47-2.6,30.76,30.76,0,0,0-17.71,5.32,36.78,36.78,0,0,0-7.72,7.41c-3,3.73-4.94,6.74-5.78,9.06q-2,5.64-1,17.19C67.27,353.37,79.5,364.9,94.62,366a2.94,2.94,0,0,0,3-3.88c-3.22-9.51,4.36-20.68,14.94-16.53a16.51,16.51,0,0,1,7.67,6.84,37.82,37.82,0,0,1,5,12.24.78.78,0,0,1-.71,1.08l-4,.73a2.62,2.62,0,0,0-1.69,1.09c-3.8,5.45,4.91,7.28,7.94,8.33.69.24.79.62.28,1.16a15.82,15.82,0,0,0-4.3,8.93,2.53,2.53,0,0,1-1.16,1.78,17.82,17.82,0,0,1-16.59,1.34,1.47,1.47,0,0,0-1.61.3c-1.26,1.15-1.42,2.77-.54,4.93,10.07,24.16,34.16,14.71,36.26-7.08m0,0,.75-.49c1-.61,1.33-.37,1,.75a51.7,51.7,0,0,1-8.45,18,4.9,4.9,0,0,0-.15,5.51c4.52,7,19.59,25,29.55,19.62a50.31,50.31,0,0,0,20.72-20.76,4.52,4.52,0,0,0-.62-5.19,27.3,27.3,0,0,1-6.66-13.59c-.28-1.55-.17-1.57.34-.09a32.77,32.77,0,0,0,9,13.53c12.68,11.61,25.67-2.56,27.77-14.82a.91.91,0,0,0-1.15-1C203,391.09,191.82,393.17,191,381a3,3,0,0,0-.62-1.68l-2-2.68a.86.86,0,0,1,.49-1.35c2.71-.65,6.68-1.46,7.54-4.4.47-1.63-.15-3.07-1.85-4.3a2.58,2.58,0,0,0-1.58-.47,7,7,0,0,1-4.25-1.07,1,1,0,0,1,.06-1.66l2.15-1.15a1.67,1.67,0,0,0,1-1.49c.45-9.16,8.46-18.39,18-15.41,7.15,2.21,9.21,9.42,7.2,16.08a3.34,3.34,0,0,0,3.22,4.27c15.21-.1,29.36-13.44,28.26-29.26"/><path class="cls-10" d="M248.63,336.41a23.87,23.87,0,0,0-.47-9.79"/><path class="cls-4" d="M248.16,326.62q-3.47-18.28-21-24.82c-19.79-7.36-37.95,10.05-44.37,27.35"/><path class="cls-10" d="M182.76,329.15c-.65-.06-1,.43-.91,1.44"/><path class="cls-4" d="M181.85,330.59l-3.07,6.12a.43.43,0,0,1-.81-.24l.36-2.61"/><path class="cls-10" d="M178.33,333.86c.56.19.71-.2.43-1.19"/><path class="cls-4" d="M178.76,332.67q6.65-12.27,12.07-25c2-4.63.68-8.65,2.51-13.56a2.62,2.62,0,0,0,0-1.81c-1.74-5.24-.58-9.85-2.9-14.7-7.14-14.95-17.62-23-30.18-32.46a4.89,4.89,0,0,0-5.84,0c-4.82,3.58-9.5,7.34-14,11.33a65.31,65.31,0,0,0-12,13.36q-6.93,11.07-6.83,22.49.07,12.53,8.37,30.1"/><path class="cls-11" d="M178.76,332.67c4.92-12.26,12-27.3,12.15-39.35.26-22.5-15-34.13-30.95-47a3.72,3.72,0,0,0-4.85.14c-6.42,5.72-14.84,11.45-19.82,17.11-15.94,18-12.51,38.91-2.89,59.26a149.92,149.92,0,0,1,12.1,37.78"/><path class="cls-4" d="M144.5,360.6a3.66,3.66,0,0,1-2.16-1c-.54-.46-1-.39-1.33.23l-.63,1.09c-.47.76-.25,1.23.63,1.36l2.34.38"/><path class="cls-11" d="M143.35,362.64a13.31,13.31,0,0,1-8,1"/><path class="cls-4" d="M135.36,363.68a3.23,3.23,0,0,0,1.44-.76c.53-.53.43-.9-.26-1.13a7.55,7.55,0,0,0-3.37-.31"/><path class="cls-11" d="M133.17,361.48l5.39-1a2,2,0,0,0,1.61-2.28c-2.9-18.51-11.72-43.88-29.54-52.86-18.87-9.49-38,3-42.93,22a25.89,25.89,0,0,0,.49,15c3.67,10.76,12.3,20.36,24.26,21.24a2.09,2.09,0,0,0,2.23-2.36q-1.94-14.12,10.56-18.34c10.91-3.69,18.34,8.89,20.89,17.52a1.36,1.36,0,0,0,1.37,1.07l4.75.19"/><path class="cls-4" d="M132.25,361.63a3.07,3.07,0,0,0-1.06.71.69.69,0,0,0,.09,1.08,2.82,2.82,0,0,0,1.83.6"/><path class="cls-11" d="M133.11,364l-10,3.3a2.74,2.74,0,0,0-.77,4.81,23,23,0,0,0,9.64,3.7"/><path class="cls-4" d="M132,375.83c-1.24.3-1.85.71-1.87,1.22s.34,1,1.14,1.38"/><path class="cls-11" d="M131.26,378.43c-2.64-.09-4.12.59-4.46,2q-3.84,16.08-19.2,11.66a2,2,0,0,0-2.31,2.83c5.51,10.57,18.37,18.75,26.79,4.94a123,123,0,0,0,7.1-12.64"/><path class="cls-4" d="M130,322.43a15.26,15.26,0,0,0,3.27,6.77c.88,1,1,.9.49-.31a29.47,29.47,0,0,0-3.76-6.46"/><path class="cls-10" d="M135.36,363.68l-2.25.34m50,11.87-1.73.41"/><path class="cls-11" d="M181.43,376.3a21.31,21.31,0,0,0-11.14,1.31"/><path class="cls-10" d="M170.29,377.61l-2,.06m-21.73-.08-2,.13"/><path class="cls-11" d="M144.57,377.72a21.23,21.23,0,0,0-11.94-1.44"/><path class="cls-10" d="M132.63,376.28c-.88-.22-1.11-.37-.64-.45"/><path class="cls-4" d="M132.63,376.28a2.46,2.46,0,0,1,1.64,1.09.73.73,0,0,1-.61,1.05l-1.89.15"/><path class="cls-10" d="M131.77,378.57a4.84,4.84,0,0,0-.51-.14"/><line class="cls-11" x1="139.18" y1="387.25" x2="139.87" y2="380.23"/><path class="cls-4" d="M139.87,380.23l7.77-.69c.94-.08,1.09-.45.43-1.14a3.57,3.57,0,0,0-1.51-.81"/><line class="cls-11" x1="146.56" y1="377.59" x2="168.29" y2="377.67"/><path class="cls-4" d="M168.29,377.67l-3.2.9c-.71.2-.75.48-.09.84,3.39,1.87,6.9-.73,10.2.69"/><path class="cls-11" d="M175.2,380.1Q175.4,396.81,188,405c9.36,6.07,17.91-2.19,21.52-10.8a1.77,1.77,0,0,0-2-2.43q-15.27,3.06-20.07-11.55A1.75,1.75,0,0,0,186.4,379a6.63,6.63,0,0,0-2.72-.37"/><path class="cls-4" d="M183.68,378.66a1.91,1.91,0,0,0,1.35-.37,1.37,1.37,0,0,0,.24-1.8c-.35-.54-1.07-.73-2.11-.6"/><path class="cls-11" d="M183.16,375.89l9.75-4a2.26,2.26,0,0,0-.13-4.23L182.26,364"/><path class="cls-4" d="M182.26,364l1.51-.11c1.3-.11,1.43-.55.36-1.29l-1-.73"/><path class="cls-11" d="M178.33,333.86a73.17,73.17,0,0,0-7.75,26.81"/><line class="cls-10" x1="170.58" y1="360.67" x2="163.87" y2="360.13"/><path class="cls-11" d="M163.87,360.13l-3.37-1.22a1.53,1.53,0,0,1-1-1.44l-.86-79.2a.87.87,0,0,0-1.44-.66,2.16,2.16,0,0,0-.71,1.63q-.81,38.67-1.18,77.69a1.81,1.81,0,0,1-1.76,1.79,9.34,9.34,0,0,0-5.07,1.71"/><path class="cls-10" d="M148.45,360.43l-3.95.17m-11.33.88-.92.15m20.88.76-9.78.25m-3.48,17.59-2.56-.84M182.26,364l-3.78-.67m-1,16.08-2.26.65"/><path class="cls-4" d="M180.5,361.36a5,5,0,0,0-2.66.45c-.77.4-.77.81,0,1.22l.64.34"/><line class="cls-11" x1="178.48" y1="363.37" x2="169.51" y2="362.65"/><path class="cls-4" d="M169.51,362.65a5,5,0,0,0,3.48-.5c.58-.38.6-.77.06-1.2a3.07,3.07,0,0,0-2.47-.28"/><line class="cls-10" x1="183.68" y1="378.66" x2="182.67" y2="378.6"/><path class="cls-4" d="M163.87,360.13l-2.62.8c-.95.28-1,.64-.07,1.05a3.83,3.83,0,0,0,2,.32"/><line class="cls-11" x1="163.16" y1="362.3" x2="153.13" y2="362.39"/><path class="cls-4" d="M153.13,362.39l5.31-1.27a.62.62,0,0,0,.49-1l-.19-.43a3.46,3.46,0,0,1-.3-1.43l-.37-49.57a1.2,1.2,0,0,0-.84-1.1.63.63,0,0,0-.83.64l.23,48.65c0,2.62-1.29,3.85-3.9,3.72l-4.28-.2"/><line class="cls-10" x1="169.51" y1="362.65" x2="163.16" y2="362.3"/><path class="cls-4" d="M181.43,376.3l-1,.58c-.83.43-.79.79.11,1.05l2.17.67"/><line class="cls-11" x1="182.67" y1="378.6" x2="177.46" y2="379.45"/><path class="cls-4" d="M177.46,379.45l.64-.75c.58-.68.43-1-.47-1l-7.34-.06m-25.72.11-7.45.25c-.8,0-.92.32-.36.88l.55.54"/><path class="cls-11" d="M137.31,379.39l-5.54-.82m116.86-42.16c-3.22,12.73-10.21,24.22-23.84,27-3.24.65-5.58-.77-5.18-4.23,1-8.93-2.27-15.09-11.55-16.89-9.66-1.85-17.6,9.49-18.84,17.5a1.9,1.9,0,0,1-1,1.43,9.9,9.9,0,0,1-5.09.73"/><line class="cls-10" x1="183.1" y1="361.91" x2="180.5" y2="361.36"/><path class="cls-11" d="M180.5,361.36a10.59,10.59,0,0,1-4.53-.95,1.52,1.52,0,0,1-.92-1.41c-.36-8,3.61-18.43,6.8-28.41m66.31-4q-6.6-18-22.37-23.12a24.67,24.67,0,0,0-15.92.17c-13.83,4.66-19.67,13.7-27.11,25.48"/><path class="cls-7" d="M257.86,84.49v1.93a.41.41,0,0,0,.39.41.4.4,0,0,0,.41-.4,16.46,16.46,0,0,0-.77-5.57.24.24,0,0,0-.45,0,2.86,2.86,0,0,0,.12,2.06,4.18,4.18,0,0,1,.3,1.57"/><path class="cls-11" d="M86.4,334.48l.06,1.74a1.33,1.33,0,0,0,1.24,1.31,1.35,1.35,0,0,0,1.44-1.08q1.32-6.79,7-3.62a.94.94,0,0,0,1.25-.26,1,1,0,0,0-.09-1.27l-3-3a1.92,1.92,0,0,1-.43-2.06l1.85-4.51a.83.83,0,0,0-1-1.12,4.52,4.52,0,0,0-2.29,1.29,3.16,3.16,0,0,1-4.62,0l-2.4-2.62a.69.69,0,0,0-.9-.11.71.71,0,0,0-.24.88c1.84,3.93.77,6.57-3.18,7.94a1,1,0,0,0-.69,1.21,1,1,0,0,0,1.1.87A4.1,4.1,0,0,1,86,332.76a4.39,4.39,0,0,1,.37,1.72m134.31-6.61-3.35,3.52a.8.8,0,0,0,.86,1.3q6.38-2.4,8.18,3.93a.76.76,0,0,0,.86.54.75.75,0,0,0,.64-.79q-.36-6.42,5.94-6.38a.85.85,0,0,0,.82-.69.83.83,0,0,0-.54-.92q-5.43-1.87-3.8-7.43a.78.78,0,0,0-.79-1q-.32,0-.66,0a1.48,1.48,0,0,0-1.44.91,3.39,3.39,0,0,1-2.32,2.19,2,2,0,0,1-1.72-.26l-2.57-1.63a.89.89,0,0,0-1.31,1.07l1.56,3.8a1.73,1.73,0,0,1-.36,1.83"/><path class="cls-4" d="M91.33,324.49a6.58,6.58,0,0,0-5.47,2.71,1.37,1.37,0,0,0-.06,1.65l2,3c.43.67.86.67,1.27,0l4-6.7c.41-.69.22-1.09-.58-1.18a1.22,1.22,0,0,0-1.16.51m136.85.78a1.38,1.38,0,0,0-1.35-.95,4.43,4.43,0,0,0-4.13,1.93,3.31,3.31,0,0,0,1.64,5c2.14.76,3.49.09,4-2a6.23,6.23,0,0,0-.21-4"/><path class="cls-11" d="M158.54,396.27l-.41,12.13a.86.86,0,0,1-.85.81.85.85,0,0,1-.84-.81l-1.22-26.09a1.39,1.39,0,0,0-1.42-1.46l-8.59-.62a1.56,1.56,0,0,0-1.63,1.16c-1.09,4.14-2.27,8.26-3.56,12.32-1.42,4.45-4.64,8.48-6.48,13.2a2.15,2.15,0,0,0,.14,1.85,51.49,51.49,0,0,0,22.16,21.47,2.81,2.81,0,0,0,1.91.26c6.59-1.23,16.83-12.24,21.38-17.84,2.3-2.82,2.12-6.49.21-9.82a76.86,76.86,0,0,1-8.3-21.31,1.54,1.54,0,0,0-1.55-1.18l-9.06.45a1.21,1.21,0,0,0-1.14,1.13l-.58,10.72"/><path class="cls-4" d="M158.71,392.64a23.85,23.85,0,0,1,.78-13.27c.25-.65,0-.95-.67-.94l-2.42.08c-.58,0-.8.32-.69.9a49.79,49.79,0,0,1,.64,15.27,2.18,2.18,0,0,0,.15,1.2,4,4,0,0,0,.65,1c.3.34.56.32.81-.06a1.61,1.61,0,0,1,.58-.58"/><path class="cls-10" d="M158.71,392.64a7.3,7.3,0,0,0-.17,3.63"/><line class="cls-10" x1="153.8" y1="371.79" x2="164.85" y2="372.15"/><path class="cls-11" d="M164.85,372.15l21.9-1.15a1,1,0,0,0,1-1.14c-.07-.62-.5-1-1.27-1a182.23,182.23,0,0,0-20.67-.47"/><line class="cls-10" x1="165.78" y1="368.36" x2="149.91" y2="368.35"/><path class="cls-11" d="M149.91,368.35l-22,.48a1,1,0,0,0-.93.9,1,1,0,0,0,.8,1,96.9,96.9,0,0,0,26.06,1.05"/><path class="cls-12" d="M370.54,1.67l-3,.64c-.13-.67-.62-1-1.44-.92s-.92.42-.57,1.05l.32.56a3.25,3.25,0,0,1-2.49-.71A1.28,1.28,0,0,1,364,.06a10.48,10.48,0,0,1,6.52,1.61Z"/><path class="cls-13" d="M367.51,2.31a14.11,14.11,0,0,1,7.35,6.61,1.24,1.24,0,0,1,.12.82L360.26,77.11a2,2,0,0,0,.45,1.82c1.67,2,2.42,3.57,2.21,4.81l-15-3.61a.72.72,0,0,1-.45-1.07l.33-.56a1,1,0,0,1,1.37-.4c3.24,1.6,5.32.57,6.2-3.08q7-29.32,13.12-58.84c1-4.73,3.11-11.87-2.66-13.18l-.32-.56c-.35-.63-.16-1,.57-1s1.31.25,1.44.92Z"/><path class="cls-14" d="M370.54,1.67l15.89,4a1.1,1.1,0,0,1,.9,1.4l-.11.58a.6.6,0,0,1-.86.55c-3.65-1-5.8.2-6.48,3.59-1.63,8.09-3.91,16-5.32,24.19a1,1,0,0,0,.83,1.27q18.9,5.06,37.59,9.88c1,.25,1.56-.5,1.84-2.28a9.51,9.51,0,0,1-.23,4.08,1.1,1.1,0,0,1-1.48.82L373.16,39.52a1.38,1.38,0,0,0-.92,2.59l2.49,1.18-.78-.08a1.06,1.06,0,0,0-1.24.9q-3.51,15-6.31,30.16a17.24,17.24,0,0,0,.1,6.72,1.68,1.68,0,0,0,1.06,1.21l5.13,2a1.23,1.23,0,0,1-.8,2.32l-9-2.73c.21-1.24-.54-2.85-2.21-4.81a2,2,0,0,1-.45-1.82L375,9.74a1.24,1.24,0,0,0-.12-.82,14.11,14.11,0,0,0-7.35-6.61l3-.64Z"/><path class="cls-12" d="M259.86,10.13a3.12,3.12,0,0,0,.28-1.27c0-.37-.32-.62-.82-.73a6.58,6.58,0,0,0-2.14-.07,5.12,5.12,0,0,1,4-.53,1,1,0,0,1,.15,1.91l-1.48.69Z"/><path class="cls-14" d="M257.18,8.06a6.58,6.58,0,0,1,2.14.07c.5.11.78.36.82.73a3.12,3.12,0,0,1-.28,1.27c-3.33.4-4.76,2.12-4.25,5.17q5.25,32.43,12.47,63.46a3.84,3.84,0,0,0,3.72,3,51.85,51.85,0,0,0,15.92-2.6q7-2.22,5.28-9.49a1.42,1.42,0,0,1,1-1.7,1.45,1.45,0,0,1,1.78.88c1.46,3.89,2.21,11.3-.58,15a2.19,2.19,0,0,0-2-2.72,6.23,6.23,0,0,0-2.92.34,99.28,99.28,0,0,1-22.78,4.23c-2.49.17-4-1-4.5-3.55q-6.54-32.26-12.31-64.83a2.77,2.77,0,0,0-.9-1.61A16.25,16.25,0,0,0,239.11,12l18.07-3.95Z"/><path class="cls-13" d="M239.11,12a16.25,16.25,0,0,1,10.66,3.74,2.77,2.77,0,0,1,.9,1.61Q256.45,49.91,263,82.19c.51,2.52,2,3.72,4.5,3.55a99.28,99.28,0,0,0,22.78-4.23,6.23,6.23,0,0,1,2.92-.34,2.19,2.19,0,0,1,2,2.72L253.4,92.05a.69.69,0,0,1-.79-.88c.17-.54.75-.9,1.76-1.07l1.29.34a1.37,1.37,0,0,0,1.63-.6,2.6,2.6,0,0,0,.43-2.15l-1.23-12.34a10.88,10.88,0,0,0-1-7.34l-.94-4.24-2.26-14.19c-.1-.57-.19-.57-.32,0a9.92,9.92,0,0,0,.35,4.49l-2-10.93A34.1,34.1,0,0,0,247.65,29l-.82-3.29A12,12,0,0,0,245.2,18a4.67,4.67,0,0,0-2-3,2.08,2.08,0,0,0-1.29-.37l-4.85.18a.92.92,0,0,1-.74-1.51A3.89,3.89,0,0,1,239.11,12m18.75,72.48v1.93a.41.41,0,0,0,.39.41.4.4,0,0,0,.41-.4,16.46,16.46,0,0,0-.77-5.57.24.24,0,0,0-.45,0,2.86,2.86,0,0,0,.12,2.06,4.18,4.18,0,0,1,.3,1.57Z"/><path class="cls-15" d="M413.49,12.76l6.08,3.48c-.64.13-.9.41-.78.86q-6.82-1.77-5.3-4.34Z"/><path class="cls-14" d="M413.49,12.76l23.72,6.1c.76.2.91.62.47,1.27a2.5,2.5,0,0,1-3,.82A3.72,3.72,0,0,0,430,23.67q-7,29.73-13.09,59a53.37,53.37,0,0,0-1.12,9.42,2.53,2.53,0,0,0,.62,1.77,6.31,6.31,0,0,0,5.07,2.31,1.08,1.08,0,0,1,1.18,1l.15.77c.15.75-.15,1.1-.9,1.08a12,12,0,0,1-6.47-1.68l-4.5-5.3a2.1,2.1,0,0,1-.47-1.74q6.33-32.2,13.88-64.13c1.12-4.79-.81-7.66-4.76-9.9l-6.08-3.48Z"/><path class="cls-13" d="M419.57,16.24c3.95,2.24,5.88,5.11,4.76,9.9q-7.56,31.92-13.88,64.13a2.1,2.1,0,0,0,.47,1.74l4.5,5.3-13.69-3.26a1.51,1.51,0,0,0,.09-1.63,13.16,13.16,0,0,0,3.79-6.7q4-16,7.11-31.86a.8.8,0,0,0-.66-1.06l-37.33-9.51-2.49-1.18a1.38,1.38,0,0,1,.92-2.59l39.95,10.24a1.1,1.1,0,0,0,1.48-.82,9.51,9.51,0,0,0,.23-4.08q3-15.13,4-19a15.65,15.65,0,0,0,0-8.72c-.12-.45.14-.73.78-.86Z"/><path class="cls-14" d="M245.2,18a12,12,0,0,1,1.63,7.68L245.2,18Z"/><path class="cls-14" d="M250.31,43.12,247.65,29a34.1,34.1,0,0,1,2.66,14.12Z"/><path class="cls-14" d="M243.23,91.81c-6.1,6.27-12.13,6-18.42-.23Q202.88,70,181.49,47.89a23.5,23.5,0,0,1-5-7.32,1,1,0,0,0-1.16-.6,1,1,0,0,0-.79,1.05l.45,8.09a26,26,0,0,1-1-10.65,1.78,1.78,0,0,1,3-1q26.66,27.07,54.09,53.47,4.09,3.93,12.07.88Z"/><path class="cls-13" d="M243.23,91.81c-.91,0-.67-.06.72-.08a.91.91,0,0,1,.43,1.71l-17.21,9c-1.1,0-1.95-1.09-2.55-3.29a173.14,173.14,0,0,0-18.34-19.3,1.9,1.9,0,0,0-1.46-.64,2,2,0,0,0-1.39,1.2L186,89.77c-1.18-.08-1.78-.53-1.84-1.33a1.43,1.43,0,0,1,.73-1.28l18.3-9.5c.61-.32.65-.72.11-1.15l-6.72-5.28L182.5,56.39c-.2-1.59-1.78-3.8-4.68-6.65a.6.6,0,0,0-.8-.05.59.59,0,0,0-.19.78L178,52.59a4.52,4.52,0,0,1,.49,1.59q3.19,30.78,7.22,61.49a5.68,5.68,0,0,0,1.75,3.69,17.57,17.57,0,0,0,3.68,2.36l-14,7.69a1,1,0,0,1-1.33-.41,1.15,1.15,0,0,1-.07-.9,1.07,1.07,0,0,1,.59-.52q7.17-3.37,5.34-12a23.53,23.53,0,0,0-1.2-12.41L175,49.11,174.58,41a1,1,0,0,1,.79-1.05,1,1,0,0,1,1.16.6,23.5,23.5,0,0,0,5,7.32Q202.87,70,224.81,91.58c6.29,6.18,12.32,6.5,18.42.23Z"/><path class="cls-12" d="M332.87,44.24l-.13-1.16c-.07-.77-.49-1.07-1.25-.9-6.31,1.44-16.78,4.33-23,2.14a1.09,1.09,0,0,0-1.61.84l-1.31,4.66c-.22.77.06,1.2.86,1.25a13.25,13.25,0,0,0,5.43-1,10,10,0,0,1-5.57,1.79,1.09,1.09,0,0,1-1.09-1.31l1.35-7.41A1.25,1.25,0,0,1,307.93,42l24.46-.21a.44.44,0,0,1,.26.1q2.67,2,.22,2.39Z"/><path class="cls-13" d="M332.87,44.24,311.9,50a13.25,13.25,0,0,1-5.43,1c-.8,0-1.08-.48-.86-1.25l1.31-4.66a1.09,1.09,0,0,1,1.61-.84c6.18,2.19,16.65-.7,23-2.14.76-.17,1.18.13,1.25.9l.13,1.16Z"/><path class="cls-14" d="M254.54,63.77l-2.23-9.72a9.92,9.92,0,0,1-.35-4.49c.13-.55.22-.55.32,0l2.26,14.19Z"/><path class="cls-14" d="M182.5,56.39l2.77,26.17c.1.8.49,1,1.2.64l13.11-7a1,1,0,0,0,.24-1.55l-3.2-3.41,6.72,5.28c.54.43.5.83-.11,1.15l-18.3,9.5a1.43,1.43,0,0,0-.73,1.28c.06.8.66,1.25,1.84,1.33l3.52,26.5a2.23,2.23,0,0,0,2.83,1.84l3.38-1a.86.86,0,0,1,1,1.25,6.76,6.76,0,0,1-5.66,3.35,17.57,17.57,0,0,1-3.68-2.36,5.68,5.68,0,0,1-1.75-3.69q-4-30.72-7.22-61.49a4.52,4.52,0,0,0-.49-1.59l-1.12-2.12a.59.59,0,0,1,.19-.78.6.6,0,0,1,.8.05c2.9,2.85,4.48,5.06,4.68,6.65Z"/><path class="cls-14" d="M486.54,141c-.75-2-1.42-3.8-2-5.5a10.64,10.64,0,0,1-.45-5.66q8.85-49.21,12.8-68.21A20.09,20.09,0,0,1,500,55c.43-.62.3-1.08-.4-1.4l-1.06-.49c1.81-1.25,3-1.2,3.52.15a4.87,4.87,0,0,1,0,2.64q-6.84,37-13.21,74c-1.07,6.17.6,10.63,5,13.34a.39.39,0,0,1,.17.27l.13,1c.11.92-.25,1.18-1.09.83a17.36,17.36,0,0,1-6.55-4.42Z"/><path class="cls-13" d="M498.56,53.15l1.06.49c.7.32.83.78.4,1.4a20.09,20.09,0,0,0-3.17,6.59q-4,19-12.8,68.21a10.64,10.64,0,0,0,.45,5.66c.62,1.7,1.29,3.54,2,5.5L477,134.39a1.06,1.06,0,0,1-.43-1.38l2.92-8c.91-1.11,1.31-2.79,1.18-5l.65-5.26a25.56,25.56,0,0,0,1.87-10.07l.32-1.4a1.24,1.24,0,0,0-.54-1.43L465.66,90a1.68,1.68,0,0,1-.24-1.7,1.22,1.22,0,0,1,2-.55L484.2,99c.48.34.78.23.9-.35.31-1.48.26-2.38-.15-2.73l5.73-28A8.1,8.1,0,0,0,492.87,63c.09-1.11-.27-1.3-1.11-.57l-48.17,41.88a1.84,1.84,0,0,0-.67,1.74c.28,2.08,0,3.67-.79,4.74a118.21,118.21,0,0,1-12.21-8.13,1.16,1.16,0,0,1-.41-1.68,1.07,1.07,0,0,1,1.61-.27q5.25,4.56,10.95-.24,28.29-23.73,56.49-47.36Z"/><path class="cls-16" d="M182.5,56.39l14.12,14.84,3.2,3.41a1,1,0,0,1-.24,1.55l-13.11,7c-.71.39-1.1.16-1.2-.64L182.5,56.39Z"/><path class="cls-14" d="M490.68,67.86,470.83,85.5c-.54.47-.52.92.09,1.31l14,9.1c.41.35.46,1.25.15,2.73-.12.58-.42.69-.9.35L467.44,87.74a1.22,1.22,0,0,0-2,.55,1.68,1.68,0,0,0,.24,1.7l-19.45,17.39a1.68,1.68,0,0,0-.22,2.3l3,3.9a.62.62,0,0,1-.11.86l-.39.32a.77.77,0,0,1-.81.09,17.24,17.24,0,0,1-5.56-4c.81-1.07,1.07-2.66.79-4.74a1.84,1.84,0,0,1,.67-1.74l48.17-41.88c.84-.73,1.2-.54,1.11.57a8.1,8.1,0,0,1-2.19,4.82Z"/><path class="cls-16" d="M490.68,67.86,485,95.91l-14-9.1c-.61-.39-.63-.84-.09-1.31l19.85-17.64Z"/><path class="cls-14" d="M255.48,68a10.88,10.88,0,0,1,1,7.34,11.91,11.91,0,0,1-1-7.34Z"/><path class="cls-14" d="M224.62,99.13q-9.9-9.21-19.19-18.55a1.55,1.55,0,0,0-2-.19,2,2,0,0,1,1.39-1.2,1.9,1.9,0,0,1,1.46.64,173.14,173.14,0,0,1,18.34,19.3Z"/><path class="cls-14" d="M257.56,82.92a2.86,2.86,0,0,1-.12-2.06.24.24,0,0,1,.45,0,16.46,16.46,0,0,1,.77,5.57.4.4,0,0,1-.41.4.41.41,0,0,1-.39-.41V84.49a4.18,4.18,0,0,0-.3-1.57Z"/><path class="cls-12" d="M562.12,103.11c-1.44-1-4.07-1.59-7.85-1.64l-.86-7.66a1,1,0,0,0-2-.21l-.54,1.73-2.92-7.7a.86.86,0,0,1,.48-1.23,1.58,1.58,0,0,1,.86-.15,1.16,1.16,0,0,1,.77.56q6.08,8.34,12.08,16.3Z"/><path class="cls-14" d="M257.72,87.69a2.6,2.6,0,0,1-.43,2.15,1.37,1.37,0,0,1-1.63.6l-1.29-.34a8.25,8.25,0,0,0,3.35-2.41Z"/><path class="cls-15" d="M401.82,92.42a1.51,1.51,0,0,1-.09,1.63,7,7,0,0,1-3.93-1.34,1,1,0,0,1,.3-1.69q3-.93,3.72,1.4Z"/><path class="cls-13" d="M554.27,101.47a13.3,13.3,0,0,1-2.66,5.56c-2.17,2.84-3.37,4.45-3.59,4.81q-15.19,23.72-30.29,47.47-3.51,5.53-8.22,4.1l40.18-64.17a6,6,0,0,0,.69-1.71l.47-2.2.54-1.73a1,1,0,0,1,2,.21l.86,7.66Z"/><path class="cls-14" d="M224.62,99.13c.6,2.2,1.45,3.31,2.55,3.29a2,2,0,0,1-2.13.24,1.24,1.24,0,0,1-.77-1.46l.35-2.07Z"/><path class="cls-14" d="M554.27,101.47c3.78,0,6.41.59,7.85,1.64a8.87,8.87,0,0,1,3.24,4.91.94.94,0,0,1-1.58.86l-2.66-2.66a2,2,0,0,0-3.14.32L525.57,156a11.68,11.68,0,0,0-5.18,4.23c-.51.75-.34,1,.5.66l50.92-18.87c.7-.26,1,0,.77.69a5.32,5.32,0,0,1-2.3,3.24l-56.71,20.76a3.7,3.7,0,0,1-2.54,0c-1.61-.56-2.12-1.69-1.52-3.35q4.71,1.43,8.22-4.1,15.1-23.76,30.29-47.47c.22-.36,1.42-2,3.59-4.81a13.3,13.3,0,0,0,2.66-5.56Z"/><path class="cls-14" d="M180.44,103.17a23.53,23.53,0,0,1,1.2,12.41l-1.2-12.41Z"/><path class="cls-12" d="M483.22,104.61a25.56,25.56,0,0,1-1.87,10.07l1.87-10.07Z"/><path class="cls-14" d="M480.7,119.94c.13,2.25-.27,3.93-1.18,5a6.25,6.25,0,0,1,1.18-5Z"/><path class="cls-12" d="M350.92,177.26a409.07,409.07,0,0,0,44,7.84c4.31.53,8.69,2.36,13.09,3.3a2.2,2.2,0,0,1,1.46,1.08c9.12,16.76,30.78,8.26,33.87,31.94a3.3,3.3,0,0,1-3.17,3.72,827.28,827.28,0,0,0-102.33,9.29c-24.39,3.76-48.84,7.21-73.14,11.59-6.65,1.19-13.18,2.11-19.64,2.75a4.41,4.41,0,0,1-4.61-3c-2-6-5.2-12.78-3.52-19.06,1-3.5,1.91-7,2.89-10.44a1.25,1.25,0,0,1,1.14-1l90.61-12c.94-.14,1-.34,0-.62-13.11-4.23-26.31-3.6-40-3.78a48.43,48.43,0,0,1-22.88-5.68c-6.49-3.21-7.64-7.74-10.18-14.13-3.33-8.33-.17-11.59,7.84-13.57,3.62-.9,7.21-2.45,10.84-2.68q27-1.71,45.1-5.43c2.3-.46,5.15-1.9,8.58-4.28.54-.38.48-.66-.13-.86-12.25-3.8-22.56,4-33.72-1a2,2,0,0,1-1.13-1.33c-2-7.56,11.76-17.17,17.43-20q7.62-3.8,20.35-4.65c13.32-.89,29.57-1.25,42.63,1.84,11.57,2.73,25.88,4.32,35,12.58,11,9.92,32.39,15.14,33.66,33.47.06.69-.26,1-.95,1q-21.87-.61-43.53-3-14.4-1.6-20.93-1.28c-7.8.4-22.11,1.24-28.9,6.2-.77.56-.7,1,.24,1.16Z"/><path class="cls-12" d="M69.7,139.43l3.56-.11c1.12,0,1.18-.3.17-.81l-4.14-2a1.81,1.81,0,0,0-1.85.17Q42.81,154.45,63.64,176q-16.2-9.66-9.89-26.54,3.47-9.24,13.69-17.13a1.09,1.09,0,0,1,1.52,0L77.64,140a1.3,1.3,0,0,1,.25,1.65,1.28,1.28,0,0,1-1.58.5l-6.61-2.69Z"/><path class="cls-14" d="M554.25,194.07a9.46,9.46,0,0,0-4.83,4.55c-.35.8-.11,1,.7.67l57.49-25.08a2.23,2.23,0,0,0,1.27-1.52q2.79-11-2-3.69a10.42,10.42,0,0,0-2.12-6.32.84.84,0,0,1,.7-1.33l.52,0a1.35,1.35,0,0,1,1.16.58l12.6,16.81a1.23,1.23,0,0,1-.43,1.87,1.16,1.16,0,0,1-.86-.07,1.56,1.56,0,0,1-.66-.53c-2.22-3.07-5.24-3.82-9.06-2.22q-31.62,13.15-63.2,26.41a15.73,15.73,0,0,1-5,1.2,1.44,1.44,0,0,1-1.48-.81c-.73-1.37-.69-2.41.13-3.14q6.66-.48,10.56-8.48c7.68-15.71,16.85-31.1,25.55-46.28,2.33-4.08,5.49-6.85,9-9.73a1.14,1.14,0,0,0-.79-2,4.71,4.71,0,0,1-.71-.19c1.93-1.54,3-1.12,3.39,1.24a2.7,2.7,0,0,1-.34,1.77l-31.62,56.33Z"/><path class="cls-13" d="M582.82,134.73a4.71,4.71,0,0,0,.71.19,1.14,1.14,0,0,1,.79,2c-3.5,2.88-6.66,5.65-9,9.73-8.7,15.18-17.87,30.57-25.55,46.28q-3.9,8-10.56,8.48L570.28,146a5.32,5.32,0,0,0,2.3-3.24c.19-.73-.07-1-.77-.69l-50.92,18.87c-.84.32-1,.09-.5-.66a11.68,11.68,0,0,1,5.18-4.23l57.25-21.3Z"/><path class="cls-13" d="M69.7,139.43q-12.21,6.48-11.57,18.36L58,165a1.78,1.78,0,0,0,.58,1.37c17.21,15.42,36.55-9.31,53.79,5.74a18.42,18.42,0,0,0,7.77,4c4.68,13.48-3.65,27.65-15,35a1.94,1.94,0,0,1-1.72.24,11.25,11.25,0,0,1-5.45-4.1c4.62-.38,7.51-.9,8.65-1.59q12.43-7.5,12.75-23.66a1.73,1.73,0,0,0-.58-1.35,32.18,32.18,0,0,0-14.87-8,105.8,105.8,0,0,0-21.88,4c-5.54,1.56-11.7,1.35-18.46-.58q-20.8-21.58,3.8-39.36a1.81,1.81,0,0,1,1.85-.17l4.14,2c1,.51.95.77-.17.81l-3.56.11Z"/><path class="cls-14" d="M143.22,164.25q-.67-4.25-10.07-3.48l1.12-4.7a1.4,1.4,0,0,1,1.69-1.18l5.71.6a1.71,1.71,0,0,1,1.57,1.27,11.38,11.38,0,0,1,0,7.49Z"/><path class="cls-14" d="M58.13,157.79c10.94,25.89,46.25-16.92,62,18.29a18.42,18.42,0,0,1-7.77-4c-17.24-15-36.58,9.68-53.79-5.74A1.78,1.78,0,0,1,58,165l.11-7.17Z"/><path class="cls-13" d="M133.15,160.77q9.4-.77,10.07,3.48c-.43,1.42-1.23,2.08-2.41,1.95-6.14-.62-8.69-2.44-7.66-5.43Z"/><path class="cls-13" d="M554.25,194.07Q575.4,184.5,596,175.28q7.59-3.41,10.88-6.28,4.77-7.29,2,3.69a2.23,2.23,0,0,1-1.27,1.52l-57.49,25.08c-.81.36-1,.13-.7-.67a9.46,9.46,0,0,1,4.83-4.55Z"/><path class="cls-14" d="M98,207.23A13.39,13.39,0,0,1,92.6,202a1.35,1.35,0,0,1,2.17-1.58c8.56,9.53,20.32-5,21-12.93q.8-10-11.74-14.92a32.18,32.18,0,0,1,14.87,8,1.73,1.73,0,0,1,.58,1.35q-.32,16.14-12.75,23.66c-1.14.69-4,1.21-8.65,1.59Z"/><path class="cls-14" d="M595.44,307.38l27.32-5.06q22.23-9.57,22-34.83c-.07-8.46-2.21-22.88-7.43-31.47a.9.9,0,0,0-1.52,0,3.23,3.23,0,0,0-.43,2q-25.92,8.19-51.39,18c-6.33,2.46-10.44,2.62-8.8,11.46,5.15,27.7,22.15,42.66,50.29,26.58a15.33,15.33,0,0,1-8.24,5q-7.54,2-14.75,4.21c-5.21,1.59-8.56.32-12.73-2.53-11.38-9.08-16.53-23.38-19-37.91a14.59,14.59,0,0,1,.49-7.45,2.15,2.15,0,0,1,1.29-1.31q28.2-10.35,56.65-20a8.56,8.56,0,0,0,4.44-2.94c1.52-2.19,1.48-4.21-.11-6l-1-6.63a1.28,1.28,0,0,1,2.49-.58q4.29,13.62,8.24,27.24,5.58,19.33,5.33,27.79c-.77,27.17-28,44.39-53.15,34.45Z"/><path class="cls-14" d="M96.31,233.36l-.64-2.45a1.06,1.06,0,0,0-1.18-.9c-5.2,0-8,1.09-8.39,3.16a13.22,13.22,0,0,1,0-6.81A2.26,2.26,0,0,1,87.32,225c2.57-1.19,7.51-2.43,8.24,1.46.47,2.42,1.22,4.76.75,6.91Z"/><path class="cls-13" d="M633.56,225.11c1.59,1.83,1.63,3.85.11,6a8.56,8.56,0,0,1-4.44,2.94q-28.44,9.63-56.65,20a2.15,2.15,0,0,0-1.29,1.31,14.59,14.59,0,0,0-.49,7.45c2.44,14.53,7.59,28.83,19,37.91a1.59,1.59,0,0,0,.69,1.5c.38.32.32.5-.17.58l-2,.34c-12.71-9.91-17.11-25.33-20.2-40.92-1.08-5.55-3.24-10.69-4.77-16.14a1.9,1.9,0,0,1,.33-1.78l.36-.47c.52-.67.88-.6,1,.25q1.26,6,7.64,3.93,27.93-9.18,55.43-19.47a17.62,17.62,0,0,0,5.47-3.46Z"/><path class="cls-14" d="M28.63,234.37l-9,.08q-3.59-.7-6.12,3.2a61.92,61.92,0,0,0-10.33,39.2c.32,4.41,2.34,8.55,4,12.71a33.16,33.16,0,0,0,4.75,8.79q12.27,15.28,33.72,14.12-19.29,2.41-33.42-11.1c-21.66-20.74-10.09-49.66,1.24-71.92a1.34,1.34,0,0,1,1.7-.62l13.5,5.54Z"/><path class="cls-13" d="M96.31,233.36c-6.2,2.21-9.59,2.15-10.21-.19.4-2.07,3.19-3.14,8.39-3.16a1.06,1.06,0,0,1,1.18.9l.64,2.45Z"/><path class="cls-14" d="M81.16,261.7a1.68,1.68,0,0,1-.77-1.7.61.61,0,0,0-.63-.73l-.51,0a.79.79,0,0,0-.84.77q-.14,16.68-7.81,28.81c-10,15.95-32.59,23.3-49.95,12.28a16.15,16.15,0,0,1-4.79-5.52,53.28,53.28,0,0,0-4.27-6.18c25.71,23.94,64.31,9.43,62.93-26.9a1.33,1.33,0,0,0-.88-1.27l-4-1.65a9.92,9.92,0,0,1,4.42.78,1.48,1.48,0,0,0,1.81-.61l1.31-2.23c.41-.71.23-1.2-.54-1.46L53.79,248.3a5,5,0,0,0-5.9,2.25,10,10,0,0,1-4.28,4.15l5.8-19.84a1,1,0,0,1,1-.75H51a.88.88,0,0,1,.88,1l-.64,5.17a1.25,1.25,0,0,0,.84,1.44A260.26,260.26,0,0,0,78.05,251c3.36,1,4.38,4.58,3.11,10.74Z"/><path class="cls-13" d="M19.62,234.45,22.54,236c-9.39,2.83-15,19.47-16.58,27.5Q3,278.43,11.59,289.39a53.28,53.28,0,0,1,4.27,6.18,16.15,16.15,0,0,0,4.79,5.52c17.36,11,39.92,3.67,49.95-12.28q7.66-12.13,7.81-28.81a.79.79,0,0,1,.84-.77l.51,0a.61.61,0,0,1,.63.73,1.68,1.68,0,0,0,.77,1.7c-.32,21.42-12,46.78-35.55,50.77q-21.42,1.15-33.72-14.12a33.16,33.16,0,0,1-4.75-8.79c-1.63-4.16-3.65-8.3-4-12.71a61.92,61.92,0,0,1,10.33-39.2q2.54-3.9,6.12-3.2Z"/><path class="cls-15" d="M19.62,234.45l9-.08c1.37,2.21-.66,2.75-6.09,1.65l-2.92-1.57Z"/><path class="cls-13" d="M622.76,302.32l-7.42.55c-1.05.09-1.21-.27-.52-1.05l2.43-2.75a15.33,15.33,0,0,0,8.24-5,34.61,34.61,0,0,0,12.92-16.42c.54,2,1,.92,1.46-3.29q3.55-16.87-4.48-36.35a3.23,3.23,0,0,1,.43-2,.9.9,0,0,1,1.52,0c5.22,8.59,7.36,23,7.43,31.47q.22,25.23-22,34.83Z"/><path class="cls-16" d="M635.39,238q8.07,19.46,4.48,36.35a6.32,6.32,0,0,0-1.46,3.29A34.61,34.61,0,0,1,625.49,294c-28.14,16.08-45.14,1.12-50.29-26.58-1.64-8.84,2.47-9,8.8-11.46q25.47-9.83,51.39-18Z"/><path class="cls-12" d="M178.76,332.67c4.92-12.26,12-27.3,12.15-39.35.26-22.5-15-34.13-30.95-47a3.72,3.72,0,0,0-4.85.14c-6.42,5.72-14.84,11.45-19.82,17.11-15.94,18-12.51,38.91-2.89,59.26a149.92,149.92,0,0,1,12.1,37.78,3.66,3.66,0,0,1-2.16-1c-.54-.46-1-.39-1.33.23l-.63,1.09c-.47.76-.25,1.23.63,1.36l2.34.38a13.31,13.31,0,0,1-8,1,3.23,3.23,0,0,0,1.44-.76c.53-.53.43-.9-.26-1.13a7.55,7.55,0,0,0-3.37-.31l5.39-1a2,2,0,0,0,1.61-2.28c-2.9-18.51-11.72-43.88-29.54-52.86-18.87-9.49-38,3-42.93,22a25.89,25.89,0,0,0,.49,15c3.67,10.76,12.3,20.36,24.26,21.24a2.09,2.09,0,0,0,2.23-2.36q-1.94-14.12,10.56-18.34c10.91-3.69,18.34,8.89,20.89,17.52a1.36,1.36,0,0,0,1.37,1.07l4.75.19a3.07,3.07,0,0,0-1.06.71.69.69,0,0,0,.09,1.08,2.82,2.82,0,0,0,1.83.6l-10,3.3a2.74,2.74,0,0,0-.77,4.81,23,23,0,0,0,9.64,3.7c-1.24.3-1.85.71-1.87,1.22s.34,1,1.14,1.38c-2.64-.09-4.12.59-4.46,2q-3.84,16.08-19.2,11.66a2,2,0,0,0-2.31,2.83c5.51,10.57,18.37,18.75,26.79,4.94a123,123,0,0,0,7.1-12.64c-2.1,21.79-26.19,31.24-36.26,7.08-.88-2.16-.72-3.78.54-4.93a1.47,1.47,0,0,1,1.61-.3,17.82,17.82,0,0,0,16.59-1.34,2.53,2.53,0,0,0,1.16-1.78,15.82,15.82,0,0,1,4.3-8.93c.51-.54.41-.92-.28-1.16-3-1.05-11.74-2.88-7.94-8.33a2.62,2.62,0,0,1,1.69-1.09l4-.73a.78.78,0,0,0,.71-1.08,37.82,37.82,0,0,0-5-12.24,16.51,16.51,0,0,0-7.67-6.84c-10.58-4.15-18.16,7-14.94,16.53a2.94,2.94,0,0,1-3,3.88C79.5,364.9,67.27,353.37,66,338.83q-1-11.55,1-17.19c.84-2.32,2.77-5.33,5.78-9.06a36.78,36.78,0,0,1,7.72-7.41,30.76,30.76,0,0,1,17.71-5.32,21.93,21.93,0,0,1,9.47,2.6c4.18,2.1,8,3.47,11.31,6.89a123.75,123.75,0,0,1,11,13.09,15.26,15.26,0,0,0,3.27,6.77c.88,1,1,.9.49-.31a29.47,29.47,0,0,0-3.76-6.46q-8.3-17.58-8.37-30.1-.09-11.43,6.83-22.49a65.31,65.31,0,0,1,12-13.36c4.53-4,9.21-7.75,14-11.33a4.89,4.89,0,0,1,5.84,0c12.56,9.44,23,17.51,30.18,32.46,2.32,4.85,1.16,9.46,2.9,14.7a2.62,2.62,0,0,1,0,1.81c-1.83,4.91-.52,8.93-2.51,13.56q-5.42,12.69-12.07,25Z"/><path class="cls-17" d="M178.76,332.67c.28,1,.13,1.38-.43,1.19a73.17,73.17,0,0,0-7.75,26.81l-6.71-.54-3.37-1.22a1.53,1.53,0,0,1-1-1.44l-.86-79.2a.87.87,0,0,0-1.44-.66,2.16,2.16,0,0,0-.71,1.63q-.81,38.67-1.18,77.69a1.81,1.81,0,0,1-1.76,1.79,9.34,9.34,0,0,0-5.07,1.71l-3.95.17a149.92,149.92,0,0,0-12.1-37.78c-9.62-20.35-13.05-41.26,2.89-59.26,5-5.66,13.4-11.39,19.82-17.11a3.72,3.72,0,0,1,4.85-.14c16,12.88,31.21,24.51,30.95,47-.15,12.05-7.23,27.09-12.15,39.35Z"/><path class="cls-12" d="M440.15,267.17c1.49-3.13.31-5.11,1.7-8a13,13,0,0,0,.86-8.94,3.25,3.25,0,0,0-1-1.69,2.44,2.44,0,0,1-.79-1.72c0-.51.21-.75.71-.73l16.57.41a.94.94,0,0,1,.92.86c.43,5.37.5,9,.2,10.82-7.18,44.91-24,81.73-46.63,121.45A45.57,45.57,0,0,1,403,392c-6.4,5.47-25.11,19.32-34.09,13.57a2.45,2.45,0,0,0-1.78-.3c-8,1.87-14.32,13.42-23.16,9.51-2.73-1.22-3.69-3.33-2.88-6.36,3.65-13.69,9.77-21.06,20.27-34.82,19.92-26,43.27-46,61.65-65.54,5-5.28,10-12.39,11.05-20.34a65.76,65.76,0,0,1,6-20.5Z"/><path class="cls-13" d="M69.65,259.57l-20.76-6.68a1.21,1.21,0,0,0-1.65.73l-2.6,5.72a.93.93,0,0,1-.9.55,3.42,3.42,0,0,0-.64,0c-.54,0-.73-.21-.6-.73l1.11-4.46a10,10,0,0,0,4.28-4.15,5,5,0,0,1,5.9-2.25l22.86,7.75c.77.26.95.75.54,1.46l-1.31,2.23a1.48,1.48,0,0,1-1.81.61,9.92,9.92,0,0,0-4.42-.78Z"/><path class="cls-12" d="M285.15,289.69a190.7,190.7,0,0,1-34.9-18.63c-2.82-1.95-3.07-4.58-.71-7.94,8.63-12.22,17.75-10.2,33.83-9.24,20.32,1.2,46.36-.73,60.49-.88,33.18-.34,55.77-.47,85.35,5.76a1.93,1.93,0,0,1,1.33.94q6.24,10.37-4.36,15.85c-21.6,11.2-46.54,25.57-71.82,26.94-17.13.94-33.26-3-49.5-5.86q-5.28-.93-19.71-6.94Z"/><path class="cls-14" d="M639.87,274.32c-.43,4.21-.92,5.32-1.46,3.29a6.32,6.32,0,0,1,1.46-3.29Z"/><path class="cls-12" d="M163.87,360.13l-2.62.8c-.95.28-1,.64-.07,1.05a3.83,3.83,0,0,0,2,.32l-10,.09,5.31-1.27a.62.62,0,0,0,.49-1l-.19-.43a3.46,3.46,0,0,1-.3-1.43l-.37-49.57a1.2,1.2,0,0,0-.84-1.1.63.63,0,0,0-.83.64l.23,48.65c0,2.62-1.29,3.85-3.9,3.72l-4.28-.2a9.34,9.34,0,0,1,5.07-1.71,1.81,1.81,0,0,0,1.76-1.79q.36-39,1.18-77.69a2.16,2.16,0,0,1,.71-1.63.87.87,0,0,1,1.44.66l.86,79.2a1.53,1.53,0,0,0,1,1.44l3.37,1.22Z"/><path class="cls-12" d="M334.29,409.34c10.94,17.39,17.79,35.62,25.9,54.3,6.38,14.66,14.92,26.92,23.77,40,9,13.23,13.11,23.77,14.38,38.67a1.29,1.29,0,0,1-1.35,1.6c-11.25.74-26.49-17.6-32.72-26-15.26-20.67-30.85-40.44-43-64.19-12.06-23.48-21.78-49.7-32.52-74.43a191.46,191.46,0,0,0-25.78-42.9q-15.3-19.21-8.63-42.93a1.7,1.7,0,0,1,1-1.14c10.59-4.28,15.91,4.76,17.6,13.7,1.33,7,4.1,8.62,9.26,12.81q6.3,5.08,15.75,18c12.73,17.47,24,41.65,38.34,59.79a3.24,3.24,0,0,1,.54,3.07l-2.71,8.07a1.9,1.9,0,0,0,.18,1.61Z"/><path class="cls-15" d="M617.25,299.07l-2.43,2.75c-.69.78-.53,1.14.52,1.05l7.42-.55-27.32,5.06-7.19-4.21,2-.34c.49-.08.55-.26.17-.58a1.59,1.59,0,0,1-.69-1.5c4.17,2.85,7.52,4.12,12.73,2.53q7.21-2.19,14.75-4.21Z"/><path class="cls-12" d="M248.16,326.62q-6.6-18-22.37-23.12a24.67,24.67,0,0,0-15.92.17c-13.83,4.66-19.67,13.7-27.11,25.48,6.42-17.3,24.58-34.71,44.37-27.35q17.58,6.54,21,24.82Z"/><path class="cls-17" d="M133.17,361.48l-.92.15-4.75-.19a1.36,1.36,0,0,1-1.37-1.07c-2.55-8.63-10-21.21-20.89-17.52q-12.49,4.22-10.56,18.34a2.09,2.09,0,0,1-2.23,2.36c-12-.88-20.59-10.48-24.26-21.24a25.89,25.89,0,0,1-.49-15c4.89-19,24.06-31.52,42.93-22,17.82,9,26.64,34.35,29.54,52.86a2,2,0,0,1-1.61,2.28l-5.39,1m-46.77-27,.06,1.74a1.33,1.33,0,0,0,1.24,1.31,1.35,1.35,0,0,0,1.44-1.08q1.32-6.79,7-3.62a.94.94,0,0,0,1.25-.26,1,1,0,0,0-.09-1.27l-3-3a1.92,1.92,0,0,1-.43-2.06l1.85-4.51a.83.83,0,0,0-1-1.12,4.52,4.52,0,0,0-2.29,1.29,3.16,3.16,0,0,1-4.62,0l-2.4-2.62a.69.69,0,0,0-.9-.11.71.71,0,0,0-.24.88c1.84,3.93.77,6.57-3.18,7.94a1,1,0,0,0-.69,1.21,1,1,0,0,0,1.1.87A4.1,4.1,0,0,1,86,332.76a4.39,4.39,0,0,1,.37,1.72Z"/><path class="cls-17" d="M248.16,326.62a23.87,23.87,0,0,1,.47,9.79c-3.22,12.73-10.21,24.22-23.84,27-3.24.65-5.58-.77-5.18-4.23,1-8.93-2.27-15.09-11.55-16.89-9.66-1.85-17.6,9.49-18.84,17.5a1.9,1.9,0,0,1-1,1.43,9.9,9.9,0,0,1-5.09.73l-2.6-.55a10.59,10.59,0,0,1-4.53-.95,1.52,1.52,0,0,1-.92-1.41c-.36-8,3.61-18.43,6.8-28.41-.06-1,.26-1.5.91-1.44,7.44-11.78,13.28-20.82,27.11-25.48a24.67,24.67,0,0,1,15.92-.17q15.78,5.14,22.37,23.12m-27.45,1.25-3.35,3.52a.8.8,0,0,0,.86,1.3q6.38-2.4,8.18,3.93a.76.76,0,0,0,.86.54.75.75,0,0,0,.64-.79q-.36-6.42,5.94-6.38a.85.85,0,0,0,.82-.69.83.83,0,0,0-.54-.92q-5.43-1.87-3.8-7.43a.78.78,0,0,0-.79-1q-.32,0-.66,0a1.48,1.48,0,0,0-1.44.91,3.39,3.39,0,0,1-2.32,2.19,2,2,0,0,1-1.72-.26l-2.57-1.63a.89.89,0,0,0-1.31,1.07l1.56,3.8a1.73,1.73,0,0,1-.36,1.83Z"/><path class="cls-16" d="M153.13,362.39l-9.78.25-2.34-.38c-.88-.13-1.1-.6-.63-1.36l.63-1.09c.36-.62.79-.69,1.33-.23a3.66,3.66,0,0,0,2.16,1l3.95-.17,4.28.2c2.61.13,3.92-1.1,3.9-3.72l-.23-48.65a.63.63,0,0,1,.83-.64,1.2,1.2,0,0,1,.84,1.1l.37,49.57a3.46,3.46,0,0,0,.3,1.43l.19.43a.62.62,0,0,1-.49,1l-5.31,1.27Z"/><path class="cls-12" d="M86,332.76a4.1,4.1,0,0,0-4.42-2.71,1,1,0,0,1-1.1-.87A1,1,0,0,1,81.2,328c4-1.37,5-4,3.18-7.94a.71.71,0,0,1,.24-.88.69.69,0,0,1,.9.11l2.4,2.62a3.16,3.16,0,0,0,4.62,0,4.52,4.52,0,0,1,2.29-1.29.83.83,0,0,1,1,1.12l-1.85,4.51a1.92,1.92,0,0,0,.43,2.06l3,3a1,1,0,0,1,.09,1.27.94.94,0,0,1-1.25.26q-5.73-3.16-7,3.62a1.35,1.35,0,0,1-1.44,1.08,1.33,1.33,0,0,1-1.24-1.31l-.06-1.74a4.39,4.39,0,0,0-.37-1.72m5.3-8.27a6.58,6.58,0,0,0-5.47,2.71,1.37,1.37,0,0,0-.06,1.65l2,3c.43.67.86.67,1.27,0l4-6.7c.41-.69.22-1.09-.58-1.18a1.22,1.22,0,0,0-1.16.51Z"/><path class="cls-12" d="M221.07,326l-1.56-3.8a.89.89,0,0,1,1.31-1.07l2.57,1.63a2,2,0,0,0,1.72.26,3.39,3.39,0,0,0,2.32-2.19,1.48,1.48,0,0,1,1.44-.91q.34,0,.66,0a.78.78,0,0,1,.79,1q-1.63,5.55,3.8,7.43a.83.83,0,0,1,.54.92.85.85,0,0,1-.82.69q-6.3,0-5.94,6.38a.75.75,0,0,1-.64.79.76.76,0,0,1-.86-.54q-1.8-6.33-8.18-3.93a.8.8,0,0,1-.86-1.3l3.35-3.52a1.73,1.73,0,0,0,.36-1.83m7.11-.77a1.38,1.38,0,0,0-1.35-.95,4.43,4.43,0,0,0-4.13,1.93,3.31,3.31,0,0,0,1.64,5c2.14.76,3.49.09,4-2a6.23,6.23,0,0,0-.21-4Z"/><path class="cls-16" d="M130,322.43a29.47,29.47,0,0,1,3.76,6.46c.54,1.21.39,1.32-.49.31a15.26,15.26,0,0,1-3.27-6.77Z"/><path class="cls-16" d="M91.33,324.49a1.22,1.22,0,0,1,1.16-.51c.8.09,1,.49.58,1.18l-4,6.7c-.41.69-.84.69-1.27,0l-2-3a1.37,1.37,0,0,1,.06-1.65,6.58,6.58,0,0,1,5.47-2.71Z"/><path class="cls-16" d="M228.18,325.27a6.23,6.23,0,0,1,.21,4c-.56,2.08-1.91,2.75-4,2a3.31,3.31,0,0,1-1.64-5,4.43,4.43,0,0,1,4.13-1.93,1.38,1.38,0,0,1,1.35.95Z"/><path class="cls-12" d="M459.17,371.64c-6.31,8.65-10.88,21.51-12.17,32.08-4.1,33.76-12.1,67.13-39,90.47q-9.73,8.43-18.47-1.47-10.71-12.2-8.62-28.66c2.18-17,19-21.38,27.47-34.58A220.51,220.51,0,0,0,420.53,408q17-34.29,21.28-46.07a191.13,191.13,0,0,1,15.58-33.55c2.23-3.65,5.2-3.91,9-.78,14.13,11.75,2,31.41-7.19,44.08Z"/><path class="cls-12" d="M181.85,330.59c-3.19,10-7.16,20.4-6.8,28.41a1.52,1.52,0,0,0,.92,1.41,10.59,10.59,0,0,0,4.53.95,5,5,0,0,0-2.66.45c-.77.4-.77.81,0,1.22l.64.34-9-.72a5,5,0,0,0,3.48-.5c.58-.38.6-.77.06-1.2a3.07,3.07,0,0,0-2.47-.28,73.17,73.17,0,0,1,7.75-26.81l-.36,2.61a.43.43,0,0,0,.81.24l3.07-6.12Z"/><path class="cls-12" d="M248.63,336.41c1.1,15.82-13,29.16-28.26,29.26a3.34,3.34,0,0,1-3.22-4.27c2-6.66-.05-13.87-7.2-16.08-9.57-3-17.58,6.25-18,15.41a1.67,1.67,0,0,1-1,1.49l-2.15,1.15a1,1,0,0,0-.06,1.66A7,7,0,0,0,193,366.1a2.58,2.58,0,0,1,1.58.47c1.7,1.23,2.32,2.67,1.85,4.3-.86,2.94-4.83,3.75-7.54,4.4a.86.86,0,0,0-.49,1.35l2,2.68A3,3,0,0,1,191,381c.82,12.19,12,10.11,20.29,7.68a.91.91,0,0,1,1.15,1c-2.1,12.26-15.09,26.43-27.77,14.82a32.77,32.77,0,0,1-9-13.53c-.51-1.48-.62-1.46-.34.09A27.3,27.3,0,0,0,182,404.66a4.52,4.52,0,0,1,.62,5.19,50.31,50.31,0,0,1-20.72,20.76C152,436,136.9,418,132.38,411a4.9,4.9,0,0,1,.15-5.51,51.7,51.7,0,0,0,8.45-18c.28-1.12-.06-1.36-1-.75l-.75.49.69-7,7.77-.69c.94-.08,1.09-.45.43-1.14a3.57,3.57,0,0,0-1.51-.81l21.73.08-3.2.9c-.71.2-.75.48-.09.84,3.39,1.87,6.9-.73,10.2.69Q175.4,396.81,188,405c9.36,6.07,17.91-2.19,21.52-10.8a1.77,1.77,0,0,0-2-2.43q-15.27,3.06-20.07-11.55A1.75,1.75,0,0,0,186.4,379a6.63,6.63,0,0,0-2.72-.37,1.91,1.91,0,0,0,1.35-.37,1.37,1.37,0,0,0,.24-1.8c-.35-.54-1.07-.73-2.11-.6l9.75-4a2.26,2.26,0,0,0-.13-4.23L182.26,364l1.51-.11c1.3-.11,1.43-.55.36-1.29l-1-.73a9.9,9.9,0,0,0,5.09-.73,1.9,1.9,0,0,0,1-1.43c1.24-8,9.18-19.35,18.84-17.5,9.28,1.8,12.56,8,11.55,16.89-.4,3.46,1.94,4.88,5.18,4.23,13.63-2.74,20.62-14.23,23.84-27m-90.09,59.86-.41,12.13a.86.86,0,0,1-.85.81.85.85,0,0,1-.84-.81l-1.22-26.09a1.39,1.39,0,0,0-1.42-1.46l-8.59-.62a1.56,1.56,0,0,0-1.63,1.16c-1.09,4.14-2.27,8.26-3.56,12.32-1.42,4.45-4.64,8.48-6.48,13.2a2.15,2.15,0,0,0,.14,1.85,51.49,51.49,0,0,0,22.16,21.47,2.81,2.81,0,0,0,1.91.26c6.59-1.23,16.83-12.24,21.38-17.84,2.3-2.82,2.12-6.49.21-9.82a76.86,76.86,0,0,1-8.3-21.31,1.54,1.54,0,0,0-1.55-1.18l-9.06.45a1.21,1.21,0,0,0-1.14,1.13l-.58,10.72a23.85,23.85,0,0,1,.78-13.27c.25-.65,0-.95-.67-.94l-2.42.08c-.58,0-.8.32-.69.9a49.79,49.79,0,0,1,.64,15.27,2.18,2.18,0,0,0,.15,1.2,4,4,0,0,0,.65,1c.3.34.56.32.81-.06a1.61,1.61,0,0,1,.58-.58Z"/><path class="cls-16" d="M163.87,360.13l6.71.54a3.07,3.07,0,0,1,2.47.28c.54.43.52.82-.06,1.2a5,5,0,0,1-3.48.5l-6.35-.35a3.83,3.83,0,0,1-2-.32c-.9-.41-.88-.77.07-1.05l2.62-.8Z"/><path class="cls-16" d="M132.25,361.63l.92-.15a7.55,7.55,0,0,1,3.37.31c.69.23.79.6.26,1.13a3.23,3.23,0,0,1-1.44.76l-2.25.34a2.82,2.82,0,0,1-1.83-.6.69.69,0,0,1-.09-1.08,3.07,3.07,0,0,1,1.06-.71Z"/><path class="cls-16" d="M180.5,361.36l2.6.55,1,.73c1.07.74.94,1.18-.36,1.29l-1.51.11-3.78-.67-.64-.34c-.77-.41-.77-.82,0-1.22a5,5,0,0,1,2.66-.45Z"/><path class="cls-17" d="M169.51,362.65l9,.72,3.78.67,10.52,3.58a2.26,2.26,0,0,1,.13,4.23l-9.75,4-1.73.41a21.31,21.31,0,0,0-11.14,1.31l-2,.06-21.73-.08-2,.13a21.23,21.23,0,0,0-11.94-1.44c-.88-.22-1.11-.37-.64-.45a23,23,0,0,1-9.64-3.7,2.74,2.74,0,0,1,.77-4.81l10-3.3,2.25-.34a13.31,13.31,0,0,0,8-1l9.78-.25,10-.09,6.35.35m-15.71,9.14,11,.36,21.9-1.15a1,1,0,0,0,1-1.14c-.07-.62-.5-1-1.27-1a182.23,182.23,0,0,0-20.67-.47H149.91l-22,.48a1,1,0,0,0-.93.9,1,1,0,0,0,.8,1,96.9,96.9,0,0,0,26.06,1.05Z"/><path class="cls-12" d="M149.91,368.35c-3.92,1.23-2.61,2.37,3.89,3.44a96.9,96.9,0,0,1-26.06-1.05,1,1,0,0,1-.8-1,1,1,0,0,1,.93-.9l22-.48Z"/><path class="cls-16" d="M149.91,368.35h15.87l1.05,1.15a.68.68,0,0,1-.09,1.14l-1.89,1.5-11-.36c-6.5-1.07-7.81-2.21-3.89-3.44Z"/><path class="cls-12" d="M164.85,372.15l1.89-1.5a.68.68,0,0,0,.09-1.14l-1.05-1.15a182.23,182.23,0,0,1,20.67.47c.77.06,1.2.41,1.27,1a1,1,0,0,1-1,1.14l-21.9,1.15Z"/><path class="cls-12" d="M352,633.6a7.3,7.3,0,0,0-1.17-1.93,6.31,6.31,0,0,0-1.62-1.5c-22.4-14.43-33.83-33.15-44.71-57.11-7.41-16.36-19.06-26.77-21.77-46.22q-3.63-25.92-6.54-51.89a181.52,181.52,0,0,0-5.65-28.47q-9.36-32.6-11.93-60.54-.53-5.87,2.75-13.7a1.57,1.57,0,0,1,1.37-1c3-.28,13-1.95,14.14,2.9q3.39,13.78,9.94,54a84.28,84.28,0,0,0,11.38,30c7.71,12.86,13.52,25.75,16.44,37.85a398.94,398.94,0,0,0,12.28,41.18c5.11,14.3,13.89,22.41,23.4,33.69,5.11,6.05,8.16,18.67,10.39,29.19,1.84,8.61,4.18,18,9,25.25,4.27,6.46,11.92,12.5,17.8,17.84a47.19,47.19,0,0,1,12.55,17,2.45,2.45,0,0,1-2,3.43,89.8,89.8,0,0,1-15.84.11c-6.29-.5-12.9-3.57-19.94-4.38a1.73,1.73,0,0,1-1.42-1A117,117,0,0,1,352,633.6Z"/><path class="cls-16" d="M132,375.83c-.47.08-.24.23.64.45a2.46,2.46,0,0,1,1.64,1.09.73.73,0,0,1-.61,1.05l-1.89.15a4.84,4.84,0,0,0-.51-.14c-.8-.39-1.18-.84-1.14-1.38s.63-.92,1.87-1.22Z"/><path class="cls-12" d="M132.63,376.28a21.23,21.23,0,0,1,11.94,1.44l-7.45.25c-.8,0-.92.32-.36.88l.55.54-5.54-.82,1.89-.15a.73.73,0,0,0,.61-1.05,2.46,2.46,0,0,0-1.64-1.09Z"/><path class="cls-12" d="M181.43,376.3l-1,.58c-.83.43-.79.79.11,1.05l2.17.67-5.21.85.64-.75c.58-.68.43-1-.47-1l-7.34-.06a21.31,21.31,0,0,1,11.14-1.31Z"/><path class="cls-16" d="M181.43,376.3l1.73-.41c1-.13,1.76.06,2.11.6a1.37,1.37,0,0,1-.24,1.8,1.91,1.91,0,0,1-1.35.37l-1-.06-2.17-.67c-.9-.26-.94-.62-.11-1.05l1-.58Z"/><path class="cls-16" d="M144.57,377.72l2-.13a3.57,3.57,0,0,1,1.51.81c.66.69.51,1.06-.43,1.14l-7.77.69-2.56-.84-.55-.54c-.56-.56-.44-.86.36-.88l7.45-.25Z"/><path class="cls-16" d="M168.29,377.67l2-.06,7.34.06c.9,0,1.05.35.47,1l-.64.75-2.26.65c-3.3-1.42-6.81,1.18-10.2-.69-.66-.36-.62-.64.09-.84l3.2-.9Z"/><path class="cls-17" d="M131.26,378.43a4.84,4.84,0,0,1,.51.14l5.54.82,2.56.84-.69,7a123,123,0,0,1-7.1,12.64c-8.42,13.81-21.28,5.63-26.79-4.94a2,2,0,0,1,2.31-2.83q15.36,4.41,19.2-11.66c.34-1.44,1.82-2.12,4.46-2Z"/><path class="cls-16" d="M158.71,392.64a7.3,7.3,0,0,0-.17,3.63,1.61,1.61,0,0,0-.58.58c-.25.38-.51.4-.81.06a4,4,0,0,1-.65-1,2.18,2.18,0,0,1-.15-1.2,49.79,49.79,0,0,0-.64-15.27c-.11-.58.11-.88.69-.9l2.42-.08c.69,0,.92.29.67.94a23.85,23.85,0,0,0-.78,13.27Z"/><path class="cls-17" d="M182.67,378.6l1,.06a6.63,6.63,0,0,1,2.72.37,1.75,1.75,0,0,1,1.08,1.15q4.8,14.6,20.07,11.55a1.77,1.77,0,0,1,2,2.43C205.92,402.77,197.37,411,188,405q-12.62-8.18-12.81-24.86l2.26-.65,5.21-.85Z"/><path class="cls-17" d="M158.54,396.27a7.3,7.3,0,0,1,.17-3.63l.58-10.72a1.21,1.21,0,0,1,1.14-1.13l9.06-.45a1.54,1.54,0,0,1,1.55,1.18,76.86,76.86,0,0,0,8.3,21.31c1.91,3.33,2.09,7-.21,9.82-4.55,5.6-14.79,16.61-21.38,17.84a2.81,2.81,0,0,1-1.91-.26,51.49,51.49,0,0,1-22.16-21.47,2.15,2.15,0,0,1-.14-1.85c1.84-4.72,5.06-8.75,6.48-13.2,1.29-4.06,2.47-8.18,3.56-12.32a1.56,1.56,0,0,1,1.63-1.16l8.59.62a1.39,1.39,0,0,1,1.42,1.46l1.22,26.09a.85.85,0,0,0,.84.81.86.86,0,0,0,.85-.81l.41-12.13Z"/><path class="cls-12" d="M265.74,569.52a99.44,99.44,0,0,1-17.92-41.22,20.41,20.41,0,0,0-3.07-8c-2.23-3.11-8-7.37-8.78-10.76-4.44-19.64-11.59-35.18-21.53-55.64q-2-4.12-3.15-19a1.82,1.82,0,0,1,.57-1.51c5.87-6,10.07-26.47,17.28-27.62,5.65-.89,16.1,7,20.14,10.34a4.65,4.65,0,0,1,1.7,3.65c-.13,13.12-.41,26.32,1.5,39.12q6.47,43.19,21.34,79.78,16.8,41.25,23.65,63.46c2.73,8.87-16.4,5-20.63,3.15a2.35,2.35,0,0,1-1.24-1.35c-1.59-4.55-3.42-8.95-4.23-13.82-.73-4.47-1.51-8.91-2.38-13.34a17.42,17.42,0,0,0-3.25-7.23Z"/><path class="cls-12" d="M475.92,509.54c-29,7.72-14,52.34-47.85,61.27-1,.26-1.42-.11-1.25-1.14,2.73-16.14,6.94-32.31,9.36-47.79a875.38,875.38,0,0,1,22.73-103.67c1.44-5,11.28-5,14.93-4.41,5.21.91,10.43,5.42,14.89,8.72,2.81,2.1,3.74,4.66,3.44,8.33-.9,10.84-2,20.51-5.07,31.62a329,329,0,0,0-9,44.6,2.92,2.92,0,0,1-2.17,2.47Z"/><path class="cls-12" d="M180.24,557.82q-15.54-31.65-18.82-69.88c-1.38-16.1-3.65-54.6,26.4-43.48,1.7.62,2.82,2.09,3.41,4.43a182.53,182.53,0,0,1,4.25,23.42c2.34,21,6.08,40.34,16.62,54.7a2.8,2.8,0,0,1,0,3.37c-2.73,3.63-2.73,8.07-1.4,12.63a209.51,209.51,0,0,0,19.39,46q3.51,6.15,9.44,24.54c2.86,9,2.51,17.22,2.09,26.3a1.47,1.47,0,0,1-1.7,1.38c-21.51-3.63-29.93-23.58-34.76-41.37-4.24-15.57-18.3-28.58-24.9-42Z"/><path class="cls-12" d="M504.06,470.51q6.66-13,14.51-25.6a3.07,3.07,0,0,1,5.6,1c1.42,6.78,4,13,4,20.05.13,9.43.75,18.68-1.76,27.91-4.08,15.05-6.68,25.77-18.61,36.67-11.44,10.46-18,19-21.21,34.72-1.1,5.34-9.1,14.38-14.26,19q-23,20.81-46.34,41.18-9.11,7.95-20.44,6.07a3.27,3.27,0,0,1-2.68-3.77c4.25-25.85,30.48-33.93,44.95-52.78q7.11-9.24,9.15-13.58a268.73,268.73,0,0,1,31.87-51.12,22.47,22.47,0,0,0,4.34-8.44c2.74-10.78,5.08-20.07,10.84-31.34Z"/><path class="cls-12" d="M531.56,573.79c-7.75,4.83-30.7,15.91-35.51,1.07a2.57,2.57,0,0,1,.05-1.75c1.9-4.77,3.71-7.86,5.47-9.24,16.51-13,26.6-34,37-54.74a146.11,146.11,0,0,1,25.82-35.75c3.39-3.52,14.4-7.69,16.27-.53,2,7.83,2.85,16.61,1.29,24.56-1.5,7.66,1.33,15.52,1.59,23.25a2,2,0,0,1-.71,1.59,201.32,201.32,0,0,0-24.62,25.11c-9,10.93-17.28,20.59-26.64,26.43Z"/><path class="cls-12" d="M424.4,557.82a78.81,78.81,0,0,0-4.4,9.32,1.21,1.21,0,0,1-1.35.81q-15.13-1.38-21.49-14.73a2.53,2.53,0,0,1-.17-1.65,17.71,17.71,0,0,1,10.64-12.92,2.81,2.81,0,0,1,1.83-.11q11.71,3.51,15.77,14.73c.71,2,.18,2.92-.83,4.55Z"/></g></g></svg>