<svg xmlns="http://www.w3.org/2000/svg" viewBox="0 0 1904.36 2045.37"><defs><style>.cls-1{fill:#f8e4bc;}.cls-1,.cls-11,.cls-2,.cls-4,.cls-6,.cls-8,.cls-9{fill-rule:evenodd;}.cls-2{fill:#d2ac1c;}.cls-3{font-size:129.54px;font-family:ArsenicaTrial-Regular, Arsenica Trial;}.cls-3,.cls-5{fill:#1d1d1b;}.cls-10,.cls-11,.cls-4{fill:#6b5a48;}.cls-4,.cls-6,.cls-8{stroke:#1d1d1b;stroke-miterlimit:10;}.cls-6{fill:#6b5a4a;}.cls-7,.cls-8{fill:#69c1b7;}.cls-9{fill:#fff;}.cls-12{fill:#93cfeb;}</style></defs><g id="Capa_2" data-name="Capa 2"><g id="Layer_1" data-name="Layer 1"><path class="cls-1" d="M1888.11,1022h0a44.08,44.08,0,0,1-8.06,19.29c-8.68,11.49-18,10.69-20.75,18.3-4.85,13.28,21.85,29.1,17.29,37-2,3.42-9.08,4.11-13.56,2-6.46-3.1-5.74-11.25-8.9-11.6-5.29-.59-18.15,21.1-12.68,40.34,2.57,9.06,7.07,10.55,9.47,22.22.58,2.82.77,4.93.4,21.66-.52,23.86-1.07,26.39-3.2,27.67-7,4.21-19.74-11.9-26.47-7.62-7,4.41-3.21,24.86-3.21,24.86.1,12.13,2.62,19.51-2,24-3.17,3.09-6.8.93-11.93,3.6-11.24,5.87-16.2,16.92-18.08,21-8.92,19.45-22.52,36.71-30,56.75-8.19,21.8-26.75,46.73-63.87,96.6-42.1,56.57-40.13,43.42-81.83,98.8-57.56,76.44-86.45,114.63-90.26,128.43-.77,2.77-4.72,18.28-14.16,20.39-5.37,1.2-8.29-3.7-14.38-2.94-14.3,1.78-27.25,18.6-24.23,24.32,7,13.25,103.48-25.91,105.65-19.75.69,1.94-9.75,5.21-20.73,17.78-8.75,10-9.87,16.77-17.78,30.61-3.76,6.58-11.51,20.15-22.75,30.79-19.55,18.51-31,10.45-53.28,28.45-19.64,15.84-14.93,25.39-29.62,31.6-24.05,10.16-48.08-10.61-57.74,0-6.63,7.28,2.88,19.08-4.47,30.63-6.4,10-20.39,11.74-30.61,12.84-34.06,3.65-101.54,9.26-102,3.19-.21-3,17-3.47,32.67-19.17,2.6-2.61,10.29-10.31,8.07-14.63-1.42-2.76-6.28-3-8.89-3a796.38,796.38,0,0,1-164.32,57.6c-66.73,15.35-111.42,25.63-173.38,23.37-33.79-1.23-108.12-7.48-111.58,6.91-.63,2.64.53,8.39.73,9.34,2.62,12.48,10.06,17,9.09,19.79-.82,2.4-8.82,10.19-73.25-7.49-112.33-30.83-152.16-72.12-208.32-91.73-4-1.4-26.34-9.06-25.57-15.78.34-3,5.19-3,5.85-5.64,3.5-13.7-57.91-31.23-123.72-79.08-17.16-12.47-36-26.18-57.29-48.57-18.21-19.16-30.57-36.65-61.29-66-1.28-1.23-6.22-5.8-16.1-15-44.26-41-50.21-45.89-56.66-57.53-8-14.4-1.95-12.54-13.07-40.09-12.07-29.9-27.84-53.63-31.21-52.17-2.45,1.06,2.82,15-.42,16.39-4.22,1.81-16-16.72-17.21-18.6-9.06-13.69-7.13-20.44-17.64-34-5.15-6.67-9.56-10.13-8.34-12.41,2.28-4.28,18.9,4.5,23.93-1.19,6.28-7.12-7.31-34.75-18.57-34.19-7.42.36-9.84,12.75-13.88,12.43-5.8-.46-10.48-26.77-11.91-103.88-5.59-26.83-12.33-56.75-14.81-56.36-3.4.52,5.38,56.38-1.75,58.1-5.72,1.39-19.39-32.66-28.41-60-26.12-79,3.05-125.34-28.28-155.95-5.36-5.24-15.15-12.76-22-27.58-8-17.36-9.3-39.07-2.33-42.48C12.3,990.79,23.74,1013,34,1009.7c12.69-4.1,20.16-46.15,2.39-69.88C28.28,929,13.74,920.41,16.29,914.26A5.94,5.94,0,0,1,20.81,911c11-1.64,22.49,30.28,25.18,29.38,6.38-2.13-57.44-181.86-36.57-191.83,5.76-2.75,16.13,8.28,16.79,9C53.44,787,20.77,848.3,39.4,858.89c7.76,4.41,17.21-4.08,22.6,1.61,8.31,8.76-8.64,34.7-2.82,38.55,2.35,1.56,7.27-1.22,10.19-4.19,8-8.17,5.58-22.52,5.17-26-3.55-30.34,48.66-78.51,54.18-83.67C180.19,737,247.43,614.38,277.78,531.06c40.08-110,46.5-235.63,93.34-247.87,5.86-1.53,37.47-21.49,48.29-21.49h0c21.68-6.14,32.35-2.53,46.94-13.71,4.58-3.51,15.21-11.66,15.82-23.2.63-12.07-10.13-19.15-7-25.2,2.7-5.21,12.85-4.18,21.22-4.33,14.58-.26,29.93-7.21,60.65-21.1,25-11.31,37.52-17,51.77-28.58,27.65-22.52,21.42-36.42,43.83-47.47,29.15-14.37,60.54-7.21,63.26-17.71,2.6-10-25.74-21.89-21.28-33.92,3-8,15.37-7.52,20.62-19.29,4.1-9.2-1.2-14.59,3.32-19.29,6.47-6.72,24.09-2.78,33.85,6.48,3.05,2.89,5.34,5,5.4,8.15.23,12-33.39,19.91-32.69,22.46s29.67-9.27,68.1-10.34c32.61-.9,47.45,7,63.34-5.16,7.64-5.84,16.4-17,22.46-14.35,3.83,1.65,2.3,7,7.63,11.45,6.45,5.44,18.12,5.6,22.89.31.52-.57,2.48-2.74,2.17-5.41-.68-6-11.87-7.78-11.68-9.43.5-4.44,82.09,2,82,3.08-.07.79-41.91-6-46,5.11-1.43,3.9,2,9.52,5.86,12.16,5.38,3.65,11.9,1.74,20.43-.1,21-4.54,20.53-1.44,33.37-4.85,22-5.85,24-16.36,42.13-22.66,22.67-7.88,43-4.55,66.55-.7,32,5.22,35.6,13.14,65.11,14.4,16.67.71,20.54-1.6,28.61,2.45,21.75,10.92,20.87,43.09,33.5,42.4,10.07-.56,11.12-16.86,25.08-19.67,10-2,17.63,2.06,50.34,23.28,42.82,27.78,49.61,33.73,51.07,43.76,1.82,12.54-6.24,20.74-.24,28.68,5.12,6.79,17.49,9.38,22.19,4.71,3.47-3.45,2-10.14,1.5-12.39-2.64-11.93-13.21-17.61-12.49-18.57.85-1.13,17.56,4.29,20.81,16.33,2.43,9-4.22,15.9.12,22.39,2.37,3.54,6.51,4.36,9.67,5.42,15.73,5.29,40.86-1.3,47.25-19.33,3.79-10.67-.5-21.05-2.51-25.17,12.33,4.47,16.16,9.78,17.2,14,4.1,16.85-31,35.27-25.82,48.47,1.85,4.73,7.94,6.36,10.51,7.11,20.41,6,53.83,31.89,120.66,83.68,32.12,24.89,48.18,37.33,66.42,58.61,8.91,10.38,14.81,18.73,33.54,40.22,6,6.94,15.61,16.24,32.73,36.57,19.36,23,26.87,35.17,34.73,40.68,1.75,1.22,9.2,6,10.08,13.51.58,5-2.79,7.34-2.16,12.38,1.14,9.12,8.4,15.08,10.23,16.69,24.12,21.24,82.58,148.13,84.31,189.71.13,3.33.13,11.4,5.41,18.47,6.69,8.95,16.59,6.71,22.06,14.58,5,7.17,5.87,14.92,5.17,33.43-2.34,61.91-3.73,75.95-3.73,75.95-.53,5.47-1.58,15.6,4.29,20.62,5.15,4.4,11.53,1.38,15.85,5.54,5.49,5.31-.34,16.43.3,23.71,3.8,43.18,23.8,67.08,16.66,73-3.86,3.22-13.94-.17-18-6.17-6.29-9.27,5.31-24.38,0-28.93-3.25-2.79-11.78-.65-15.88,4.54-7.17,9.07,1.06,25.12,6.81,40.83C1881.71,966.4,1887.86,990.12,1888.11,1022Z"/><path class="cls-1" d="M849.67,1909.09c.86-5.26,92.26,5.55,158.52-2.17,8.94-1.05,15.6-1.62,15.6-1.62,22.9-2.91,29.9-6.13,44.91-7.76,14.1-1.54,35.12-1.65,35.57,1.37.69,4.56-44.31,22.79-69.31,12-1.83-.78-6.93-3.17-8.53-1.44-3.3,3.58,14.13,18.61,11.73,25.63C1030.53,1957.42,848.44,1916.57,849.67,1909.09Z"/><path class="cls-1" d="M1150.75,1859.82c.31,5,.66,12.94.51,22.67-.31,19.4-2.3,24.42,1.48,29.67,7.65,10.64,29.43,9,30.31,5.73.6-2.23-9.17-3.38-15.47-12.51-8.76-12.68-3.28-29.83-2.55-32,6.45-19.23,25-26.34,27.76-27.33"/><path class="cls-1" d="M1262.37,1830.59c-14.93-1.11-19.77-3.34-23.58,0-4.94,4.32-3.53,13.9-3.27,15.65,1.16,7.93,5.47,10.3,4.2,12.38-3,4.87-31.06-1.2-35-14.95-1.28-4.44.3-8.45-2.34-10.28-3.12-2.16-10.18.1-12.61,4.44-4.82,8.63,6.76,29,19.39,30.59,2.84.37,3.41-.51,21.48-3.27,4-.61,8.5-1.25,8.64-.7.37,1.44-29.06,6.43-29.42,15.18-.16,3.75,5.06,6.57,6.3,7.24,8,4.32,18.89.77,24.76-5.37,6.13-6.41,2.8-11.51,8.17-17.28,6.15-6.6,14.42-4.12,27.79-6.31,19.78-3.22,38.33-14.61,37.37-19.85-.91-5-20-6.15-34.33-7C1270.77,1830.51,1271.55,1831.28,1262.37,1830.59Z"/><path class="cls-1" d="M1301.71,1883.64c-6.47,5.35-10.62,6.76-11.5,11.49-.13.68-.78,4.19,1,6.06,5.3,5.45,31-3.29,37.41-20.48,2.54-6.84,2.36-16-1-17.56-2.35-1.09-5.73,1.61-11.29,6.06C1308.17,1875.75,1308.94,1877.64,1301.71,1883.64Z"/><path class="cls-1" d="M1339.12,1832.42c-7.07,4.74-5.12,27.43,4.81,32.4,2.78,1.4,5.76,1.18,35.53-8.57,9.92-3.24,13.33-4.44,15.89-2.51,5.12,3.89,3.75,18.06-3.55,26.34-8.19,9.29-22.2,9.36-22,10.66.16.82,5.62.89,11.29-.42s8.15-3.18,16.09-7.52c13.16-7.2,18.1-8.51,18-11.5-.14-3.37-6.52-4.17-6.48-7.73,0-3.2,5.18-3.86,9.61-10.24,2.07-3,4-5.77,3.14-7.74-1.9-4.32-15.17.13-38.88-1.25-8.09-.47-12.22-.75-16.51-2.72-6.75-3.1-9.13-7.3-16.93-9.2C1345.55,1831.55,1341.8,1830.63,1339.12,1832.42Z"/><path class="cls-1" d="M1586.38,1647.88c19.86-12,24.62-21.72,25.7-24.18.35-.79,2.16-4.9,1.14-5.64-.79-.57-2.78,1.23-4.57,2.41-6.92,4.56-17.33,4.11-18.38,1.58-.93-2.26,4.91-7.91,11.48-10.47,7-2.74,11.86-.72,13-3,1.72-3.51-10-8.18-11-16.46-.89-7.33,7.33-11.24,28.94-32.92,12.61-12.67,20.56-22.13,18.46-30.44-.57-2.25-2.28-6-1-7,1.45-1.14,5.75,2,6.8,2.85l.18.14c4.76,3.75,1.31,29.84,1.31,29.84-2.92,22.1.29,25.12-3.71,28.36-8.79,7.1-25.53-6.73-32.74.76-4,4.14-3.85,12.8,0,16.56,6,5.81,18.57-2.23,20.56,1,4.35,7-53.5,49.45-57.36,55.81a3.32,3.32,0,0,1-2,1.68c-1.81.3-4.23-1.87-4.38-3.81C1578.57,1652.33,1582.45,1650.25,1586.38,1647.88Z"/><path class="cls-1" d="M1692.7,1543.83c-2.57.06-2.22,7.75-7.23,15.75-6.31,10.09-14.49,10.05-14.72,15.5-.24,5.94,9.23,13,18.34,13.17,13,.25,20.05-13.56,21.17-15.76,1.4-2.74,4.71-9.19,2.07-13.17-2.4-3.61-7.26-1.46-12.52-5.77C1694.71,1549.37,1694.9,1543.77,1692.7,1543.83Z"/><path class="cls-1" d="M1729.47,1426c-2.84,3.84-4.23,9.16-6.9,19.66-2.12,8.35-4.59,18.08-3.31,18.54s5.36-7.52,13.66-23.43c6.32-12.12,7.72-15.39,9.11-15.11,2.78.55,3.93,14.78,1,28.62-4.49,20.9-16,29.93-11.93,35.8,3,4.37,12.54,3.81,18.26,1.73,6.47-2.37,6.35-6,14.38-10.21,8.25-4.29,15.43-4.07,15.38-5.61,0-1.17-4.79-.45-8.92-3.31-5.51-3.81-6.41-11.56-7.05-17.88-1.34-13.09,2.84-14.93.42-22.6-2-6.31-7.76-14.43-16.12-15.27-6.75-.67-13.48,3.56-17.11,8C1730,1425.36,1729.74,1425.65,1729.47,1426Z"/><path class="cls-1" d="M1754.19,1382.22c-2.55-3.2,1.75-9.41,5.43-17.7,9-20.26,6.57-35.36,10.73-35.67,2.66-.2,2.7,6,10.59,13.93,5.83,5.82,9.36,6,10.45,10.17.81,3.09-1.12,6.84-5,14.22-4.15,7.86-6.3,11.84-10.17,14.07s-7.67,2.44-11.29,2.65C1760.1,1384.17,1755.94,1384.41,1754.19,1382.22Z"/><path class="cls-1" d="M1842.94,1214.28c-3.14,7-2.14,12.66-1.91,19.48.73,21.88-7.25,33.73-3.25,35.91,2.5,1.37,7.65-2.16,10.51-6.11,4.82-6.66,2.28-13.36,1.91-26.36-.58-20.43,4.87-31.93,1.91-33C1849.93,1203.33,1845.35,1208.9,1842.94,1214.28Z"/><path class="cls-1" d="M87.76,854.35c-2-3.85-.81-11.43-5.92-30.11-2.07-7.55-3.59-11.11-5.15-11.07-2.67.08-5.59,10.69-13.38,29.34-.69,1.65-1.89,4.42-3.86,4.63-3.46.38-6.9-7.35-8-9.78C41,813.87,82.19,725.73,74.12,664.68c-.8-6-2.81-17.33-7.76-18.2-9.77-1.72-23.5,38.44-27.33,37-1.67-.61-.72-8.87,1.63-16.79,4.78-16.06,12.7-21.83,25-39.19C80.8,606,80.57,598,87,597.52c14.21-1.07,23.8,37.82,32.17,36,7-1.5,1.26-26.78,8.17-66.63,10.46-60.31,22.73-94.76,22.73-94.76s6.56-19,2.27-22.15c-2.29-1.7-6.17-.07-7.49.49-2,.82-8.55,4.11-16.2,26.59-3.74,11-5.66,16.6-7.16,25.18-1,5.61-1.47,10.62-3,10.78s-2.22-4-6.09-11.69c-4.85-9.59-7.63-10.82-7.2-14.77s3.29-4.65,9.18-11.07c6.64-7.23,6.22-9.72,12.27-17.27,4.21-5.25,8-8.48,15.45-14.57,0,0,22.77-19,51.73-48.52,1-1,3.6-3.75,3.32-7-.13-1.47-.78-3.74-2.33-4.36-1.77-.72-4.67.73-12.27,9.44-10.38,11.89-13.42,18.87-16,18.22-2.29-.58-3-7.13-2.6-12.39,2.17-29.63,47.14-43.32,44.09-53.22-1.71-5.57-18.46-.29-21.53-5.43C175.68,322.25,347.26,201.26,349,203.63c.85,1.13-40,26.82-35.3,37.48,3.67,8.33,35.55,8.59,46.22-6.18,7.67-10.61,1.51-25,12-32.39,3.06-2.15,8-4.07,11.28-2.19,6,3.51,3.19,18.57,1.82,25.48-5,25.45-15.66,34.24-21.47,50.95-8.12,23.35-.6,44.17,1.82,55,14.06,62.75-2.43,421.1-172.36,507.5C150.39,860.93,94.59,867.24,87.76,854.35Zm23.61-120.89c-10.93,6.79-8.22,24.47-5.6,32.44,2.13,6.47,8.35,19.12,16.22,19,11.94-.16,28.83-29.62,17.9-44.75C134.08,732.12,120.25,727.94,111.37,733.46ZM157.23,598.1c-7.83,10.67-5,20.76-3.11,52.66,2.4,41,.67,57.14,4.09,57.58,2.66.35,4.23-9.55,15.88-40.77,11.93-32,12.27-26.91,27.18-64.8.43-1.08,2.94-4.15,4.22-8.94a29.38,29.38,0,0,0,.42-12.59c-.16-.94-3.17-16.08-10.22-17.72-4.13-1-7.91,5.29-17,15C165.38,592.64,162.21,591.32,157.23,598.1Zm61.21-29.76c1.49-2.74,3.71-6.84,6.39-11.89s2.48-4.73,2.73-5.16c.05-.07,8.11-13.5,9.5-16.16a.8.8,0,0,0,.11-.43c0-1.24-3.39-1.91-5.92-2.66-6.67-1.95-7.14-4.28-9.23-3.69-5.28,1.51-6.09,14.53-6.32,18.46A59.94,59.94,0,0,0,218.44,568.34Zm14-237.19c1,4.34,9.3,7.33,15.84,5.86,4.3-1,7.65-3.83,18.6-23.07,6.17-10.87,11-19.38,16.87-33.06,3.35-7.79,5.85-14.45,7.57-19.28a129.39,129.39,0,0,1-12.6,21.25c-1.73,2.37-9.55,12.92-24.24,26.27C239.21,323,231.28,326.47,232.4,331.15Z"/><path class="cls-1" d="M679.5,135.78C677.36,114.55,648,97,652.29,90.94c2.35-3.34,12.41.19,14.93-4.72,1.27-2.45-.14-5.48-.47-6.13-1.29-2.59-3.77-4-10.38-6.14-7.38-2.44-11.08-3.66-13.69-3.77-15.09-.67-26,20.47-28.32,18.88-1.34-.93,1.76-8.49,5.52-14.58,5-8.12,9.25-10.49,8.64-11.85-1.84-4.14-43.79,10.48-57.58,15.57-15.6,5.76-28,9.63-38.64,12.54-32.09,8.74-52.7,13.35-65.19,16.25-71.19,16.55-134.81,73.17-130,83.44,1.3,2.75,8.25,3.79,13,3,8-1.24,12.37-7.95,13.83-6.91,2.29,1.63-8,18.55-6.31,19.72s9.87-16.8,28.06-24.4c9.25-3.86,10.24-.52,33.12-5.42,12.93-2.77,19.23-5.26,20.76-2.91s-4,7.15-11.34,17.84c-10.56,15.38-14.78,28.69-18.14,39.29-2.48,7.82-5.79,18.27-3.46,19.52,2.55,1.36,9.53-9.5,21.35-23.18,28.87-33.41,42.32-32.38,46.76-50.42,4.16-16.89-5.55-26.22,2.85-36.6a25.47,25.47,0,0,1,23.79-8.54c5.88,1.1,15.11,4.85,15.65,10.57.53,5.47-7.34,7.7-19.59,20.88-2.58,2.78-14,15.08-11.78,18.07,1.44,1.93,8.58-.06,13.89-3.57,8.74-5.79,8.42-13.12,15.08-15.92s11.16,4.76,17,2.52c5.23-2,2.55-9.86,8.5-17.21,4.1-5.07,9.4-6.76,12.73-8,26.21-9.87,43.37-35.15,54.76-30.73,17.35,6.74-5.74,72.1,13.22,81.84C637.64,198.49,682.32,163.83,679.5,135.78Z"/><path class="cls-2" d="M1033.89,1083.53h0Z"/><path class="cls-2" d="M1049.13,1732s-42.89-33.36-29.5-48Z"/><path class="cls-2" d="M898.57,1827.38c-40.19-15.44-94.9-19.86-125.32-8.1l7.68,13.59L801.28,1861l23.36-2.32c.74,0,18.37.61,31.4,7.12C856,1865.8,894.38,1825.78,898.57,1827.38Z"/><path class="cls-2" d="M1027.44,128.27s-8,4.93-11,9.1c-2.46,3.51-5.35,11.32-6.93,16.29-1.45,4.54-1.54,10.52-5.58,16A53.09,53.09,0,0,1,992.17,180a780.69,780.69,0,0,1,79.72,7.92l-.7-.37a52.2,52.2,0,0,0,12.7-9.15c4.57-5.07,5.21-11,7.08-15.4,2.06-4.81,5.67-12.31,8.45-15.55,3.32-3.87,11.79-8,11.79-8l.11,0a822.12,822.12,0,0,0-83.42-11.61Z"/><path class="cls-2" d="M1135,144.87s-8.61,3.86-12.08,7.61c-2.91,3.15-6.76,10.51-9,15.24-2,4.3-2.91,10.23-7.64,15.1a52.45,52.45,0,0,1-13,8.72,778.28,778.28,0,0,1,78,18.27l-.63-.46a52.66,52.66,0,0,0,13.78-7.45c5.18-4.41,6.6-10.22,9-14.33,2.68-4.5,7.2-11.44,10.4-14.31,3.83-3.41,12.77-6.4,12.77-6.4l.07,0a822.92,822.92,0,0,0-81.18-22.39Z"/><path class="cls-2" d="M1239.43,175.38s-9,2.69-13,6c-3.29,2.75-8.06,9.54-10.89,13.93-2.57,4-4.21,9.78-9.54,14a52.73,52.73,0,0,1-14,6.95,775.74,775.74,0,0,1,75,28.29l-.58-.56a52.65,52.65,0,0,0,14.64-5.55c5.71-3.71,7.89-9.29,10.83-13,3.24-4.12,8.64-10.4,12.18-12.82,4.23-2.9,13.48-4.7,13.48-4.7l.08.06A821.84,821.84,0,0,0,1240,175.09Z"/><path class="cls-2" d="M1339,219.26s-9.31,1.5-13.63,4.18c-3.62,2.33-9.24,8.42-12.63,12.41-3.08,3.63-5.46,9.14-11.27,12.64a53.27,53.27,0,0,1-14.83,5.06h0a765.31,765.31,0,0,1,70.63,37.82l-.49-.63a52.46,52.46,0,0,0,15.23-3.61c6.16-2.92,9-8.17,12.43-11.51,3.76-3.65,9.92-9.19,13.76-11.13,4.56-2.3,14-2.88,14-2.88l.07.05A823.66,823.66,0,0,0,1339.6,219Z"/><path class="cls-2" d="M1432,275.76s-9.44.26-14.06,2.39c-3.92,1.8-10.29,7.11-14.16,10.63-3.52,3.21-6.6,8.35-12.85,11.05a52,52,0,0,1-15.33,3.05,783.59,783.59,0,0,1,65.08,46.74l-.41-.67a52.13,52.13,0,0,0,15.56-1.61c6.48-2.09,10-6.92,13.82-9.76,4.22-3.14,11-7.84,15.09-9.25,4.84-1.69,14.24-1.05,14.24-1.05l.07.09a825.24,825.24,0,0,0-66.44-51.77Z"/><path class="cls-2" d="M1516.81,343.91s-9.37-1-14.24.53c-4.1,1.29-11.13,5.7-15.42,8.71-3.93,2.7-7.64,7.42-14.17,9.26a52.53,52.53,0,0,1-15.63,1.06,773.37,773.37,0,0,1,58.44,54.81l-.32-.74a52.17,52.17,0,0,0,15.63.46c6.69-1.23,10.84-5.56,15-7.89,4.59-2.57,12-6.3,16.17-7.19,5-1,14.26.82,14.26.82l0,.07a831,831,0,0,0-59.1-60Z"/><path class="cls-2" d="M1592,422.56s-9.17-2.2-14.21-1.34c-4.24.72-11.76,4.21-16.4,6.6-4.23,2.2-8.53,6.36-15.27,7.36a52.07,52.07,0,0,1-15.62-1h0a767.31,767.31,0,0,1,50.77,62l-.21-.77a52.15,52.15,0,0,0,15.45,2.5c6.82-.35,11.48-4.1,15.9-5.88,4.86-1.93,12.71-4.7,17-5,5.1-.38,14,2.68,14,2.68l0,.09a824.81,824.81,0,0,0-50.74-67.19Z"/><path class="cls-2" d="M1656.32,510.33s-8.82-3.36-13.89-3.17c-4.3.18-12.23,2.64-17.16,4.4-4.49,1.62-9.28,5.21-16.09,5.32a52.17,52.17,0,0,1-15.37-3.06,770.09,770.09,0,0,1,42.25,68.08l-.13-.79a52.9,52.9,0,0,0,15,4.5c6.76.53,11.88-2.57,16.51-3.75,5.07-1.3,13.2-3,17.48-2.76,5.11.26,13.57,4.46,13.57,4.46l0,.1A831,831,0,0,0,1657,510.43Z"/><path class="cls-2" d="M1708.61,605.76s-8.29-4.49-13.38-5c-4.28-.38-12.46,1-17.58,2.15-4.63,1-9.86,3.93-16.64,3.13a51.71,51.71,0,0,1-14.82-5,778.48,778.48,0,0,1,33,73l0-.81a51.91,51.91,0,0,0,14.27,6.43c6.68,1.42,12.15-1,16.89-1.57,5.21-.6,13.46-1.25,17.69-.46,5,1,12.84,6.22,12.84,6.22l0,.1a840.24,840.24,0,0,0-31.63-78.05Z"/><path class="cls-2" d="M1748,707.2s-7.64-5.55-12.6-6.65c-4.21-1-12.5-.64-17.71-.2-4.75.39-10.31,2.63-16.92.95a52.56,52.56,0,0,1-14.06-6.92,768.45,768.45,0,0,1,23.22,76.71l0-.8a52.77,52.77,0,0,0,13.34,8.22c6.43,2.28,12.17.61,16.94.65,5.23.09,13.51.53,17.58,1.86,4.86,1.6,11.93,7.85,11.93,7.85V789a821.94,821.94,0,0,0-21.17-81.51Z"/><path class="cls-2" d="M1773.8,812.91s-6.87-6.48-11.64-8.26c-4-1.48-12.3-2.22-17.51-2.48-4.77-.23-10.57,1.23-16.9-1.28a52,52,0,0,1-13-8.67,771.43,771.43,0,0,1,13,79.07l.19-.79a52.7,52.7,0,0,0,12.15,9.89c6.07,3.08,12,2.19,16.68,2.85,5.18.74,13.34,2.29,17.22,4.14,4.59,2.22,10.8,9.33,10.8,9.33v.11a833.57,833.57,0,0,0-10.37-83.58Z"/><path class="cls-2" d="M1785.59,921.09s-5.95-7.33-10.45-9.7c-3.82-2-11.92-3.82-17.06-4.75-4.7-.87-10.63-.14-16.58-3.47a52.5,52.5,0,0,1-11.76-10.32h0a776.51,776.51,0,0,1,2.55,80.09l.29-.74a52.51,52.51,0,0,0,10.73,11.37c5.62,3.86,11.61,3.74,16.18,5,5,1.41,12.94,4,16.55,6.34,4.26,2.79,9.47,10.64,9.47,10.64v.11a832.14,832.14,0,0,0,.59-84.21Z"/><path class="cls-2" d="M1783.16,1029.87s-4.94-8-9.1-11c-3.5-2.48-11.3-5.35-16.28-6.93-4.54-1.45-10.53-1.54-16-5.6a52.65,52.65,0,0,1-10.34-11.76,769.45,769.45,0,0,1-7.91,79.73l.38-.7a52.36,52.36,0,0,0,9.17,12.69c5.06,4.54,11,5.19,15.39,7.08,4.8,2.07,12.28,5.65,15.54,8.45,3.87,3.32,8,11.79,8,11.79l0,.11a822.9,822.9,0,0,0,11.6-83.4Z"/><path class="cls-2" d="M1766.55,1137.4s-3.84-8.6-7.58-12.07c-3.17-2.91-10.51-6.78-15.25-9-4.31-2-10.24-2.88-15.13-7.64a52.44,52.44,0,0,1-8.7-13h0a772.69,772.69,0,0,1-18.25,78l.46-.65a52.79,52.79,0,0,0,7.44,13.78c4.44,5.17,10.25,6.6,14.33,9,4.51,2.66,11.46,7.19,14.33,10.39,3.4,3.82,6.41,12.76,6.41,12.76l-.06.09a823,823,0,0,0,22.4-81.18Z"/><path class="cls-2" d="M1738.12,1242.82s-2-9.2-5-13.36c-2.5-3.5-8.93-8.75-13.12-11.88-3.8-2.87-9.43-4.91-13.27-10.53a52.49,52.49,0,0,1-5.9-14.52,774.54,774.54,0,0,1-33.62,72.75l.6-.54a52.64,52.64,0,0,0,4.51,15c3.27,6,8.67,8.52,12.21,11.74,3.86,3.54,9.75,9.36,11.9,13.08,2.57,4.4,3.74,13.76,3.74,13.76l-.07.09a824.1,824.1,0,0,0,38.28-75Z"/><path class="cls-2" d="M1692.18,1341.44s-1.49-9.31-4.22-13.62c-2.28-3.65-8.38-9.26-12.37-12.66-3.65-3.08-9.16-5.44-12.64-11.28a52.12,52.12,0,0,1-5.06-14.84,769,769,0,0,1-37.82,70.65l.61-.51a53.22,53.22,0,0,0,3.61,15.25c2.92,6.14,8.19,9,11.51,12.43,3.65,3.74,9.19,9.92,11.15,13.76,2.28,4.56,2.88,14,2.88,14l-.07.05A826.23,826.23,0,0,0,1692.4,1342Z"/><path class="cls-2" d="M1635.67,1434.45s-.25-9.43-2.4-14.07c-1.8-3.9-7.11-10.26-10.63-14.15-3.21-3.54-8.33-6.6-11-12.83a51.81,51.81,0,0,1-3.08-15.37,776.8,776.8,0,0,1-46.72,65.1l.69-.43a51.77,51.77,0,0,0,1.57,15.58c2.11,6.46,7,10,9.8,13.84,3.12,4.19,7.82,11,9.24,15.1,1.7,4.81,1,14.22,1,14.22l-.09.06a827.73,827.73,0,0,0,51.79-66.44Z"/><path class="cls-2" d="M1567.5,1519.28s1-9.38-.51-14.26c-1.28-4.1-5.73-11.12-8.69-15.42-2.71-3.91-7.43-7.62-9.3-14.17a52.7,52.7,0,0,1-1-15.61,775.11,775.11,0,0,1-54.81,58.42l.72-.33a52.38,52.38,0,0,0-.44,15.66c1.23,6.69,5.55,10.83,7.89,15,2.55,4.58,6.3,12,7.18,16.18,1,5-.81,14.24-.81,14.24l-.09,0a821.25,821.25,0,0,0,60-59.11Z"/><path class="cls-2" d="M1488.87,1594.5s2.2-9.17,1.34-14.21c-.74-4.24-4.23-11.78-6.6-16.42-2.18-4.25-6.37-8.54-7.38-15.28a52.26,52.26,0,0,1,1-15.62,766.48,766.48,0,0,1-62,50.77l.77-.21a53.16,53.16,0,0,0-2.48,15.44c.34,6.81,4.11,11.47,5.86,15.91,1.94,4.86,4.72,12.69,5,17,.39,5.08-2.66,14-2.66,14l-.1,0a827.52,827.52,0,0,0,67.2-50.76Z"/><path class="cls-2" d="M1401.07,1658.79s3.38-8.83,3.19-13.89c-.16-4.32-2.66-12.24-4.42-17.16-1.6-4.49-5.19-9.3-5.3-16.1a52.31,52.31,0,0,1,3-15.36,770.15,770.15,0,0,1-68.07,42.24l.79-.1a52.12,52.12,0,0,0-4.49,15c-.54,6.79,2.57,11.91,3.74,16.52,1.3,5.07,3,13.21,2.78,17.48-.32,5.09-4.48,13.56-4.48,13.56h-.12a816.24,816.24,0,0,0,73.23-41.56Z"/><path class="cls-2" d="M1305.66,1711.1s4.49-8.31,4.95-13.38c.38-4.3-1-12.46-2.15-17.57-1-4.66-3.91-9.89-3.13-16.67a52.66,52.66,0,0,1,5-14.82,776.35,776.35,0,0,1-73,33h.81a76.05,76.05,0,0,0-7.22,14,43.62,43.62,0,0,0-.7,17.16c.62,5.19-1.25,13.59-2,17.83-1,5-5.51,14.42-5.51,14.42,26.38-9.17,57.17-21.42,82.8-33.38Z"/><path class="cls-2" d="M1198,1749.87a96.56,96.56,0,0,0,3.43-10.28c1-4.17,2.34-9.88,2.06-15.09-.28-4.77-3.89-8.52-2.06-15.1,0,0,4.91-14.59,9.59-20.58-25.56,8.49-62.47,23.08-86.06,35.68-5.5,2.62-10.89,5.44-10.89,5.44a49.33,49.33,0,0,0-3.57,16.23c-.2,5-1.09,12.83-1,18.17.12,11.31-10.46,26.89-10.46,26.89,27.48-5,62.3-20.79,85.48-34.29Z"/><path class="cls-2" d="M669.51,1738.53s9-2.68,13-6c3.31-2.73,8.08-9.52,10.9-13.92,2.59-4,4.22-9.77,9.56-14a51.61,51.61,0,0,1,14-6.92,777.88,777.88,0,0,1-75-28.3l.59.56a51.5,51.5,0,0,0-14.63,5.56c-5.72,3.7-7.88,9.3-10.82,13-3.24,4.12-8.65,10.42-12.2,12.85-4.21,2.87-13.47,4.68-13.47,4.68l-.09-.07a822.53,822.53,0,0,0,77.57,32.81Z"/><path class="cls-2" d="M569.93,1694.66s9.31-1.48,13.62-4.2c3.62-2.29,9.27-8.4,12.65-12.39,3.08-3.65,5.44-9.16,11.29-12.64a52.29,52.29,0,0,1,14.82-5,772.58,772.58,0,0,1-70.62-37.84l.49.63a51.65,51.65,0,0,0-15.24,3.61c-6.15,2.92-9,8.17-12.43,11.51-3.75,3.65-9.93,9.19-13.77,11.13-4.54,2.3-14,2.9-14,2.9l-.07-.07a836.83,836.83,0,0,0,72.61,42.65Z"/><path class="cls-2" d="M476.91,1638.17s9.44-.26,14.07-2.4c3.91-1.81,10.28-7.11,14.15-10.64,3.52-3.19,6.58-8.33,12.85-11a52,52,0,0,1,15.35-3.08,769.14,769.14,0,0,1-65.09-46.72l.42.69a52,52,0,0,0-15.58,1.58c-6.5,2.09-10,6.92-13.84,9.79-4.2,3.13-11,7.83-15.1,9.24-4.82,1.69-14.22,1-14.22,1l-.07-.07a824.35,824.35,0,0,0,66.43,51.75Z"/><path class="cls-2" d="M392.09,1570s9.38,1,14.24-.53c4.1-1.28,11.12-5.73,15.41-8.71,3.93-2.73,7.64-7.41,14.19-9.27a51.63,51.63,0,0,1,15.62-1,777.86,777.86,0,0,1-58.45-54.83l.34.72a52.69,52.69,0,0,0-15.65-.44c-6.7,1.21-10.84,5.56-15,7.9-4.56,2.56-12,6.3-16.18,7.18-5,1-14.24-.81-14.24-.81l-.05-.08a823.14,823.14,0,0,0,59.12,60Z"/><path class="cls-2" d="M317,1491.17s9.18,2.18,14.2,1.32c4.25-.72,11.76-4.21,16.43-6.6,4.24-2.16,8.53-6.35,15.26-7.36a52.91,52.91,0,0,1,15.63,1,768.88,768.88,0,0,1-50.77-62l.23.75a52.62,52.62,0,0,0-15.47-2.5c-6.79.35-11.46,4.09-15.88,5.88-4.87,1.92-12.69,4.68-17,5-5.09.37-14-2.7-14-2.7l0-.08a826.17,826.17,0,0,0,50.77,67.18Z"/><path class="cls-2" d="M252.69,1403.39s8.82,3.36,13.91,3.16c4.3-.15,12.2-2.64,17.14-4.4,4.47-1.61,9.28-5.19,16.09-5.29a52,52,0,0,1,15.35,3,778.6,778.6,0,0,1-42.24-68.06l.14.79a52.87,52.87,0,0,0-15-4.51c-6.79-.53-11.92,2.59-16.53,3.75-5.07,1.29-13.2,3-17.48,2.76-5.09-.28-13.55-4.47-13.55-4.47l0-.1a823.82,823.82,0,0,0,41.56,73.22Z"/><path class="cls-2" d="M200.41,1308s8.29,4.49,13.38,5c4.28.39,12.46-1,17.56-2.15,4.67-1,9.9-3.92,16.66-3.12a51.91,51.91,0,0,1,14.82,5,769.77,769.77,0,0,1-33-73l0,.8a52.84,52.84,0,0,0-14.29-6.41c-6.66-1.41-12.13,1-16.87,1.55-5.19.63-13.47,1.26-17.69.46-5-.94-12.84-6.2-12.84-6.2v-.11a826.38,826.38,0,0,0,31.62,78Z"/><path class="cls-2" d="M161,1206.56s7.63,5.52,12.6,6.65c4.21,1,12.48.62,17.71.18,4.75-.39,10.29-2.61,16.89-1a52.44,52.44,0,0,1,14.07,6.94,773.68,773.68,0,0,1-23.18-76.69l-.09.79a52.62,52.62,0,0,0-13.33-8.22c-6.42-2.29-12.16-.6-16.93-.67-5.23-.07-13.52-.49-17.6-1.85-4.82-1.6-11.9-7.85-11.9-7.85v-.09a816.5,816.5,0,0,0,21.17,81.48Z"/><path class="cls-2" d="M135.23,1100.85s6.85,6.48,11.64,8.26c4,1.48,12.3,2.22,17.53,2.48,4.75.23,10.56-1.25,16.88,1.27a52.63,52.63,0,0,1,13,8.69,774.75,774.75,0,0,1-13-79l-.19.76a52.93,52.93,0,0,0-12.13-9.88c-6.07-3.09-12-2.18-16.69-2.86-5.19-.76-13.34-2.27-17.23-4.14-4.58-2.2-10.79-9.33-10.79-9.33l0-.09a822.25,822.25,0,0,0,10.37,83.57Z"/><path class="cls-2" d="M123.45,992.69s6,7.33,10.45,9.7c3.8,2,11.92,3.82,17.06,4.75,4.68.87,10.63.14,16.58,3.47a52.18,52.18,0,0,1,11.78,10.3,770.06,770.06,0,0,1-2.54-80l-.3.74a51.3,51.3,0,0,0-10.75-11.37c-5.6-3.88-11.59-3.76-16.18-5-5-1.43-12.92-4-16.51-6.36-4.28-2.77-9.5-10.64-9.5-10.64l0-.09a823,823,0,0,0-.64,84.19Z"/><path class="cls-2" d="M125.88,883.91s5,8.06,9.1,11c3.51,2.48,11.31,5.35,16.29,6.94,4.54,1.46,10.52,1.55,16,5.61a52.55,52.55,0,0,1,10.32,11.76,775.08,775.08,0,0,1,7.93-79.72l-.39.69A51.74,51.74,0,0,0,176,827.5c-5.05-4.57-11-5.21-15.36-7.1-4.82-2.06-12.31-5.65-15.56-8.45-3.87-3.33-8-11.79-8-11.79l0-.11a827.41,827.41,0,0,0-11.61,83.42Z"/><path class="cls-2" d="M142.5,776.39s3.86,8.61,7.59,12.08c3.15,2.92,10.51,6.76,15.22,9,4.32,2,10.25,2.91,15.14,7.64a52.86,52.86,0,0,1,8.71,13,775.7,775.7,0,0,1,18.26-78l-.48.66A51.81,51.81,0,0,0,199.51,727c-4.4-5.18-10.22-6.61-14.33-9.06-4.48-2.67-11.44-7.19-14.31-10.39-3.39-3.81-6.4-12.75-6.4-12.75l.05-.09a822.11,822.11,0,0,0-22.4,81.16Z"/><path class="cls-2" d="M173,672s2.67,9,5.93,13c2.77,3.29,9.54,8.08,14,10.92,4,2.57,9.77,4.2,14,9.52a52.93,52.93,0,0,1,6.92,14.06,775.58,775.58,0,0,1,28.31-75l-.57.58A52.2,52.2,0,0,0,236,630.41c-3.7-5.72-9.28-7.89-13-10.84-4.11-3.23-10.41-8.63-12.84-12.18-2.87-4.22-4.7-13.47-4.7-13.47l.07-.09a833,833,0,0,0-32.81,77.56Z"/><path class="cls-2" d="M216.88,572.39s1.48,9.31,4.2,13.64c2.29,3.62,8.4,9.24,12.4,12.62,3.63,3.08,9.13,5.46,12.62,11.28a53.11,53.11,0,0,1,5.05,14.84A770.06,770.06,0,0,1,289,554.15l-.62.5a52.83,52.83,0,0,0-3.61-15.23c-2.94-6.14-8.18-9-11.51-12.45-3.66-3.73-9.21-9.9-11.14-13.74-2.29-4.56-2.89-14-2.89-14l.07-.07a824.77,824.77,0,0,0-42.63,72.59Z"/><path class="cls-2" d="M273.38,479.4s.24,9.43,2.39,14.06c1.8,3.91,7.11,10.28,10.63,14.14,3.21,3.54,8.35,6.62,11,12.85a52.5,52.5,0,0,1,3.08,15.35,772.87,772.87,0,0,1,46.72-65.06l-.69.41A52.06,52.06,0,0,0,345,455.56c-2.1-6.47-6.94-10-9.79-13.81-3.14-4.19-7.82-11.05-9.24-15.11-1.68-4.82-1-14.22-1-14.22l.09-.07a821.66,821.66,0,0,0-51.77,66.42Z"/><path class="cls-2" d="M341.52,394.57s-1,9.4.55,14.26c1.26,4.1,5.7,11.11,8.69,15.42,2.71,3.91,7.41,7.62,9.26,14.19a52.61,52.61,0,0,1,1,15.61h0a769.27,769.27,0,0,1,54.81-58.42l-.73.32a52.87,52.87,0,0,0,.45-15.65c-1.23-6.71-5.57-10.83-7.89-15-2.57-4.56-6.32-11.95-7.2-16.14-1-5,.83-14.26.83-14.26l.09,0a823,823,0,0,0-60,59.09Z"/><path class="cls-2" d="M420.15,319.38s-2.18,9.19-1.31,14.2c.71,4.23,4.2,11.76,6.6,16.42,2.18,4.25,6.35,8.54,7.35,15.27a52.53,52.53,0,0,1-1,15.63,773.07,773.07,0,0,1,62-50.76l-.77.21a52.06,52.06,0,0,0,2.5-15.44c-.34-6.81-4.11-11.48-5.87-15.91-1.93-4.88-4.7-12.68-5-17-.38-5.09,2.66-14,2.66-14l.11-.06a828.5,828.5,0,0,0-67.19,50.76Z"/><path class="cls-2" d="M507.94,255.09s-3.36,8.82-3.17,13.9c.16,4.3,2.64,12.22,4.4,17.15,1.62,4.49,5.19,9.28,5.3,16.09a52.35,52.35,0,0,1-3.05,15.37,769,769,0,0,1,68.08-42.25l-.78.13a52.55,52.55,0,0,0,4.47-15c.54-6.8-2.56-11.9-3.74-16.53-1.28-5.07-3-13.2-2.76-17.48.3-5.11,4.49-13.53,4.49-13.53l.11,0A820.09,820.09,0,0,0,508,254.46Z"/><path class="cls-2" d="M603.36,202.81s-4.5,8.29-4.94,13.38c-.4,4.28,1,12.44,2.11,17.57,1,4.66,3.94,9.87,3.17,16.63a52.34,52.34,0,0,1-5.05,14.84,773.37,773.37,0,0,1,73-33l-.79,0A52.49,52.49,0,0,0,677.28,218c1.42-6.66-1-12.13-1.55-16.87-.62-5.19-1.25-13.48-.46-17.69.93-5,6.2-12.84,6.2-12.84l.1,0a828.13,828.13,0,0,0-78,31.64Z"/><path class="cls-2" d="M704.8,163.43s-5.53,7.64-6.67,12.61c-1,4.19-.6,12.5-.16,17.71.39,4.73,2.59,10.31.95,16.91a52,52,0,0,1-6.94,14,776.65,776.65,0,0,1,76.7-23.16l-.81-.09a52.4,52.4,0,0,0,8.22-13.34c2.28-6.41.61-12.15.67-16.92.07-5.25.53-13.52,1.84-17.6,1.6-4.84,7.86-11.91,7.86-11.91h.1a823.8,823.8,0,0,0-81.5,21.17Z"/><path class="cls-2" d="M810.5,137.64s-6.48,6.84-8.26,11.61c-1.48,4-2.22,12.31-2.48,17.52-.23,4.77,1.25,10.58-1.27,16.92a52.94,52.94,0,0,1-8.68,13,771.59,771.59,0,0,1,79.05-13l-.77-.17A53.27,53.27,0,0,0,878,171.42c3.1-6.07,2.19-12,2.85-16.72.76-5.18,2.29-13.33,4.14-17.2,2.2-4.6,9.33-10.81,9.33-10.81l.09,0a828.08,828.08,0,0,0-83.56,10.36Z"/><path class="cls-2" d="M918.66,125.84s-7.33,5.95-9.69,10.46c-2,3.78-3.82,11.89-4.75,17-.87,4.7-.14,10.63-3.47,16.58a52.55,52.55,0,0,1-10.32,11.78,770.6,770.6,0,0,1,80.06-2.54l-.72-.3a51.79,51.79,0,0,0,11.38-10.74c3.88-5.61,3.74-11.59,5-16.19,1.43-5,4-12.92,6.36-16.51,2.77-4.26,10.64-9.49,10.64-9.49l.09,0a828.64,828.64,0,0,0-84.19-.63Z"/><path class="cls-2" d="M716.56,1735.17s8.83,45,38.32,46.29c5.65-18.3,30.85-40.08,46.15-50.83l5.61-6.76c-4.77-37.14,12.08-57.4,12.08-57.4l-16.55,3.8c-35.66,9.52-67.61,34.06-86,65.18Z"/><path class="cls-2" d="M770,1883.72c6-1.75,11.77-7,13.88-9.35l.34,0a85.37,85.37,0,0,1-33.11-69.26c-37.51-4.48-46-46.85-46-46.85l.11,0a140.38,140.38,0,0,0,14.24,125.15l.4,0S748.81,1889.79,770,1883.72Z"/><path class="cls-2" d="M851.19,1891.09A83.59,83.59,0,0,1,835,1892.3a85,85,0,0,1-29.69-5.9l-.37.06c-8,25.56-66.26,20-66.26,20,20.72,19.89,48.59,34.85,78.49,39l-.32-.45s33.06-6.92,34-54.23Z"/><path class="cls-2" d="M868.71,1888.06l1-.72,24.94,5.63c46.41,11.86,55.2,18.89,55.2,18.89s-53,49.92-99.52,37.89c0,0,34.77-25.41,19.38-62.41Z"/><path class="cls-2" d="M1024.79,1876.32c-35.29-28.19-69.49-33-95.4-41.69l-51.47,36,61.47,20.49c18.52,4.81,23.3,13.72,46.62,28.82C986,1920,1040.37,1888.76,1024.79,1876.32Z"/><path class="cls-2" d="M1130.08,1928.23c-19.89,19.89-52.82,21.26-52.82,21.26-23.32.67-45.27-1.37-72-17.83,0,0,45.29-30.19,43.23-45.62,10.28,2.74,41.83,7.88,50.06,2.39C1098.52,1888.43,1109.51,1915.52,1130.08,1928.23Z"/><path class="cls-2" d="M1049.13,1732c23.31-19.2,43.91-26.76,59.69-22,54.3-23.3,63.09-25.38,63.09-25.38-21.25-24-43.21-28.8-80.23-27.43-16.69.62-67.84,19.44-75.78,30.81Z"/><path class="cls-2" d="M1032,1743.7s-35.68-30.19-28.81-51.45c-39.8,35-55.92,52.47-88.83,52.47-8.25,1.39-1,.37-1,.37a58,58,0,0,0-8.24,16.44c-1.58,5-3.32,10.79-3.43,15.1-.34,14.07.68,17.83.68,17.83,36,2.06,33.62,3.42,66.54-5.49,0,0,22.65-8.22,44.6-29.5C1017.34,1755.72,1028.35,1747.45,1032,1743.7Z"/><path class="cls-2" d="M885.53,1796.52s-4.1-.13.35-21.27c1.29-6.19,3.7-10.17,5.49-15.08,1.64-4.47,3.94-10.49,8.23-15.79h0l-10,.56c-26.82-2.36-40.68-4.75-66.73-9.77h0c-8.29,2.57-20.19,10.37-22.25,14.65-2.25,4.73-6.84,6.28-9.78,9.43-2.17,2.31-9.69,11.62-9.69,11.62l-.07,0C808.26,1782.89,858.09,1797.54,885.53,1796.52Z"/><path class="cls-2" d="M852.94,1671.25c4.25-6.78,13.06-4.42,19.31-5.13,32.29-3.66,77.87,18,87,38.73l-14.43,11.07c-12.53,10.68-29.92,12.76-29.92,12.76l-8.19-2.9c-10.13-4.51-25.1-6-36.93-6.2-11.44-.2-24.25-3.17-34.3.72-12.11-12.57,17.42-48.84,17.42-48.84Z"/><path class="cls-2" d="M720.29,1909.7c-11.53,8.47-18.94,15.23-18.94,15.23l-11.73,11.28.53-.51s-37.58-44-66.88-18.44l-.23.15c12.49-15.54,23.44-29.76,29.64-35.94,6.67-6.67,14-13.47,25.77-19.54l-3.38,2.11a74.7,74.7,0,0,1,12.27-4.77S695.06,1896.05,720.29,1909.7Z"/><path class="cls-2" d="M603.59,1941.58c38.35-31.52,69.79,10.25,69.79,10.25l-28.66,27.59Z"/><polygon class="cls-2" points="627.29 1996.54 632.57 1990.61 594.88 1954.14 589.57 1960.09 627.29 1996.54"/><path class="cls-2" d="M579.78,1967.2a210.09,210.09,0,0,0-21.58,16l42.27,49.53,17.67-26.42Z"/><path class="cls-2" d="M1279.92,1980.63a212.38,212.38,0,0,1,21,16.86l-44.17,47.88-16.62-27.07Z"/><polygon class="cls-2" points="1268.52 1974.37 1263.01 1968.65 1223.76 2003.45 1229.29 2009.15 1268.52 1974.37"/><path class="cls-2" d="M1257.12,1954.13c-37.11-33-70.15,7.57-70.15,7.57l27.59,28.65Z"/><path class="cls-2" d="M1185.38,1871.65c-50.27-27-77.18,11.7-77.18,11.7,31.22,15.12,55.32,49.09,55.32,49.09l7.84,13-.52-.52s39.24-42.48,67.55-15.86l.22.16c-11.89-16-22.4-30-28.36-36.37C1205.24,1887.45,1196.6,1879.85,1185.38,1871.65Z"/><path class="cls-2" d="M997.47,1790.66c-4.24,1.76,26.7,12.84,76,5.65l.37-.55s6.69-6.65,8.59-11.39c1.6-4,5-13.53,5.4-18.74.35-4.76,1.85-7.86,2-14.37a42.4,42.4,0,0,1,2.31-12.3c-5.53,2.87-34.9,12.71-34.9,12.71-8.09,2-13.58,3-13.58,3-4.52,3.34-8,7.6-11.65,10.63-2.45,2-8.1,7-14.38,12C1014.37,1779.9,999.34,1789.05,997.47,1790.66Z"/><path class="cls-2" d="M1203.81,1860c30.54-34.65,17.52-75.8,12-95.69l-60,27.42c1,2.75,10,19.9-6.88,39.12C1148.93,1830.82,1207.17,1856.15,1203.81,1860Z"/><path class="cls-2" d="M1086.87,1875.06c0,.34,40.47-37.67,66.18-26.07l-5.82-5.15c-23.2-17.18-51.31-27.36-78.88-28.11-25-.69-68.75,6.53-78.66,22.81,0,0,37.49,7.37,61.15,31.36C1053,1872.09,1062.84,1869.24,1086.87,1875.06Z"/><text class="cls-3" transform="translate(378.78 840.25) rotate(-71.9)">S</text><text class="cls-3" transform="matrix(0.42, -0.91, 0.91, 0.42, 402.78, 767.8)">c</text><text class="cls-3" transform="matrix(0.51, -0.86, 0.86, 0.51, 426.89, 714.28)">o</text><text class="cls-3" transform="matrix(0.61, -0.79, 0.79, 0.61, 462.1, 655.1)">u</text><text class="cls-3" transform="matrix(0.68, -0.73, 0.73, 0.68, 506, 599.41)">t</text><text class="cls-3" transform="matrix(0.74, -0.68, 0.68, 0.74, 531.59, 571.35)">s</text><text class="cls-3" transform="translate(572.1 534.73) rotate(-38.71)"> </text><text class="cls-3" transform="matrix(0.84, -0.55, 0.55, 0.84, 590.74, 517.82)">C</text><text class="cls-3" transform="matrix(0.9, -0.44, 0.44, 0.9, 662.78, 470.94)">a</text><text class="cls-3" transform="translate(724.93 441.48) rotate(-20.72)">t</text><text class="cls-3" transform="translate(759.92 427.38) rotate(-15.54)">ó</text><text class="cls-3" transform="matrix(0.98, -0.18, 0.18, 0.98, 827.05, 409.44)">l</text><text class="cls-3" transform="translate(860.71 403.12) rotate(-7.29)">i</text><text class="cls-3" transform="translate(894.32 398.28) rotate(-2.9)">c</text><text class="cls-3" transform="translate(952.99 394.92) rotate(3.17)">o</text><text class="cls-3" transform="translate(1022.02 399.02) rotate(9.07)">s</text><text class="cls-3" transform="translate(1075.88 408.06) rotate(12.94)"> </text><text class="cls-3" transform="translate(1100.83 412.74) rotate(17.64)">d</text><text class="cls-3" transform="translate(1168.51 434.45) rotate(23.97)">e</text><text class="cls-3" transform="matrix(0.88, 0.47, -0.47, 0.88, 1223.5, 459.53)"> </text><text class="cls-3" transform="matrix(0.86, 0.51, -0.51, 0.86, 1246.54, 471.82)"> </text><text class="cls-3" transform="translate(1269.03 485.11) rotate(33.17)"> </text><text class="cls-3" transform="translate(1290.89 499.38) rotate(35.69)"> </text><text class="cls-3" transform="matrix(0.78, 0.62, -0.62, 0.78, 1312.05, 514.4)">l</text><text class="cls-3" transform="matrix(0.7, 0.72, -0.72, 0.7, 1339.54, 532.93)">m</text><text class="cls-3" transform="translate(1417.49 615.31) rotate(54.07)">e</text><text class="cls-3" transform="matrix(0.51, 0.86, -0.86, 0.51, 1452.63, 663.91)">r</text><text class="cls-3" transform="translate(1479.44 710.24) rotate(63.94)">í</text><text class="cls-3" transform="translate(1495.04 740.17) rotate(69.02)">a</text><path class="cls-4" d="M804.78,1258.36c-12.89-1.84-25.19-4-36.86-6.28-2.67,33.36-22.59,62.75-52.27,76.78-40.66,19.22-78.77-.26-82.92-2.47,4.1,49.45,44.31,94.78,96,94.78C799.8,1421.17,841,1312.26,846,1263,832.93,1261.92,819.15,1260.41,804.78,1258.36Z"/><path class="cls-4" d="M952,1563.34c60.39-26.56,122.57-82.74,149.14-140.7-38.36-53.09-57.88-110.75-63.91-157.43-22.23,1.61-45.71,2.59-70.14,2.59-3.05,41.87-2.93,130.77-15.09,178.81-12.15-48-12-136.94-15.08-178.81-24.43,0-47.91-1-70.15-2.59-6,46.68-25.51,104.34-63.85,157.43C829.47,1480.6,891.63,1536.78,952,1563.34Z"/><path class="cls-5" d="M1251.36,467.52a35.6,35.6,0,0,1,22-2.41,36.38,36.38,0,0,1,19.74,11.46,40.91,40.91,0,0,1,6.59,9.82,28.74,28.74,0,0,1,2.67,11.61c.16,7.95-2.72,16-8.24,21.23a.37.37,0,0,1-.52,0,.33.33,0,0,1-.08-.34h0a57.76,57.76,0,0,0,2-10.41,44.18,44.18,0,0,0-.18-10,55.51,55.51,0,0,0-2.13-9.54,29.25,29.25,0,0,0-4.47-8.82,32.38,32.38,0,0,0-7.21-7,33,33,0,0,0-9.11-4.63,33.61,33.61,0,0,0-10.28-1.76,36.16,36.16,0,0,0-10.54,1.43.36.36,0,0,1-.44-.24A.35.35,0,0,1,1251.36,467.52Z"/><path class="cls-5" d="M1334.41,424.7a22.62,22.62,0,0,0-6.89-5.4,24.21,24.21,0,0,0-4.09-1.59,27.31,27.31,0,0,0-4.29-.83,31,31,0,0,0-8.61.33,28.3,28.3,0,0,0-8,2.61c-2.39,1.22-4.58,3.09-4.92,5a8.27,8.27,0,0,0,.22,3.45,20.16,20.16,0,0,0,1.42,3.71,53,53,0,0,0,10.29,13.4,56.25,56.25,0,0,0,13.61,9.92,20.85,20.85,0,0,0,7,2.34,5,5,0,0,0,2.41-.28,5.51,5.51,0,0,0,2.08-1.78,21.32,21.32,0,0,0,3.37-6.69,30.89,30.89,0,0,0,1.51-8.11,25,25,0,0,0-1-8.47A22.09,22.09,0,0,0,1334.41,424.7Zm.52-.47a34.07,34.07,0,0,1,8.38,16.24,30.09,30.09,0,0,1,.46,9.63,21.57,21.57,0,0,1-3.43,9.65,12.82,12.82,0,0,1-4.51,4.1,11.83,11.83,0,0,1-6.28,1.06,20.2,20.2,0,0,1-5.25-1.31,34.05,34.05,0,0,1-4.44-2.22,67.86,67.86,0,0,1-14.3-12.09,70.92,70.92,0,0,1-5.83-7.21,45.84,45.84,0,0,1-4.68-8.17,24.68,24.68,0,0,1-1.45-4.72,12.26,12.26,0,0,1,.1-5.38c.17-.46.32-.93.52-1.38a9.37,9.37,0,0,1,.75-1.23,11.27,11.27,0,0,1,1.85-2,17.34,17.34,0,0,1,4.25-2.57,29.9,29.9,0,0,1,18.32-1.23A31.17,31.17,0,0,1,1334.93,424.23Z"/><path class="cls-5" d="M1290.53,478c2.06-3.95,4.24-7.83,6.4-11.72l3.3-5.8,3.39-5.73c1.14-1.91,2.17-3.89,3.23-5.84a34.8,34.8,0,0,1,3.75-5.49,55.77,55.77,0,0,1,4.62-4.88,34.62,34.62,0,0,1,5.53-4.26.38.38,0,0,1,.52.14.34.34,0,0,1,0,.26,33.41,33.41,0,0,1-2,6.67,53.63,53.63,0,0,1-2.93,6.05,34.16,34.16,0,0,1-3.81,5.45c-1.45,1.69-2.94,3.35-4.32,5.09l-4.17,5.19-4.25,5.14c-2.87,3.4-5.73,6.8-8.7,10.13a.35.35,0,0,1-.5,0A.37.37,0,0,1,1290.53,478Z"/><path class="cls-4" d="M1099.41,1258.16c-14.61,2.19-28.61,3.81-41.9,5a243.74,243.74,0,0,0,8.77,40.36c2.94,9.54,12.08,33.71,25.7,56.45,19.79,33,47.69,59.81,83,59.81,51.65,0,91.89-45.33,96-94.8-60.54,28.79-122.28-1.06-134.8-73.32C1124.5,1254,1112.25,1256.24,1099.41,1258.16Z"/><path class="cls-6" d="M953.48,1244.14c-296.38-.09-296.38-82.61,0-82.71,296.35.1,296.34,82.62,0,82.71Z"/><path class="cls-7" d="M875.94,1165.87c-.16,1.05-.37,2.38-.6,3.93-2.38,16.38-1.45,19.77.83,22.19l.35.36c1.52,1.51,6.23,5.74,12.69,6.28,3.8.32,5.2-.85,6.73.27,3.78,2.76-2.77,11.28,1.26,16.32,2,2.47,4.06,1.08,14.87,6a24.33,24.33,0,0,1,2.84,1.52h0l3.26,2.5c.81.64,2.52,4.12,6.45,16.54,5.37.07,11.8.14,19.07.17,11.27,0,27.74.13,48.71-.48,5.49-.16,12-.37,19.27-.67-2.75-16.78-7.76-21.91-12.09-23.27-5.94-1.87-13.51,2.27-16.39-1.31-1.29-1.61-1.28-4.46-1.28-5.64,0-1.89,0-3.52.91-4.63,2.67-3.31,10.15,2,16.67-1,5.17-2.36,3.21-6.91,8.7-10.29,6.42-3.94,11.2.94,17.68-3.17,4-2.53,5.61-6.66,7.61-11.67a39.82,39.82,0,0,0,2.79-13.74l-83.56-.78Z"/><path class="cls-8" d="M1071.27,1143.63c22.26-387.2,458-467,440.67-112.63-16.51,75.66-85.51,142.12-167.48,130.74,23.78-163.59-160.1-154.88-187.5-7.16C1127.48,1148.65,1096.18,1146.33,1071.27,1143.63Z"/><polygon class="cls-9" points="1392.85 1018.5 1400.57 971.78 1447.39 964.7 1405.36 942.91 1413.11 896.21 1379.38 929.44 1337.35 907.66 1358.54 949.99 1324.83 983.23 1371.63 976.15 1392.85 1018.5"/><path class="cls-10" d="M1345.91,1104.67a4.31,4.31,0,0,1,.44-.32c6-4,19.8.57,24.13,6.71a21.14,21.14,0,0,0,5.61,5.31,7.75,7.75,0,0,0,1.73.82c7.25,2.49,11.38-5.29,24.68-8.83,7.31-1.94,7.3.08,22.59-2,10.19-1.4,15.29-2.1,17.52-4,7.89-6.86-.94-17.22,6.75-34a64.26,64.26,0,0,1,16.81-21.62c2.6-2.14,3.88-2.79,6.78-5.55,6.69-6.35,7.08-9.72,13.15-15,5.09-4.41,5.92-3,8.42-6.07,4.27-5.24,2.69-10.39,3.71-19.89,1.43-13.24,5.67-13.27,7.48-26.66a64.42,64.42,0,0,0,.58-9.25,93.77,93.77,0,0,0-.78-11.16c-.07-.49-.12-.87-.12-.87s2,11.29,3.31,24.32c0,.4,1,9.91,1.24,18.7.07,2.09.2,7.1.29,12.65,0,1.23,0,1.85,0,2.19.06,5.45-.16,8.44-.16,13.61,0,.27,0,1.52-.08,4a26,26,0,0,1-.16,2.91c-.07.47-.28,1.35-.69,3.08-.32,1.35-.48,2-.49,2-.82,3.35-1.85,6.75-2.19,8s-.81,2.8-1.47,4.78h0c-1.55,6.22-3.91,10.5-7,17-2.7,5.73-4,8.59-4.2,8.88a166.73,166.73,0,0,1-10.46,17.87,170.78,170.78,0,0,1-18.28,22.24,152.63,152.63,0,0,1-26.32,22.48,147.19,147.19,0,0,1-22.57,12.29,129.51,129.51,0,0,1-37.49,10.82,124.39,124.39,0,0,1-31.79-.15,168,168,0,0,0-1-55.23Z"/><path class="cls-10" d="M1263.74,1039.53a85,85,0,0,0-35.87-15.61c-10.39-1.81-24.89-4.3-32.46,4.19-4.13,4.64-4.56,10.88-4.44,14.66l53.51.29q2.41-.7,5-1.32A98,98,0,0,1,1263.74,1039.53Z"/><path class="cls-10" d="M1087.87,1050.61l71.52-.87c-2.9-.77-18.36-5-18.14-10,.14-3.14,6.48-5.85,10.93-6.75,3.88-.78,6.14-.14,11.49.46,11.25,1.26,17.91,2,19.69-.69,2.38-3.64-4.83-12.5-10.14-19-10.68-13.11-15.76-13.37-17.22-20.4-1.94-9.42,6.09-14.22,2.7-21.31-2-4.19-5.75-4.42-14.37-9.71A87.3,87.3,0,0,1,1129,950.42c-5.41,9.21-9.63,17.25-12.78,23.6,0,0-4.3,8.77-9.4,20.77-1.36,3.18-2.68,6.42-2.68,6.42-.92,2.29-1.85,4.56-2.77,7l-.77,2.15c-1.28,3.55-2.14,5.83-2.57,7-1,2.78-1.78,5.15-3.28,9.88-1.27,4-2.17,7-2.94,9.61C1090.8,1040.31,1089.44,1045,1087.87,1050.61Z"/><path class="cls-8" d="M833.09,1143.42c-24.92,2.67-56.22,5-85.48,11.52-27.57-148.53-211.48-157-187.7,6.6-82,11.37-151-55.09-167.48-130.75-17.57-353.85,418.19-275.18,440.66,112.63Z"/><polygon class="cls-9" points="511.52 1018.28 532.72 975.94 579.54 983.01 545.81 949.79 567.02 907.44 524.99 929.23 491.26 895.98 499.01 942.7 456.98 964.49 503.8 971.56 511.52 1018.28"/><path class="cls-11" d="M736.53,1112.77c2.75-1.86,6.44-3.74,9.21-2.42,4.38,2.1,1.14,10,5.45,14,8.25,7.67,26.15-6.63,38.21.78,5.09,3.13,2.29,9.95,8.58,14.81a19.58,19.58,0,0,0,11.54,3.73c-1.23.11-3.18.3-5.57.55-5.64.59-9.37,1.06-16.41,1.9-1.2.15-2.94.33-5.36.64l-5.34.74c-3,.43-7.66,1.09-12.61,1.94-3.76.64-8.83,1.58-14.9,2.94a169,169,0,0,0-6-22.76A170.89,170.89,0,0,0,736.53,1112.77Z"/><path class="cls-10" d="M396.22,1037.46c4.11-3.15,10-6.59,15.2-4.85s5.29,7.57,10.58,13.4c1.55,1.71,14.43,15.59,27.5,14.1,12.84-1.46,12.82-16.26,29.62-21.15,10-2.93,19.39-.36,23.27.7,11.59,3.18,12.71,8.16,21.86,12,17.17,7.2,39.41.67,52.89-9.17,11.25-8.21,10.46-14.4,21.15-19.74,3.33-1.66,9.79-4.14,33.14-2.12,41.93,3.63,44.46,13.74,65.59,10.58,4.55-.68,12.48-2.35,17.63,2.12,5.69,5,3.83,13.85,7.75,14.8,3.55.87,8-5.67,9.87-9.16,3-5.75,5.49-15.82,1.41-19-5.44-4.32-17.09,8-24,3.52-5.66-3.66-.35-13.61-5.64-19.74-9.93-11.5-42.91,7-46.54.7-2.42-4.18,8.3-18.88,22.56-22.56,9-2.32,12.88,1.43,24-1.41s10-7.42,19-9.87c16.39-4.49,25.53,9.18,46.54,5.64,5.19-.88,6.08-2.05,8-2.57a12.81,12.81,0,0,1,1.83-.25c3.38-.21,9,2,9.38,2.21a409.82,409.82,0,0,1,36.29,115.73c-13.07,7.73-29.48,14.81-40,8.28s-6.83-22.74-16.92-29.62c-6.52-4.44-19.8-5.74-50.26,13.3a119.13,119.13,0,0,0-21.85-21.78A115.13,115.13,0,0,0,675,1048.6c-8.17-3.82-23.18-10.75-43.37-9.6-.72,0-1.85.11-3.32.24-9,.79-30,4.24-46.73,20.58a72.59,72.59,0,0,0-13,17.41c-7.9,13.92-10.09,26.76-11.37,34.7a135.06,135.06,0,0,0-1.6,20.41,167.74,167.74,0,0,0,1.8,27.36,137.88,137.88,0,0,1-55.93-5.37,145.46,145.46,0,0,1-37.23-18.24c-34.33-23.16-49.82-54-56.13-66.93A182.62,182.62,0,0,1,396.22,1037.46Zm376.65-53.8c-9.17-.71-19,5.72-18.76,11.06.47,9.37,32.34,19.14,37,12.5C794.52,1002.45,787,984.75,772.87,983.66Z"/><path class="cls-8" d="M949.71,463.12c30.19,32.61,80.22,70.74,90.55,78.49,239.12,182.69,27.41,369.36-6.82,604.05-22-2.59-45.51-3.58-69.85-3.85,2.79-157.57-3.22-371-13.88-525.2C939,770.77,933,984.24,935.8,1141.81c-24.31.27-47.83,1.26-69.85,3.85-34.23-234.56-246-421.47-6.81-604.05C869.47,533.86,919.53,495.73,949.71,463.12Z"/><path class="cls-11" d="M1082.28,972.67c.54-1.34,1.08-2.69,1.61-4-4.24-1.88-10.37-4.54-17.84-7.55-11.25-4.55-18.71-6.77-28.29-10.14a58.73,58.73,0,0,0-20.93-3.89,60.11,60.11,0,0,0-21.41,4.38c-6.62,2.44-21.3,8.9-20.44,12.65,1.23,5.37,33.3.55,34.07,4.87.41,2.35-8.28,6.08-14.6,7.78a52.1,52.1,0,0,1-28.62-.75l.42,116.77c10.29,1,22.15.33,27.71-7,6.41-8.46-1.23-18.79,5.35-26.77,8.33-10.09,24,0,35-9.73s8.74-31.35,7.3-45.26c-1.73-16.82-6.47-22.12-2.92-27.74C1042.14,970.86,1052.2,966.57,1082.28,972.67Z"/><path class="cls-12" d="M436.6,863.48H701.82a256,256,0,0,0-45.24-30.57A239.77,239.77,0,0,0,619,816.77,194.94,194.94,0,0,0,582.16,808s-8.46-1.13-16.68-1.44c-50.18-1.94-89,21.53-89,21.53A149.61,149.61,0,0,0,436.6,863.48Z"/><path class="cls-12" d="M1202.67,863.58l265.21-.1a151.16,151.16,0,0,0-49-40.39c-29-14.86-55.44-15.93-67.07-16.28a176,176,0,0,0-40.48,3.66c-33,6.3-65.74,24.29-65.74,24.29A264.24,264.24,0,0,0,1202.67,863.58Z"/><path class="cls-12" d="M774.72,863.48H935.85c1.31-40.7,2.69-74.64,3.83-100.46,1.22-27.44,2.34-49.38,3.29-68,0-.85.69-13.36,1.61-30,.51-9.17.93-16.09,1.07-18.36.54-9,1.18-19.09,1.93-30.24l4.27,0q1,15.94,2,32,6.51,108.81,9.69,215h161.12c6.12-16.67,10.44-31.16,13.49-42.61,3.71-13.93,5.91-24.73,6.71-28.82,1.46-7.39,2.53-13.81,3.3-18.89h0c2.28-27.36,2.52-45.27,1.08-61.33-2.18-24.49-9.84-43-14.92-55.07A227,227,0,0,0,1117,624c-17-26.78-35.78-44.18-50.35-57.72-7.53-7-14.16-12.54-17.24-15.09-11.59-9.56-18.5-14.15-27-20.37-20.23-14.9-34.88-28.54-50.22-42.79-9.73-9-17.48-16.72-22.6-21.92-3.7,4-10,10.68-18.1,18.52-19.82,19.1-33.36,28.52-65.42,54.46-14.8,12-22.2,18-26.92,22.16-16.16,14.32-30.4,27-45.33,46.57a251.82,251.82,0,0,0-26.48,43.91,179.87,179.87,0,0,0-10.12,25.09c-1.11,3.56-5.78,18.93-7.48,42.25-1.5,20.56.12,36.09,1.54,48.86,3.25,29.21,9.53,51.29,13.86,66.24C768.69,846.33,772.12,856.34,774.72,863.48Z"/><path class="cls-11" d="M801.25,929.56c.42-3.67,1.94-23.37,13.75-27.88,4.78-1.82,9.2,0,12.22-3.44,4.25-4.82-1.34-12,2.67-17.18,3.39-4.34,9.11-1.41,16.42-4.58s10.48-9.9,15.6-21.07c4.68-10.2,3.23-10.57,11.38-36.36,7.59-24,8.28-21.93,8.53-27,.18-3.53,0-8.55,3.44-11.45,2.49-2.12,7-3.23,10.31-1.53,5,2.6,5.85,12.08,7.25,30.93.43,5.72.51,9.49,2.29,14.89a49,49,0,0,0,6.5,12.6c6.84,10.66,2.65,17.3,6.58,42,2,12.63,3.43,21.09,8.69,30.53a69.47,69.47,0,0,0,7.62,10.78q-.91,41.48-1.24,84-.32,44.61,0,88.06l-75.74,0c-7-24.56-17.06-57.54-28.49-88.41-3.33-9-10-26.46-17.21-44.87-4.4-11.18-8.15-20.51-10.85-27.2C801,931.77,801.12,930.76,801.25,929.56Z"/></g></g></svg>