<svg xmlns="http://www.w3.org/2000/svg" viewBox="0 0 1747.08 2268.28"><defs><style>.cls-1{fill:none;}.cls-2{fill:#010202;}.cls-3{fill:#578366;}.cls-4{fill:#374834;}.cls-5{fill:#4f965f;}.cls-6{fill:#fdd43d;}.cls-7{fill:#38173c;}.cls-8{fill:#81327c;}.cls-9{fill:#3d6d4c;}</style></defs><g id="Capa_2" data-name="Capa 2"><g id="Layer_1" data-name="Layer 1"><path class="cls-1" d="M916.24,104.88c-74,45.93-148-36.61-75.77-62q41.6-14.47,79.76,7.65a4.14,4.14,0,0,0,6.21-3.66L926,17a6.79,6.79,0,0,0-4.66-6.43Q835.65-17.7,775.79,29.67,740.18,57.8,752.94,95.56c21.08,62.35,110.82,67.23,163.52,51.26,4.33-1.33,6.54-4.33,6.65-8.88l.45-28.95c.11-5.88-2.33-7.21-7.32-4.11M1043,159.13l50.47,16.09q5.84,1.83,7.32-4L1124.57,85a9.14,9.14,0,0,0-8.32-11.53l-52.8-3a6.46,6.46,0,0,1-2.33-.77C1024.4,46.2,950.63,44.2,945.75,98.78c-4.89,54.36,50.14,71.67,94.18,60.24a6,6,0,0,1,3.11.11M1171,88.91l-14.43-2.78a6.76,6.76,0,0,0-7.54,4.33c-4.88,12.65-.89,21.41,11.87,26.29a6.36,6.36,0,0,1,3.77,8.21l-20.85,55a7.46,7.46,0,0,0,4.32,9.65L1183.15,203c3.66,1.33,6.1.22,7.54-3.33l23.63-58a7.78,7.78,0,0,1,10-4.32c13.42,5.21,21.52,1.11,24.07-12.1a6.78,6.78,0,0,0-5.33-8l-5.76-1.22a7.18,7.18,0,0,1-5.55-9.1L1237,89a8.88,8.88,0,0,0-5.88-11l-38.6-12.32c-4.66-1.44-7.88,0-9.65,4.55l-6,15.42a5.19,5.19,0,0,1-5.88,3.22m-576.32,80a7.57,7.57,0,0,1,8,6.66,7.71,7.71,0,0,1-6,8.54l-57.69,12.65a6.51,6.51,0,0,0-5,7.87l3.11,14c1,4.33,3.66,6.1,8,5.11,32.18-7.22,93-18.42,103.29-54.25,12.64-43.38-66.57-28.29-86.53-26.52a4.19,4.19,0,0,1-2.33-7.87c14.2-7.66,52.8-9.88,59.57-16.53,4.1-4.11,5.44-9.32,3.88-15.64a7.23,7.23,0,0,0-7-5.55q-55.08-.84-95,34.5c-24,21.52-4.88,46.37,24.74,42.16,17.75-2.56,34.06-4.33,48.92-5.11m809.84-18.3a3.77,3.77,0,0,0,1.66-7.1l-32.61-17.2a4.11,4.11,0,0,0-2.78-.33l-36.83,9.43a3.79,3.79,0,0,0-1.22,6.77L1347,152a3.37,3.37,0,0,0,2.22.78l55.25-2.22M410,178.1a4.86,4.86,0,0,1-.34,6.77l-12.64,12.64a5.22,5.22,0,0,0-.56,6.66l6.77,9.21a5.21,5.21,0,0,0,6,1.77l17-6.32a5.07,5.07,0,0,1,6.1,2l35.06,55a5.15,5.15,0,0,0,6.88,1.66l35.39-20.19a5.11,5.11,0,0,0,1.77-7.1L477.6,185.75a5.08,5.08,0,0,1,.88-6.43l14.09-12.76a5.21,5.21,0,0,0,1-6.32l-7-12.2a5.11,5.11,0,0,0-7.1-1.78l-12.31,7.43a5.09,5.09,0,0,1-7-1.77l-11.09-18.19a5,5,0,0,0-6.88-1.78l-42.27,24.41A5.07,5.07,0,0,0,398.5,164L410,178.1m982.6,72.5c14.49-26.57-7.14-66.29-48.33-88.6s-86.17-18.84-100.64,7.72,7.15,66.29,48.34,88.6,86.16,18.85,100.63-7.72m-9.36,60.4a3.84,3.84,0,0,0,.44,5.33l33.06,28.51a3.94,3.94,0,0,0,5.33-.22l104.05-109.5a3.83,3.83,0,0,0-.33-5.66L1484.67,195a3.75,3.75,0,0,0-5.43.45l-96,115.59"/><path class="cls-1" d="M1509.08,603.65l15-15.42q4.15-4.15,1.33-9.32-19-35.77-55.25-52c-3.55-1.66-4.88-4.32-3.88-8.21,9.43-37-27.63-71.33-61.68-75.43-3.89-.45-5-2.44-3.55-6l3.88-9.21a7.75,7.75,0,0,0-.33-6.66q-20.14-37.11-62.24-37.38c-4.21,0-6.65-2.11-7.21-6.33Q1327,317.61,1267.68,317a10,10,0,0,1-9.21-5.32c-15.86-27.85-39.82-38.28-71.77-31.51-3.33.78-5.1-.55-5.33-4-2.88-35.39-43.93-42.16-72.66-34.84-4.55,1.22-6.77-.55-6.77-5.1,0-30.62-51.47-27.29-70.88-17.64a8,8,0,0,1-9.32-1q-43.44-34.77-85.53-.44c-4.77,3.88-8.21,2.88-10.43-2.77l-2.44-6.33a13.91,13.91,0,0,0-9.21-8.54c-28.73-8.87-52.47-2.44-71.44,19.41-2.56,2.78-5.44,3.33-8.88,1.67q-63.22-33-98.07,26.29c-2.33,4.11-4.77,4.22-7.32.11l-6.1-10.2a9.37,9.37,0,0,0-4.77-3.78q-61.23-20.13-84.31,31.18a11.26,11.26,0,0,1-9.87,7.1l-59.8,6.43a10.15,10.15,0,0,0-8.65,7.1l-8.32,26.74q-1.67,5.65-7.66,6-48.09,2.82-71.88,45a17.48,17.48,0,0,0,9.43,25.07q55.41,19.3,79.65-35.83A6.74,6.74,0,0,1,563,347.5c34.94,1.33,59-14.09,72.44-46.26a8.18,8.18,0,0,1,8.76-4.88q55.75,8.82,90.41-32.73,2.34-2.82,4.66,0a20,20,0,0,0,2.11,2.11,11.09,11.09,0,0,0,5.33,2.77c29.84,6.77,56.46.23,79.65-19.63q4.15-3.66,8.65-.34,44.26,33,80.43-6.87c3-3.33,6-3.33,9,.11q31.27,36.27,73.88,8.32,5.16-3.33,9,1.33,29.28,35.11,73.44,18.86c3.43-1.22,6.32-.45,8.54,2.55,17.41,23.41,40.93,31.51,70.33,24.41,3.88-.89,6.21.55,7.21,4.32,10.87,42.16,42.16,37.39,77,39.5a9.93,9.93,0,0,1,9,7.32c7.65,29.62,26.4,44.37,56,44.15,3.44,0,5.55,1.77,6.21,5.21q9.15,51.09,59.91,60,4.32.83,4.32,5.33c-.33,30.72,13.54,51.69,41.83,62.9a9.94,9.94,0,0,1,6.54,7.87q9.31,49.59,55.14,69.34c3.55,1.55,4.77,4.21,3.77,8q-14,51.42,35.83,70.34c4.11,1.55,5.55,4.44,4.44,8.65a30.83,30.83,0,0,1-3.66,8.32c-17,26.63-10.87,53.36,15.53,69.11,3.22,1.89,3.77,4.55,1.88,7.77q-32.28,54.58,22,83.53a4,4,0,0,1-1.55,7.44c-37.06,3.44-26.74,58-10,76.88,2.33,2.66,2.55,5.43.45,8.43q-29.79,41.93,2.88,81.87a18.41,18.41,0,0,0,29.73-1.78c15.87-24.74,13.43-47.26-7.21-67.33-2.77-2.78-2.66-5.33.33-7.77q50.6-41.1,4.89-85.87c-3-2.88-3-5.76,0-8.54,24.18-22.85,10.42-54.8-5.66-77.65a10.4,10.4,0,0,1-1.33-10.43q20.13-54.42-24.41-84.87c-3.33-2.33-3.33-4.54-.11-6.87,33.72-24.19-8.1-73-40.38-75.88-2.33-.23-2.66-1.22-1.11-2.89"/><path class="cls-1" d="M373.32,306.68c-6.55,13.75-17.09,22-31.73,24.51a10.42,10.42,0,0,1-10.21-3.33l-38.83-41a6.51,6.51,0,0,0-9.31-.22l-30.4,29.73c-3.44,3.44-3.44,6.76,0,10.09,25.07,24,53.58,60,92.3,41.27q51.58-25,73.44-77.66a14.22,14.22,0,0,0-.11-10.87,189.14,189.14,0,0,0-42.71-62.9c-2.78-2.77-5.77-2.88-8.88-.55L333.6,240.89c-4,3-4.33,6.43-1,10.21l39.16,44.48a10.17,10.17,0,0,1,1.56,11.1m1214.61,23c8.34-7,5.24-24.44-7-38.85s-28.84-20.42-37.14-13.35-5.23,24.44,7,38.84,28.83,20.43,37.13,13.36m-60-20.93a6.15,6.15,0,0,0-8.77-.54l-68.46,60.57a6.21,6.21,0,0,0-.53,8.77l28.52,32.24a6.15,6.15,0,0,0,8.77.54l68.46-60.57a6.21,6.21,0,0,0,.54-8.77l-28.53-32.24"/><line class="cls-1" x1="753.05" y1="1213.69" x2="772.91" y2="1199.27"/><path class="cls-1" d="M772.91,1199.27q35.77-20.8,36.16-68.34"/><path class="cls-1" d="M809.07,1130.93c1.67,1.22,4.55,1,8.54-.78,3.78-1.66,6.33-.55,7.55,3.44l1.33,4.44"/><path class="cls-1" d="M826.49,1138q-4.5,47.92-35,72.33a25,25,0,0,0-5.43,33,297.78,297.78,0,0,0,108.83,101.84,11.12,11.12,0,0,0,10.54.22q77.7-37.93,117.37-114a7.82,7.82,0,0,0-1.78-9.54q-40.26-35.61-48.92-94.85"/><path class="cls-1" d="M972.15,1126.94c10.43-1.67,18.75,8,24.85,28.73"/><path class="cls-1" d="M997,1155.67c6.77,22.19,21.08,39.6,43.15,52.36a10.34,10.34,0,0,1,5.11,9.1L1044,1419.92a7.67,7.67,0,0,0,9.31,7.65c193.25-41.82,342.69-223.64,400.37-403.36a5.89,5.89,0,0,0-6-7.65l-36.5,2.1a8.72,8.72,0,0,1-9-6.76q-14.14-64.24-66.67-104.28a5.71,5.71,0,0,1,.66-9.54q98-54.42,52.92-160.31c-1.22-2.88-.22-4.32,2.88-4.21l46.82,1.33c14.64.44,19.85-6.32,15.53-20.3-60-195.14-212.44-332.15-403.48-393.38-5.43-1.67-8.21.33-8.1,6l1.11,70.11c.12,3-1.33,4.33-4.32,3.77q-83.2-13.47-130,54.14c-4.88,7-9.87,7.1-15.09.22q-49.41-66.06-133.12-55.25c-4.88.67-7.32-1.44-7.32-6.43l.11-66.45a8.24,8.24,0,0,0-10.32-8c-199.35,52.81-340.35,215.11-403,407.58a5.26,5.26,0,0,0,5.1,6.88l55.47-1.11q7.15-.17,4.66,6.66Q366.61,845.65,463.28,899a3.86,3.86,0,0,1,0,6.77q-61.39,34.44-60.79,105.39a5.21,5.21,0,0,1-5.21,5.21L349,1016a6,6,0,0,0-5.88,7.43c46.37,197.25,217.21,344.57,404.25,404.48,4.11,1.33,6.21-.23,6.21-4.55l-.55-209.67"/><line class="cls-1" x1="997" y1="1155.67" x2="1052.69" y2="1212.58"/><path class="cls-1" d="M1052.69,1212.58l-4.33,186a17.42,17.42,0,0,0,22.74,17c177.39-57.13,309.85-208.45,370.09-380.84,1.55-4.33,0-6.77-4.55-7.32l-22.3-2.33c-4.22-.45-6.77,1.33-7.77,5.43q-25.78,105-115.48,110.61c-79.54,5.1-163.52-55.58-220.43-112.05"/><path class="cls-1" d="M1070.66,1029.09c-5.66-8.1-4.44-18.19,3.66-30.17q35.78-52.75,94.41-26a13.92,13.92,0,0,1,7.1,7.54,105.4,105.4,0,0,1,5.88,60,5.78,5.78,0,0,0,6.21,6.76q69.06-6.15,96.74-59.57c29.06-56.46-6.55-175.39-78.77-182.49-141.89-14-189.37,106.17-209.34,222a3.82,3.82,0,0,1-.44,1,7,7,0,0,1-1.77,2.11c-.23.11-.34.11-.23-.11.23-3-.33-4.44-1.77-4.33"/><path class="cls-1" d="M992.34,1025.87c7.54-103.17,72.44-239.29,190.7-232.52,76.1,4.44,120,59.35,123,133.35,3.44,87.19-64.35,125.69-141,137.67a5.08,5.08,0,0,1-5.22-7.43c53.58-97.63-58.9-115-83.64-43.38a7.42,7.42,0,0,0,1.88,8.1c67.78,67.56,205.57,171.06,292.65,70.55,55.8-64.34,10-137.34-46.92-183.82-3.33-2.66-3.33-5.32-.12-8,9.43-7.77,18.75-15.42,28.07-23q71.38-57.41,26.52-139.22c-61.35-112.05-164.86-106.39-265.59-45.49-10.76,6.55-12.31,4.77-4.88-5.21,33-43.71,65.57-110.94,51.48-165.3-26.29-101.5-192.37-170.84-247.94-52a9.68,9.68,0,0,1-16.87,1.1Q831.27,373.62,721,424.6c-116.48,53.8-80.1,178-28.51,262.14a3.56,3.56,0,0,1-5.1,4.77c-71.56-49.36-171.07-76.65-236.63.22-49.26,57.8-75.77,129.69-6.21,184.16q14.64,11.48,31.28,24.29a4.21,4.21,0,0,1-.67,7.1c-119.14,58.36-60.57,230,66.46,224.54q117-5,183.15-108.94,5.32-8.32,0-16.64Q695.14,959.82,652,975.18c-43.93,15.53-19.08,57.9-6.1,83.2a3.76,3.76,0,0,1-3.67,5.43c-85.64-6.43-159.63-58.79-143.88-153.2,12.2-73.22,57.24-120.7,134.57-117.15,114.59,5.11,172.72,134.57,177.49,238"/><path class="cls-1" d="M810.4,1031.42c-.66,1.22-2.1,1.89-4.21,2.22a4.8,4.8,0,0,1-5.33-4.33Q792,933,739.52,863q-38.44-51.25-100.4-58.13-40.93-4.5-72.89,11.31-37.77,19-50.47,60.8-39.61,131.29,90.85,172.61a13.41,13.41,0,0,0,16.42-18c-11.42-27.18.34-54.69,28.29-65q40.44-15,70,18.2c13.87,15.53,16.2,37.49,33.39,55.24a6.67,6.67,0,0,1-2.21,10.76q-21.81,9.17-26.63,33a10.89,10.89,0,0,0,8.65,12.87c10.65,2.11,15.87,7.54,15.76,16.42-.45,36.16-63.24,51.81-91.08,50.14-5.77-.33-7,1.78-3.55,6.44q19.8,27.61,50.81,34.94c14.86,3.55,31.72-6.43,46.59,9.1"/><path class="cls-1" d="M1082.86,1214.47q68.07,1.48,98.18-64.68a4.51,4.51,0,0,0-5.43-6.21q-57.91,18.47-106.73-16.53a10.53,10.53,0,0,1,1.45-18c20.08-10.32,25.07-25.74,14.75-46.26a17,17,0,0,0-7.1-7.44c-9.21-5.1-13.75-13.53-13.64-25.4"/><path class="cls-1" d="M992.34,1025.87c-5.1,12.21-10,15.76-14.76,10.54"/><path class="cls-1" d="M977.58,1036.41q-4-59.4,13.87-94.4c58.58-114.71,138.78-218.1-5.77-309.18a248.49,248.49,0,0,1-80.87-82.32c-1.55-2.55-3.11-2.55-4.77-.11a317.77,317.77,0,0,1-92,88.86C755.16,673,727.87,718,736.74,781q3.82,27,39,92.74a1058.36,1058.36,0,0,1,47.15,100.51"/><path class="cls-1" d="M822.94,974.29l-2.11,58.24c-.11,4.44-2.22,5.66-6.1,3.55a12.84,12.84,0,0,1-4.33-4.66"/><path class="cls-1" d="M1070.66,1029.09a6.18,6.18,0,0,1-6.32.89"/><path class="cls-1" d="M1064.34,1030c-11.21,15.2-7.77,29.17,10.42,41.71a12.14,12.14,0,0,1,5.11,10.32c-.45,8.54-4.44,14.53-12.09,18a18.74,18.74,0,0,0-4,31.84c27,21.41,57.69,30.5,92,27.29,5-.45,6.32,1.55,3.77,5.88-14.75,25.73-40.38,42.26-76.66,49.48"/><path class="cls-1" d="M1082.86,1214.47c-11,2.77-21.08,2.1-30.17-1.89"/><path class="cls-1" d="M972.15,1126.94q-6.33,54.57,32.84,85.64a22.3,22.3,0,0,1,4.77,29.73,288.69,288.69,0,0,1-101.84,95.18,15.12,15.12,0,0,1-16.87-1.44c-37.71-30.73-76.43-53.14-97.4-98.4-3.44-7.21-2.33-13.76,3.22-19.52q37.77-39.62,35.28-86.53c-.11-2.56-2-.45-5.66,6.43m-17.42-7.1-36.16,68.34m204.67-162.86q1.5,4.5-1.33,6.33c-3,1.88-4.55,1.11-4.88-2.33-6.88-85.87,29.18-134.9,62.79-202.46C1059,788,1066,745.43,1040.49,698.17c-28.85-53.47-103.06-69.34-130.58-127.91a8,8,0,0,0-14.75.78c-12.2,33.72-67.89,65.23-96,87.52Q737,707.82,746.39,779.82q3,23.46,28.85,70.22,33.45,60.74,47.7,124.25"/><path class="cls-1" d="M170.28,526.59c26.09,16,68-4.81,93.65-46.58s25.41-88.58-.64-104.6-68,4.82-93.65,46.59-25.41,88.58.64,104.59"/><path class="cls-1" d="M412.81,458.31c15.53,10.66,39.27,2.9,53.14-17.19s12.53-45.14-3-55.77-39.27-2.91-53.14,17.19-12.53,45.14,3,55.77"/><path class="cls-1" d="M1581.08,445.9c25.18,5.44,38.27,21.41,39.49,47.92a4.24,4.24,0,0,0,5.88,3.78l17.64-7a7.36,7.36,0,0,0,4.44-8.43c-8.44-40.16-41.72-87.75-86.87-85.65q-34.77,1.67-39.16,41.83-5.65,51.24,40.6,92a6.68,6.68,0,0,0,8.1.56l15.65-10.43c4.1-2.66,4.1-5.44.11-8.21q-30.45-21.3-20.53-57.47a12.59,12.59,0,0,1,14.65-8.87"/><path class="cls-1" d="M351.89,532.18c16.43,6.57,37-6.52,46-29.2s3-46.32-13.36-52.84-37,6.52-46,29.21-3,46.31,13.36,52.83m-39.81,79.68c17.08,1.11,28.73-5.77,34.83-20.52,11.65-28.29,8.1-49.48-10.87-63.79-16.42-12.2-35.61-5.44-45.48,10.43-8.21,13.31-5.22,32.61-5.33,49a9.86,9.86,0,0,1-5.43,9.32q-44.27,25-27.18,75.55a8,8,0,0,1-4.33,9.87c-46.59,21.08-43.15,100.73,18.31,88a12.76,12.76,0,0,0,8.54-6.32c11.42-20.3,13.64-41.82,6.65-64.34-1.22-3.89-.11-7.1,3.22-9.54,24.3-17.75,31.62-41.61,22.19-71.45-1.44-4.43.22-6.54,4.88-6.21"/><path class="cls-1" d="M1680.72,712.69c29-9.09,39.8-57.34,24-108s-52.09-84.26-81.07-75.26-39.8,57.34-24,108,52.09,84.26,81.07,75.26M121.6,604c-1.66-20.41,4.55-38.16,18.42-53.25a8.17,8.17,0,0,0-2.89-13.09L123.49,532a4.06,4.06,0,0,0-4.88,1.11Q78.17,578.85,89.43,638.37c5.44,28.85,29.62,48,58,37.06,29.18-11.21,93-111.49,31.73-113.49a4.18,4.18,0,0,0-4.33,4.66c3.11,24.74-16.08,71.66-48.26,46.7a13.27,13.27,0,0,1-5-9.32M47.5,807.88a5.48,5.48,0,0,1-10,.56C22.42,779.37,42,748,49.38,718.69a15.09,15.09,0,0,0-27.95-10.76q-34.62,65.4-13.32,146.33c8.21,31.39,48.26,48.47,61.46,9.43,10.32-30.29,19.75-60.35,28.18-90,3.22-11.21,19.19-10.43,21.41,1q8.49,44.43-16.53,81.21A12.74,12.74,0,0,0,101,866.13a50.24,50.24,0,0,0,22.63,30.61c3,1.89,5.32,1.22,6.77-2.1,17.75-40.5,55.69-212.56-33.51-191.59A12.81,12.81,0,0,0,90,707c-23.74,26.18-30.5,68.34-42.48,100.84M1719,804.33c6.66,23.19-6.43,62.68-.44,76.33,3.32,7.43,9.54,11.09,18.74,11.2,3.55.11,5.55-1.66,6.11-5.21,5.54-38.16,9.76-118.7-25.52-145.66a20.45,20.45,0,0,0-32.73,14.64l-6.21,77a6,6,0,0,1-11.76,1.33,126.72,126.72,0,0,1,.45-77.76,7.53,7.53,0,0,0-4.33-9.1l-17.08-6.65c-4.11-1.56-6.44-.23-7,4.1-5.33,38.72-7.66,121.59,24.4,154.76a11,11,0,0,0,10.54,3c38.16-9.21,27.51-68.56,37.39-98.07,2.66-7.87,5.1-7.87,7.43.11"/><path class="cls-1" d="M247.63,1042.62c-30.29,41.83-4.78,67.23,20.52,95a13.52,13.52,0,0,1,3.55,10.54q-3.49,42.09,30.17,64.78a22.87,22.87,0,0,0,35.61-18.19c.89-25.85-9.32-44.15-30.5-55.14-3.66-1.88-4.89-4.77-3.89-8.65q13-51.42-26.62-81.21"/><path class="cls-1" d="M276.47,1049.72a79.8,79.8,0,0,1,2.11-17.74c6-26.19-5-50.37-22.41-69.12-2.78-3-2.67-6.1.11-9.09q36.27-38.61.55-78.66c-2.22-2.55-2.44-5.21-.55-8q18.14-27,13-58.68c-4.77-30.29-29.95-38.38-56.47-29.51a7.46,7.46,0,0,0-5.43,6.77,147.75,147.75,0,0,0,6.32,63.9,14.25,14.25,0,0,1-2.33,13.86q-36.45,49.1,12.31,82.76a6.29,6.29,0,0,1,1.67,8.54q-31.29,49.43,22.3,87.86"/><path class="cls-1" d="M276.47,1049.72q25,45.6,14.09,81.21c-1.11,3.88-3.44,4.88-7.1,3.11q-50.43-24.3-35.83-91.42"/><path class="cls-1" d="M1541.69,1126c16.31-.42,29-21.5,28.28-47.12s-14.41-46.05-30.71-45.59-29,21.51-28.28,47.13,14.41,46,30.71,45.58m-51.25,10.89c-12.09,29.73-48,62.35,6.66,82.09a12.56,12.56,0,0,0,12.42-1.77q50.43-37.77,10-85.09a17.26,17.26,0,0,0-29.07,4.77"/><path class="cls-1" d="M1447.82,1301.18c15.78,2.81,32.19-15.27,36.63-40.4s-4.77-47.76-20.61-50.5-32.19,15.28-36.63,40.41,4.77,47.75,20.61,50.49"/><path class="cls-1" d="M384.64,1283.13c11.75-13.31,6.87-36.72-10.76-52.22s-41.39-17.44-53.15-4.12-6.88,36.71,10.75,52.22,41.39,17.44,53.16,4.12"/><path class="cls-1" d="M1377.84,1311.42q-28.62,15.81-10.2,44.38c6.43,9.76,16.64,15.53,26.95,15.31,8.66-.34,16.87-6.44,24.74-18.53q24.63-38.1-7.21-73.11a5.77,5.77,0,0,0-8.87.45l-17.42,24.4a23.3,23.3,0,0,1-8,7.1"/><path class="cls-1" d="M431.78,1364.56c-11.43,40,20.52,65.23,59.13,53.36,4.77-1.44,6,0,3.77,4.44-22.74,45,47.26,58.13,77.66,34.94a18.27,18.27,0,0,0,2.44-26.84q-22.47-24.8-56.14-24c-3.66.11-5.1-1.56-4.44-5.22,5.55-31.06-35.94-44.26-57.46-51q-5.49-1.66-5.66-7.32c-4.21-76.33-104.72-59.13-76.21-10.87q16.31,27.62,52.8,27.18c3.78-.11,5.11,1.66,4.11,5.32"/><path class="cls-1" d="M1358.34,1361.55c-11-12.19-34.86-8.41-53.27,8.21s-24.52,40.06-13.56,52.18,34.86,8.41,53.27-8.22,24.52-40.06,13.56-52.17m-162.21,106.18a6.42,6.42,0,0,0,2.11,9c47.59,28.29,111.6-8.43,74.55-66.23-2.11-3.44-5.11-4.22-8.77-2.55q-43.1,20.13-67.89,59.79M728.87,1702.14c38.38,12.31,52.36,6.21,41.93-18.08"/><path class="cls-1" d="M770.8,1684.06c.78-3.66,9-4,24.85-1a20.43,20.43,0,0,0,11.2-1.22c13.87-5.88,19.86-15.2,18-28.18a8.58,8.58,0,0,1,3.1-8.32l18.75-15.75a5.37,5.37,0,0,1,7,.11L867,1641.79a4.25,4.25,0,0,1-2,7.32c-24,4.77-37.71,18.75-41.26,42.16a7.24,7.24,0,0,0,4.88,8.1q34.77,12,62.9-7.66c4.55-3.22,8-2.22,10.2,2.78l2.44,5.43a11,11,0,0,0,9.43,6.55q44.26,2.49,66.57-35a6.69,6.69,0,0,1,12.42,4l-1.44,17.41a5.91,5.91,0,0,0,3.88,6q49.43,17.8,92.52-11.53a10.26,10.26,0,0,0,4.88-9.32V1673a11.66,11.66,0,0,1,10.1-11.76,11.8,11.8,0,0,1,12.87,8.55q10.32,38.1,52.25,37.94a4.31,4.31,0,0,1,4.32,3.77q11.65,84,82.87,59.24"/><path class="cls-1" d="M1254.81,1770.7c3.44-14.76,2.78-22.74-2.22-24.07"/><path class="cls-1" d="M1252.59,1746.63q-3.83-38.28-43.48-51.59a9.62,9.62,0,0,1-6.77-7.54q-11.82-54.09-68.78-42a3.48,3.48,0,0,1-3.33-5.77,166.24,166.24,0,0,0,16.75-21.63c20.42-31.51,52.14-48.15,23.3-92.08-1.89-2.77-1.22-5,1.78-6.43,17.41-8.32,24.4-20.08,21.07-35.06"/><path class="cls-1" d="M1193.13,1484.48c1.22-4.43-.77-10.65-6-18.52"/><path class="cls-1" d="M1187.14,1466q-29.61-12.32-56.69,9.32a7.86,7.86,0,0,1-9.76.77c-14.42-8.54-28.62-8.32-42.71.45a6.48,6.48,0,0,1-9.21-2.56l-2.55-5.1a11.59,11.59,0,0,0-9.65-6.32Q1012,1460.18,975,1484a9.38,9.38,0,0,0-4.32,6.77l-3.55,27.06a5,5,0,0,1-5,4.33,4.93,4.93,0,0,1-4.77-4.55c-2.1-25.18-15.64-34.05-40.82-26.51a8.86,8.86,0,0,1-8.88-2.33c-24.07-24.18-93.74-51-97.84,8.76a8.88,8.88,0,0,0,5.43,9.32l33.4,16.09a4,4,0,0,1-2,7.65l-27-2.1a7.57,7.57,0,0,1-6.65-5l-15-41.27a9.67,9.67,0,0,0-12.65-5.65c-19.19,7.43-31.06,21.07-35.83,40.82a4.48,4.48,0,0,1-8.1,1.44q-27.62-41.26-73.66-25.4c-4.77,1.55-6.88-.11-6.54-5.1l.55-6.22a9.73,9.73,0,0,0-4.66-9.43c-15.64-10.42-56.35-30.39-73.66-16.19-15.64,13-14.09,27.29,0,41.49q25.46,25.79,61.9,20.19a6.54,6.54,0,0,1,7.32,3.33q29.29,45.09,80.32,20.08,6.17-3,10.32-2.33c4.55.66,7.65,2.88,9.1,6.54s.11,5.77-3.78,6.32c-53,7.1-31.28,68.45,7.66,81,3.66,1.22,4.66,3.55,2.77,7l-1.55,2.77c-2.22,4-5.44,5.44-9.76,4.22l-20.42-5.77c-5-1.45-7.76.44-8.54,5.54q-4.15,31.29,10,55.25"/><path class="cls-1" d="M1187.14,1466a24.6,24.6,0,0,1-.44,5.32c-.67,4-2.77,5.11-6.44,3.33-26.51-13.2-54,15.2-66.45,35.28a11.81,11.81,0,0,0,2.44,15.31,12,12,0,0,0,15.54-.11,24.63,24.63,0,0,1,19.3-6.44,17.9,17.9,0,0,0,9.32-1.88c13.09-6.77,24-17.53,32.72-32.29m59.46,262.15q-40.26-53.6-65.23-32.73a14.47,14.47,0,0,0-3.43,17.86q19.63,36.95,70.88,38.94"/><path class="cls-1" d="M770.8,1684.06c-1.11,9.43-15.09,15.53-41.93,18.08"/><path class="cls-1" d="M684.59,1769.61c19.2,2.75,37.4-14.22,40.72-37.85s-9.53-44.93-28.71-47.62-37.4,14.23-40.72,37.86,9.53,44.93,28.71,47.61m-40.1,51.76c15.48-4.85,22.47-26.6,15.58-48.59s-25.06-35.92-40.53-31-22.47,26.6-15.57,48.59,25,35.92,40.52,31"/><path class="cls-1" d="M1393.48,1824.39a4.93,4.93,0,0,0-1.66,1.33l-11.2,12.43a6,6,0,0,0,6.54,9.65l84.09-30.4a6.13,6.13,0,0,0,3.44-8.1l-7.32-16.64a5.87,5.87,0,0,0-8.21-2.88l-65.68,34.61M453.41,2117.82q2.5-15.81,25.3-42.16a11.76,11.76,0,0,0-4.66-18.64c-13.54-5.21-25.19-.88-34.84,13q-32.28,45.93-18.52,100.51c4.43,17.42,27.73,20.75,36.83,5.22l44.15-75.44a4.27,4.27,0,0,1,5.32-1.78,4.42,4.42,0,0,1,2.44,5.11c-6.32,24.29-19,32.06-11.42,62.23a13.42,13.42,0,0,0,6,8.32c28.84,18.42,62.57-33.61,76.88-57.35,2.1-3.66,4.55-3.88,7.32-.67,5.43,6.55,10.87,13.32,16.08,20.3q16.82,22.47,34.17.34a414.09,414.09,0,0,1,32.95-37.17q6.5-6.48,7.66,2.67l3.1,24.85a12.49,12.49,0,0,0,6.21,9.31c27.29,15.87,53.7-23.18,72.33-45.81a4.84,4.84,0,0,1,7.88.55,56.59,56.59,0,0,0,35.17,26.07,10.49,10.49,0,0,0,10.65-3.33l42.49-49.81a3.27,3.27,0,0,1,5.76,2.22l-.66,28.07a18.14,18.14,0,0,0,28.07,15.53,181.65,181.65,0,0,0,55.24-56.58,5.39,5.39,0,0,1,9.54.89l7,17.31a12,12,0,0,0,3.44,4.66c34.39,28.51,69.11-14.2,87.2-40.72a5.71,5.71,0,0,1,9.43.11l8.54,13.43a19.72,19.72,0,0,0,6.65,6.54c31.4,19.42,48.26-24.29,61-43.71a2.89,2.89,0,0,1,5.32,1.33l2,26a21.61,21.61,0,0,0,34.06,15.87,186.46,186.46,0,0,0,54.58-60.46,4,4,0,0,1,7.21.22c36.72,74.22,91.19,13.2,122.14-22.19,3.33-3.77,5.66-3.22,7,1.56,18.64,67.22,69.45,19.41,90.74-10.21,3.55-5,7.33-5.21,11.43-.67q29.3,32.12,50.92,7c12.31-14.42,24.52-29.51,36.39-45.15a3.26,3.26,0,0,1,5.77,2.55l-4.55,27.52c-3,17.63,17.08,30.06,31.5,19.41a236.34,236.34,0,0,0,63.9-70.78,6.85,6.85,0,0,0-10.65-8.43l-36.61,34.72c-9.2,8.77-23.74-1.55-18.52-13.09l21.41-47.81a9.91,9.91,0,0,0-.33-9,36.62,36.62,0,0,1-3.22-26.29,6.73,6.73,0,0,0-5.44-8.32c-55.24-9.76-118.7,58.47-139.33,99-12.21,24-23,34.94-46.6,42.82-14,4.66-25-12.32-15.08-23.3a188.23,188.23,0,0,0,36.72-60.68c4.66-12.54-9.32-23.85-20.64-16.64-22.52,14.53-37.38,34.06-44.37,58.57-6.66,23.41-60,75.33-93.3,68a16.64,16.64,0,0,1-12.42-20.41q10.81-41.61,51-37.28a12.88,12.88,0,0,0,11.2-4.22q18.65-19.8,17.64-48.59a14.85,14.85,0,0,0-20.08-13.42q-62.57,23.46-88.86,83.65c-6.66,15.31-12.87,26.07-18.75,32.39a143.34,143.34,0,0,1-29.17,24.41,9.27,9.27,0,0,1-13.76-10.76q12.15-36.94,31.06-63.35c9.32-12.87,11-25.18,1.89-37.72a8.46,8.46,0,0,0-13.76-.22c-20.08,26.52-72.44,107.17-98.84,120.81-9.1,4.66-18.31-5.88-12.54-14.2l48.93-70.55a8.2,8.2,0,0,0-5.66-12.76c-57.36-8-55.36,67.34-82.21,97.07a200.26,200.26,0,0,1-29.73,26.51,20.78,20.78,0,0,1-24.62.22c-15.31-11.09-13.32-29.62-2.33-44,34.16-45.37,68.55-107.5,54.91-159.86a8,8,0,0,0-13.42-3.44q-75.72,78.21-83.76,187.15a13.41,13.41,0,0,1-4.55,9.21L908.47,2065c-9.1,8.21-23-1.66-18.08-12.87l19.19-44.26a18.24,18.24,0,0,0,1.33-10.87L906,1970.49a17.24,17.24,0,0,0-22.74-13.09q-87,31.29-125.47,109.72c-5.44,11.2-17.31,23-35.61,35.06-3.33,2.21-6.21,1.66-8.54-1.56-21.08-28.84,24.29-120,43-165.07,2.55-6.32,4.11-11.54,4.44-15.75,1.22-14.09-4.44-20.86-17-20.42a13.16,13.16,0,0,0-10.65,5.88,229.23,229.23,0,0,0-34.73,88.09,8,8,0,0,1-6.88,7c-83.42,15.53-95.73,80.2-144.77,127.35a8.1,8.1,0,0,1-13.53-7.43c5.88-30.51,51.92-69.78,18-94.63a6,6,0,0,0-8,.11,345.5,345.5,0,0,0-81.87,94.41q-12,20.29-8.32-2.33m-149.87,17.41A159.54,159.54,0,0,0,290,2196.8a19.74,19.74,0,0,0,29.29,17.64q40.27-22.29,60.68-64.12a5.4,5.4,0,0,0-1.77-6.88,5.28,5.28,0,0,0-7,.78l-22.52,24.63a5.84,5.84,0,0,1-10.1-3.44q-4-41.26,30.62-54.36a19.87,19.87,0,0,0,11.54-10.65l15-32.06A5.21,5.21,0,0,0,390,2061l-18.2,3.55a4,4,0,0,1-4.66-5.22l34.62-103.94a14.51,14.51,0,0,0-14.87-19.08c-8.32.66-16.53,5-24.41,12.86a1235.07,1235.07,0,0,0-121.8,141.56,38.73,38.73,0,0,1-28.4,16.31c-5.66.55-6.33-1.11-2.22-5a24.24,24.24,0,0,1,11.42-6,3.39,3.39,0,0,0,2.22-5,6.68,6.68,0,0,0-4.43-3.1q-3-.84-7.33,1-41.1,17.47-57,61.13c-2.1,5.66-.22,8.21,5.88,7.88l16.75-1.11a8.92,8.92,0,0,1,6.33,15.75,273.06,273.06,0,0,0-65.12,77.21,12.34,12.34,0,0,0,14.42,17.86c25.85-8.21,71.55-89.08,87.86-114.59a14.79,14.79,0,0,1,8.88-6.33L299,2129.91a3.87,3.87,0,0,1,4.55,5.32M1067.3,116.31c2.36-14-11.17-28-30.22-31.15s-36.42,5.63-38.72,19.61,11.17,28,30.22,31.15,36.42-5.63,38.72-19.61M1346.22,226c6.88-11.8.23-28.55-14.91-37.37s-33-6.49-39.88,5.35-.23,28.54,14.91,37.37,33,6.48,39.88-5.35"/><path class="cls-1" d="M678.83,350.5c-160,74.88-260.7,198.57-321.82,363.09-1.78,4.88-.11,7.43,5.1,7.76l38.5,2a15.88,15.88,0,0,0,14.75-7.21q92.52-132.45,241.84-52.25a4.5,4.5,0,0,0,6.44-5.1c-7.88-30.95-25.19-62.68-28.63-89.86Q620.7,453.12,735.41,408.29a13.76,13.76,0,0,0,8.77-13.86l-3.67-50.7c-.33-4-2.44-5.77-6.43-5.44-24.74,2.55-43.15,6.55-55.25,12.21m746.6,319.16C1367,509,1217.43,392,1059.34,336a6,6,0,0,0-8,5.44l-1.56,53.25a10,10,0,0,0,6.22,9.43q64.73,26.12,95.62,74.88c38.83,61.57,19.31,123.8-12.75,178.38a4.58,4.58,0,0,0,5.65,6.55c87.53-35.17,182.27-36.39,237.63,52.25a12.93,12.93,0,0,0,10.2,6.32l40.94,3.66a9.19,9.19,0,0,0,9.87-9.87c-1.22-16-13.75-35.83-17.75-46.59M621.7,1143.13c43.82,2.78,83.87,19.86,115.15-24.29,2.55-3.66,1.89-6.44-2.22-8.32q-30.95-14.14-17.75-45.82a3.84,3.84,0,0,0-6.21-4.21c-65.56,62-121.92,94.29-203.34,82.31-59.13-8.65-87.31-55.8-104.28-108.38-1.45-4.44-4.44-6.66-9.1-6.66H365.66a10.82,10.82,0,0,0-10.32,14.09c54.58,175.94,207.12,310.06,377.08,370.64a10.08,10.08,0,0,0,13.42-9.54l.33-178.06a8.61,8.61,0,0,0-9.1-8.54q-82.37,5.49-119.25-67.45c-2.11-4.1-.78-6.1,3.88-5.77"/><path class="cls-1" d="M199.76,479.37c11.81,6.8,28.78-.63,38-16.61s7.18-34.39-4.63-41.23-28.79.63-38,16.6-7.18,34.39,4.64,41.24m1464,174.43c13-4.33,18.45-23.19,12-42.1s-22-30.57-35-26.24-18.46,23.18-12,42.09,22,30.57,35,26.25"/><path class="cls-1" d="M893.83,819.2l-1.33-6.66c-.56-2.77-2.22-3.66-4.77-2.44s-3.89,3.11-4,5.44c-1.33,37.16-28.18,70.78-2.22,109.94a10.71,10.71,0,0,1,1.89,6.1l.67,95.4a8.7,8.7,0,0,0,2.33,6.1c12.75,13.65,21.18,12.65,25.29-3.21"/><path class="cls-1" d="M911.69,1029.87q-6.5-71.38,12.53-136.45a19.06,19.06,0,0,0,.23-9.66L902.7,796.35c-1.11-4.66-2.22-4.66-3.44,0l-5.43,22.85"/><path class="cls-1" d="M911.69,1029.87q-7.49,5.16-15.31,2.66a8.11,8.11,0,0,1-5.44-8.54,323.34,323.34,0,0,0-13.09-132.46,18.15,18.15,0,0,1-.33-10.32l16.31-62"/><path class="cls-1" d="M611.89,907.44c8.48-4.15,11.59-15,7-24.2s-15.07-13.12-23.56-9-11.59,15-7,24.2,15.07,13.12,23.56,9m605.87-12.69a17.86,17.86,0,1,0-17.86,17.86,17.85,17.85,0,0,0,17.86-17.86m-374,180.16-11.87,1.88c-5.77.89-6.33,3.11-1.67,6.55a20.83,20.83,0,0,1,5.44,5.43"/><path class="cls-1" d="M835.7,1088.77q65.4,30.8,136.23,3.55c2.33-.88,2.22-2.66-.11-5.32"/><path class="cls-1" d="M971.82,1087c3.43-3.11,3.66-6.55.66-10.43"/><path class="cls-1" d="M972.48,1076.57A5.53,5.53,0,0,0,975,1072a3.85,3.85,0,0,0-3.1-4,318.53,318.53,0,0,0-130.35.67,2.41,2.41,0,0,0-1.11,4.21,16.71,16.71,0,0,0,3.33,2"/><path class="cls-1" d="M972.48,1076.57a431.25,431.25,0,0,0-128.68-1.66m128,12.09q-64.58,10.15-136.12,1.77"/><path class="cls-1" d="M891.5,1173.31c3.66,12.42,21.3,12.31,24.85-.11l9.76-33.73a13.27,13.27,0,0,0-2.66-12.09l-8.54-9.87a13.09,13.09,0,0,0-15.42-3.33l-12.43,5.88a13,13,0,0,0-6.88,15.42l11.32,37.83"/><path class="cls-1" d="M908.36,1173.2l9.87-39.72a6.87,6.87,0,0,0-7.43-8.54l-14.42,1.66a8.23,8.23,0,0,0-7.1,10.21l9.43,36.5a5,5,0,0,0,9.65-.11"/><path class="cls-1" d="M1450.13,1290.2c10.47,1.81,21.45-11.84,24.62-30.49s-2.72-35.15-13.22-36.89-21.45,11.84-24.62,30.49,2.72,35.15,13.22,36.89m-37.23,48.51a9.7,9.7,0,0,0,3-6.21l2.44-24.07c1-9.54-10.87-14.87-17.3-7.66l-26.41,29.4a10,10,0,0,0-1.88,10.32l5.21,13a10,10,0,0,0,16.2,3.44l18.75-18.2m-63.38,31c-6.51-7.51-22.71-4-36.21,7.81s-19.11,27.39-12.54,34.86,22.71,4,36.22-7.81,19.11-27.39,12.53-34.86m-85,46.63-58.69,44.26a1.12,1.12,0,0,0-.22,1.67h0a37.76,37.76,0,0,0,52.69,7.43l.56-.44a37.66,37.66,0,0,0,7.32-52.7h0a1.11,1.11,0,0,0-1.66-.22"/><path class="cls-1" d="M640.56,1508l7.77-17a5.43,5.43,0,0,0-2.67-7.32l-10.42-4.77c-21.64-10-41.72-12.54-44.93-5.66l-1,2.22c-3.11,6.76,11.87,20.41,33.5,30.39l10.43,4.77a5.42,5.42,0,0,0,7.32-2.66m253.11-12.31c1.27-10.32-14.15-20.75-34.41-23.16s-37.65,4-38.94,14.28,14.16,20.75,34.41,23.16,37.66-4,38.94-14.28m132.62.55c6.76-1.44,11-5.43,12.86-11.87a7.86,7.86,0,0,0-9.31-9.87L988.57,1484a16.56,16.56,0,0,0-12.65,17.64,16.38,16.38,0,0,0,15.86,14.75q19.82.67,27.29-14.64a9.8,9.8,0,0,1,7.22-5.55"/><path class="cls-1" d="M1005.21,1589.1c5.88-9.1,13.09-13.87,21.74-14.2,4.33-.11,5.88-2.33,4.66-6.44q-7.81-28,12.31-48.26a8.26,8.26,0,0,0-11-12.31l-20.85,16.64a6.5,6.5,0,0,0,.55,10.54c21.85,14.09,7.1,42.93-12.31,48.15-14.76,4-33.28,15.31-45.82-3.11a10.74,10.74,0,0,1-.67-10.65l14.2-27.29c1.89-3.55,1.22-6.66-1.88-9.21l-4.22-3.44a.87.87,0,0,0-1.33.45c-8.1,28.84-49.37,60.79-80.09,42.71a13.38,13.38,0,0,0-11.1-1.11,121.59,121.59,0,0,1-59.24,4,10.72,10.72,0,0,1-7.54-5.54c-5.44-10-13.76-12.76-25.18-8.44-3.89,1.45-5.44,4.22-4.77,8.32l4.43,26.3a12.86,12.86,0,0,0,21,7.65q26.29-22.12,46.93,2c1.88,2.1,3.66,2.1,5.32-.22q29.46-39.78,80.21-12.21c4.44,2.44,7.65,8.21,9.76,17.42a9.65,9.65,0,0,0,6.55,7.1q38.43,12.48,52.58-18.19a97.81,97.81,0,0,1,5.77-10.65m-114.11-38c6.94-.42,12-9.07,11.47-19.42s-6.63-18.38-13.56-18-12,9.07-11.47,19.42,6.64,18.38,13.56,18m219.5,19.66,11.09-18.08c1.78-2.89,1.33-5.33-1.44-7.43l-24-18.2c-2.78-2.1-6.77.45-5.88,3.77,5.21,20.75-2.11,33.29-22.19,37.5-3.44.67-4.33,2.55-2.77,5.77q14.47,28.29,43.7,24.18a6,6,0,0,0,4.66-8.32l-3.88-9.09a10.27,10.27,0,0,1,.67-10.1"/><path class="cls-1" d="M868.87,1631.36l60.79-6.65a4.72,4.72,0,0,0,4.22-5.11l-.12-.66c-1.55-14-14.75-24.08-29.62-22.41l-16.41,1.77c-14.87,1.56-25.63,14.31-24.08,28.29v.67a4.81,4.81,0,0,0,5.22,4.1m256.26-20c-21.41-4.1-37.28,2.22-47.7,18.75a15,15,0,0,0,13.2,22.86c21.85-.78,34.83-12.43,39.16-34.84.66-3.77-.89-6-4.66-6.77"/><path class="cls-1" d="M1030.28,1650.89c9.43-3,19.41-4.44,26.62-9.32a10.27,10.27,0,0,0-10.65-17.53,93.15,93.15,0,0,0-26.18,20.64c-3.88,4.54-2.88,6.87,3,7.1a22,22,0,0,0,7.21-.89"/><path class="cls-1" d="M926.44,1632.58,901,1643.45a6,6,0,0,0-3.55,7,6.23,6.23,0,0,0,6.43,4.66c11.87-1,21.41-5.88,28.4-14.64a5.07,5.07,0,0,0-5.88-7.88m-114.65,25.58a7,7,0,0,0-5-8.7l-30.84-8.32a7.1,7.1,0,0,0-8.71,5l-2.37,8.79a7,7,0,0,0,5,8.7l30.85,8.32a7.08,7.08,0,0,0,8.7-5l2.37-8.79m376.2,31c3.92-9.19-6.06-22.28-22.35-29.25s-32.63-5.23-36.59,4,6.06,22.29,22.35,29.25,32.64,5.24,36.59-4"/><path class="cls-1" d="M685.62,1760.48c14,2.34,27.83-10.08,30.79-27.76s-6-34-19.95-36.34-27.83,10.09-30.8,27.76,6,34,20,36.34m-75.68,10.44L626,1807a7.88,7.88,0,0,0,10.43,4l1.44-.67c13.75-6.1,20.3-21.63,14.42-34.61l-1.44-3.44c-5.88-13-21.75-18.52-35.61-12.31l-1.33.55a8,8,0,0,0-4,10.43"/><path class="cls-1" d="M1565.66,1869.54c-30.07,15.31-59.58,37.39-75.88,69.34a11.9,11.9,0,0,0,19.08,13.75,466.21,466.21,0,0,0,61.79-77.54c5.1-8,3.44-9.87-5-5.55m-579.15,98c3.17,1.4,13.48-15.46,23-37.72s14.6-41.31,11.33-42.68-13.48,15.46-23,37.72-14.6,41.31-11.33,42.68m-113.43,40.34a3.5,3.5,0,0,0-4.21-5.33q-48.93,22.31-77.55,66.68a13.42,13.42,0,0,0,21.86,15.53l59.9-76.88M617.57,2109.31c4.91,4.29,22.88-8.13,40.13-27.83s27.24-39.1,22.27-43.46-22.88,8.13-40.13,27.83-27.24,39.1-22.27,43.46M353.46,1994.23a2.3,2.3,0,0,0-1-2.88,2.41,2.41,0,0,0-3,.56l-75.76,90.63a3.44,3.44,0,0,0,3.54,5.55l39.17-10.54a11.65,11.65,0,0,0,8.54-7.77l28.51-75.55"/><path class="cls-2" d="M840.47,42.87c-72.22,25.4,1.77,107.94,75.77,62,5-3.1,7.43-1.77,7.32,4.11l-.45,29c-.11,4.55-2.32,7.55-6.65,8.88-52.7,16-142.44,11.09-163.52-51.26q-12.81-37.77,22.85-65.89Q835.7-17.76,921.34,10.59A6.79,6.79,0,0,1,926,17l.44,29.84a4.14,4.14,0,0,1-6.21,3.66q-38.1-22.12-79.76-7.65Z"/><path class="cls-2" d="M1039.93,159c-44,11.43-99.07-5.88-94.18-60.24,4.88-54.58,78.65-52.58,115.37-29.06a6.46,6.46,0,0,0,2.33.77l52.8,3A9.14,9.14,0,0,1,1124.57,85l-23.74,86.2q-1.49,5.84-7.32,4L1043,159.13a6,6,0,0,0-3.11-.11m27.37-42.71c2.36-14-11.17-28-30.22-31.15s-36.42,5.63-38.72,19.61,11.17,28,30.22,31.15,36.42-5.63,38.72-19.61Z"/><path class="cls-2" d="M1176.83,85.69l6-15.42c1.77-4.55,5-6,9.65-4.55L1231.07,78A8.88,8.88,0,0,1,1237,89l-5.21,17.86a7.18,7.18,0,0,0,5.55,9.1l5.76,1.22a6.78,6.78,0,0,1,5.33,8c-2.55,13.21-10.65,17.31-24.07,12.1a7.78,7.78,0,0,0-10,4.32l-23.63,58c-1.44,3.55-3.88,4.66-7.54,3.33l-35.06-13.31a7.46,7.46,0,0,1-4.32-9.65l20.85-55a6.36,6.36,0,0,0-3.77-8.21c-12.76-4.88-16.75-13.64-11.87-26.29a6.76,6.76,0,0,1,7.54-4.33L1171,88.91a5.19,5.19,0,0,0,5.88-3.22Z"/><path class="cls-2" d="M594.63,168.89c-14.86.78-31.17,2.55-48.92,5.11-29.62,4.21-48.7-20.64-24.74-42.16q39.78-35.45,95-34.5a7.23,7.23,0,0,1,7,5.55c1.56,6.32.22,11.53-3.88,15.64-6.77,6.65-45.37,8.87-59.57,16.53a4.19,4.19,0,0,0,2.33,7.87c20-1.77,99.17-16.86,86.53,26.52C638,205.28,577.22,216.48,545,223.7c-4.32,1-7-.78-8-5.11l-3.11-14a6.51,6.51,0,0,1,5-7.87l57.69-12.65a7.71,7.71,0,0,0,6-8.54,7.57,7.57,0,0,0-8-6.66Z"/><path class="cls-2" d="M1404.47,150.59l-55.25,2.22A3.37,3.37,0,0,1,1347,152l-14.31-9.87a3.79,3.79,0,0,1,1.22-6.77l36.83-9.43a4.11,4.11,0,0,1,2.78.33l32.61,17.2a3.77,3.77,0,0,1-1.66,7.1Z"/><path class="cls-2" d="M410,178.1,398.5,164a5.07,5.07,0,0,1,1.44-7.65L442.21,132a5,5,0,0,1,6.88,1.78l11.09,18.19a5.09,5.09,0,0,0,7,1.77l12.31-7.43a5.11,5.11,0,0,1,7.1,1.78l7,12.2a5.21,5.21,0,0,1-1,6.32l-14.09,12.76a5.08,5.08,0,0,0-.88,6.43l33.83,54.47a5.11,5.11,0,0,1-1.77,7.1l-35.39,20.19a5.15,5.15,0,0,1-6.88-1.66l-35.06-55a5.07,5.07,0,0,0-6.1-2l-17,6.32a5.21,5.21,0,0,1-6-1.77l-6.77-9.21a5.22,5.22,0,0,1,.56-6.66l12.64-12.64a4.86,4.86,0,0,0,.34-6.77Z"/><path class="cls-2" d="M1392.64,250.6c-14.47,26.57-59.51,30-100.63,7.72s-62.82-62-48.34-88.6,59.51-30,100.64-7.72,62.82,62,48.33,88.6M1346.22,226c6.88-11.8.23-28.55-14.91-37.37s-33-6.49-39.88,5.35-.23,28.54,14.91,37.37,33,6.48,39.88-5.35Z"/><path class="cls-2" d="M1383.28,311l96-115.59a3.75,3.75,0,0,1,5.43-.45l41.16,34.5a3.83,3.83,0,0,1,.33,5.66l-104.05,109.5a3.94,3.94,0,0,1-5.33.22l-33.06-28.51a3.84,3.84,0,0,1-.44-5.33Z"/><path class="cls-3" d="M1510.19,606.54c32.28,2.88,74.1,51.69,40.38,75.88-3.22,2.33-3.22,4.54.11,6.87q44.43,30.47,24.41,84.87a10.4,10.4,0,0,0,1.33,10.43c16.08,22.85,29.84,54.8,5.66,77.65-3,2.78-3,5.66,0,8.54q45.75,44.78-4.89,85.87c-3,2.44-3.1,5-.33,7.77,20.64,20.07,23.08,42.59,7.21,67.33a18.41,18.41,0,0,1-29.73,1.78q-32.77-39.94-2.88-81.87c2.1-3,1.88-5.77-.45-8.43-16.75-18.86-27.07-73.44,10-76.88a4,4,0,0,0,1.55-7.44q-54.24-28.95-22-83.53c1.89-3.22,1.34-5.88-1.88-7.77-26.4-15.75-32.51-42.48-15.53-69.11a30.83,30.83,0,0,0,3.66-8.32c1.11-4.21-.33-7.1-4.44-8.65q-49.76-18.81-35.83-70.34c1-3.77-.22-6.43-3.77-8q-45.76-19.8-55.14-69.34a9.94,9.94,0,0,0-6.54-7.87c-28.29-11.21-42.16-32.18-41.83-62.9q0-4.5-4.32-5.33-50.76-9-59.91-60c-.66-3.44-2.77-5.21-6.21-5.21-29.62.22-48.37-14.53-56-44.15a9.93,9.93,0,0,0-9-7.32c-34.83-2.11-66.12,2.66-77-39.5-1-3.77-3.33-5.21-7.21-4.32-29.4,7.1-52.92-1-70.33-24.41-2.22-3-5.11-3.77-8.54-2.55q-44.1,16.31-73.44-18.86-3.84-4.67-9-1.33-42.6,28-73.88-8.32c-3-3.44-6-3.44-9-.11q-36.11,39.77-80.43,6.87-4.49-3.31-8.65.34c-23.19,19.86-49.81,26.4-79.65,19.63a11.09,11.09,0,0,1-5.33-2.77,20,20,0,0,1-2.11-2.11q-2.32-2.82-4.66,0-34.77,41.44-90.41,32.73a8.18,8.18,0,0,0-8.76,4.88C622,333.41,598,348.83,563,347.5a6.74,6.74,0,0,0-6.88,4.33q-24.3,55.08-79.65,35.83a17.48,17.48,0,0,1-9.43-25.07q23.79-42.27,71.88-45,6-.35,7.66-6l8.32-26.74a10.15,10.15,0,0,1,8.65-7.1l59.8-6.43a11.26,11.26,0,0,0,9.87-7.1q23.13-51.25,84.31-31.18a9.37,9.37,0,0,1,4.77,3.78l6.1,10.2c2.55,4.11,5,4,7.32-.11q34.78-59.24,98.07-26.29c3.44,1.66,6.32,1.11,8.88-1.67,19-21.85,42.71-28.28,71.44-19.41a13.91,13.91,0,0,1,9.21,8.54l2.44,6.33c2.22,5.65,5.66,6.65,10.43,2.77q42.09-34.44,85.53.44a8,8,0,0,0,9.32,1c19.41-9.65,70.88-13,70.88,17.64,0,4.55,2.22,6.32,6.77,5.1,28.73-7.32,69.78-.55,72.66,34.84.23,3.44,2,4.77,5.33,4,32-6.77,55.91,3.66,71.77,31.51a10,10,0,0,0,9.21,5.32q59.25.67,67.45,60.68c.56,4.22,3,6.33,7.21,6.33q42.11.33,62.24,37.38a7.75,7.75,0,0,1,.33,6.66l-3.88,9.21c-1.44,3.55-.34,5.54,3.55,6,34.05,4.1,71.11,38.38,61.68,75.43-1,3.89.33,6.55,3.88,8.21q36.27,16.32,55.25,52,2.82,5.16-1.33,9.32l-15,15.42c-1.55,1.67-1.22,2.66,1.11,2.89Z"/><path class="cls-2" d="M371.76,295.58,332.6,251.1c-3.33-3.78-3-7.21,1-10.21l33.28-25.18c3.11-2.33,6.1-2.22,8.88.55a189.14,189.14,0,0,1,42.71,62.9,14.22,14.22,0,0,1,.11,10.87q-21.79,52.76-73.44,77.66c-38.72,18.75-67.23-17.31-92.3-41.27-3.44-3.33-3.44-6.65,0-10.09l30.4-29.73a6.51,6.51,0,0,1,9.31.22l38.83,41a10.42,10.42,0,0,0,10.21,3.33c14.64-2.55,25.18-10.76,31.73-24.51a10.17,10.17,0,0,0-1.56-11.1Z"/><path class="cls-2" d="M1587.93,329.67c-8.3,7.07-24.94,1.08-37.13-13.36s-15.32-31.82-7-38.84,24.94-1.08,37.14,13.35,15.31,31.83,7,38.85Z"/><path class="cls-2" d="M1556.46,341a6.21,6.21,0,0,1-.54,8.77l-68.46,60.57a6.15,6.15,0,0,1-8.77-.54l-28.52-32.24a6.21,6.21,0,0,1,.53-8.77l68.46-60.57a6.15,6.15,0,0,1,8.77.54L1556.46,341Z"/><path class="cls-4" d="M997,1155.67l55.69,56.91-4.33,186a17.42,17.42,0,0,0,22.74,17c177.39-57.13,309.85-208.45,370.09-380.84,1.55-4.33,0-6.77-4.55-7.32l-22.3-2.33c-4.22-.45-6.77,1.33-7.77,5.43q-25.78,105-115.48,110.61c-79.54,5.1-163.52-55.58-220.43-112.05-5.66-8.1-4.44-18.19,3.66-30.17q35.78-52.75,94.41-26a13.92,13.92,0,0,1,7.1,7.54,105.4,105.4,0,0,1,5.88,60,5.78,5.78,0,0,0,6.21,6.76q69.06-6.15,96.74-59.57c29.06-56.46-6.55-175.39-78.77-182.49-141.89-14-189.37,106.17-209.34,222a3.82,3.82,0,0,1-.44,1,7,7,0,0,1-1.77,2.11c-.23.11-.34.11-.23-.11.23-3-.33-4.44-1.77-4.33,7.54-103.17,72.44-239.29,190.7-232.52,76.1,4.44,120,59.35,123,133.35,3.44,87.19-64.35,125.69-141,137.67a5.08,5.08,0,0,1-5.22-7.43c53.58-97.63-58.9-115-83.64-43.38a7.42,7.42,0,0,0,1.88,8.1c67.78,67.56,205.57,171.06,292.65,70.55,55.8-64.34,10-137.34-46.92-183.82-3.33-2.66-3.33-5.32-.12-8,9.43-7.77,18.75-15.42,28.07-23q71.38-57.41,26.52-139.22c-61.35-112.05-164.86-106.39-265.59-45.49-10.76,6.55-12.31,4.77-4.88-5.21,33-43.71,65.57-110.94,51.48-165.3-26.29-101.5-192.37-170.84-247.94-52a9.68,9.68,0,0,1-16.87,1.1Q831.27,373.62,721,424.6c-116.48,53.8-80.1,178-28.51,262.14a3.56,3.56,0,0,1-5.1,4.77c-71.56-49.36-171.07-76.65-236.63.22-49.26,57.8-75.77,129.69-6.21,184.16q14.64,11.48,31.28,24.29a4.21,4.21,0,0,1-.67,7.1c-119.14,58.36-60.57,230,66.46,224.54q117-5,183.15-108.94,5.32-8.32,0-16.64Q695.14,959.82,652,975.18c-43.93,15.53-19.08,57.9-6.1,83.2a3.76,3.76,0,0,1-3.67,5.43c-85.64-6.43-159.63-58.79-143.88-153.2,12.2-73.22,57.24-120.7,134.57-117.15,114.59,5.11,172.72,134.57,177.49,238-.66,1.22-2.1,1.89-4.21,2.22a4.8,4.8,0,0,1-5.33-4.33Q792,933,739.52,863q-38.44-51.25-100.4-58.13-40.93-4.5-72.89,11.31-37.77,19-50.47,60.8-39.61,131.29,90.85,172.61a13.41,13.41,0,0,0,16.42-18c-11.42-27.18.34-54.69,28.29-65q40.44-15,70,18.2c13.87,15.53,16.2,37.49,33.39,55.24a6.67,6.67,0,0,1-2.21,10.76q-21.81,9.17-26.63,33a10.89,10.89,0,0,0,8.65,12.87c10.65,2.11,15.87,7.54,15.76,16.42-.45,36.16-63.24,51.81-91.08,50.14-5.77-.33-7,1.78-3.55,6.44q19.8,27.61,50.81,34.94c14.86,3.55,31.72-6.43,46.59,9.1l.55,209.67c0,4.32-2.1,5.88-6.21,4.55-187-59.91-357.88-207.23-404.25-404.48A6,6,0,0,1,349,1016l48.26.33a5.21,5.21,0,0,0,5.21-5.21q-.5-71.05,60.79-105.39a3.86,3.86,0,0,0,0-6.77Q366.61,845.55,406,739.33q2.5-6.83-4.66-6.66l-55.47,1.11a5.26,5.26,0,0,1-5.1-6.88c62.68-192.47,203.68-354.77,403-407.58a8.24,8.24,0,0,1,10.32,8l-.11,66.45c0,5,2.44,7.1,7.32,6.43q83.7-10.81,133.12,55.25c5.22,6.88,10.21,6.77,15.09-.22q46.76-67.73,130-54.14c3,.56,4.44-.77,4.32-3.77l-1.11-70.11c-.11-5.66,2.67-7.66,8.1-6,191,61.23,343.46,198.24,403.48,393.38,4.32,14-.89,20.74-15.53,20.3L1392,733.56c-3.1-.11-4.1,1.33-2.88,4.21q45.09,106-52.92,160.31a5.71,5.71,0,0,0-.66,9.54q52.58,40.1,66.67,104.28a8.72,8.72,0,0,0,9,6.76l36.5-2.1a5.89,5.89,0,0,1,6,7.65c-57.68,179.72-207.12,361.54-400.37,403.36a7.67,7.67,0,0,1-9.31-7.65l1.22-202.79a10.34,10.34,0,0,0-5.11-9.1c-22.07-12.76-36.38-30.17-43.15-52.36M678.83,350.5c-160,74.88-260.7,198.57-321.82,363.09-1.78,4.88-.11,7.43,5.1,7.76l38.5,2a15.88,15.88,0,0,0,14.75-7.21q92.52-132.45,241.84-52.25a4.5,4.5,0,0,0,6.44-5.1c-7.88-30.95-25.19-62.68-28.63-89.86Q620.7,453.12,735.41,408.29a13.76,13.76,0,0,0,8.77-13.86l-3.67-50.7c-.33-4-2.44-5.77-6.43-5.44-24.74,2.55-43.15,6.55-55.25,12.21m746.6,319.16C1367,509,1217.43,392,1059.34,336a6,6,0,0,0-8,5.44l-1.56,53.25a10,10,0,0,0,6.22,9.43q64.73,26.12,95.62,74.88c38.83,61.57,19.31,123.8-12.75,178.38a4.58,4.58,0,0,0,5.65,6.55c87.53-35.17,182.27-36.39,237.63,52.25a12.93,12.93,0,0,0,10.2,6.32l40.94,3.66a9.19,9.19,0,0,0,9.87-9.87c-1.22-16-13.75-35.83-17.75-46.59M621.7,1143.13c43.82,2.78,83.87,19.86,115.15-24.29,2.55-3.66,1.89-6.44-2.22-8.32q-30.95-14.14-17.75-45.82a3.84,3.84,0,0,0-6.21-4.21c-65.56,62-121.92,94.29-203.34,82.31-59.13-8.65-87.31-55.8-104.28-108.38-1.45-4.44-4.44-6.66-9.1-6.66H365.66a10.82,10.82,0,0,0-10.32,14.09c54.58,175.94,207.12,310.06,377.08,370.64a10.08,10.08,0,0,0,13.42-9.54l.33-178.06a8.61,8.61,0,0,0-9.1-8.54q-82.37,5.49-119.25-67.45c-2.11-4.1-.78-6.1,3.88-5.77Z"/><path class="cls-5" d="M357,713.59C418.13,549.07,518.86,425.38,678.83,350.5c12.1-5.66,30.51-9.66,55.25-12.21,4-.33,6.1,1.44,6.43,5.44l3.67,50.7a13.76,13.76,0,0,1-8.77,13.86Q620.77,453.05,635,568.93c3.44,27.18,20.75,58.91,28.63,89.86a4.5,4.5,0,0,1-6.44,5.1q-149.26-80.21-241.84,52.25a15.88,15.88,0,0,1-14.75,7.21l-38.5-2c-5.21-.33-6.88-2.88-5.1-7.76Z"/><path class="cls-5" d="M1425.43,669.66c4,10.76,16.53,30.62,17.75,46.59a9.19,9.19,0,0,1-9.87,9.87l-40.94-3.66a12.93,12.93,0,0,1-10.2-6.32c-55.36-88.64-150.1-87.42-237.63-52.25a4.58,4.58,0,0,1-5.65-6.55c32.06-54.58,51.58-116.81,12.75-178.38q-30.78-48.76-95.62-74.88a10,10,0,0,1-6.22-9.43l1.56-53.25a6,6,0,0,1,8-5.44C1217.43,392,1367,509,1425.43,669.66Z"/><path class="cls-2" d="M170.28,526.59c-26.05-16-26.38-62.83-.64-104.59s67.56-62.63,93.65-46.59,26.38,62.84.64,104.6-67.56,62.63-93.65,46.58m29.48-47.22c11.81,6.8,28.78-.63,38-16.61s7.18-34.39-4.63-41.23-28.79.63-38,16.6-7.18,34.39,4.64,41.24Z"/><path class="cls-3" d="M412.81,458.31c-15.53-10.63-16.86-35.6-3-55.77s37.61-27.86,53.14-17.19,16.86,35.59,3,55.77S428.34,469,412.81,458.31Z"/><path class="cls-2" d="M1566.43,454.77q-10,36.12,20.53,57.47c4,2.77,4,5.55-.11,8.21l-15.65,10.43a6.68,6.68,0,0,1-8.1-.56q-46.26-40.77-40.6-92,4.34-40.11,39.16-41.83c45.15-2.1,78.43,45.49,86.87,85.65a7.36,7.36,0,0,1-4.44,8.43l-17.64,7a4.24,4.24,0,0,1-5.88-3.78c-1.22-26.51-14.31-42.48-39.49-47.92a12.59,12.59,0,0,0-14.65,8.87Z"/><path class="cls-6" d="M992.34,1025.87c-5.1,12.21-10,15.76-14.76,10.54q-4-59.4,13.87-94.4c58.58-114.71,138.78-218.1-5.77-309.18a248.49,248.49,0,0,1-80.87-82.32c-1.55-2.55-3.11-2.55-4.77-.11a317.77,317.77,0,0,1-92,88.86C755.16,673,727.87,718,736.74,781q3.82,27,39,92.74a1058.36,1058.36,0,0,1,47.15,100.51l-2.11,58.24c-.11,4.44-2.22,5.66-6.1,3.55a12.84,12.84,0,0,1-4.33-4.66c-4.77-103.39-62.9-232.85-177.49-238-77.33-3.55-122.37,43.93-134.57,117.15-15.75,94.41,58.24,146.77,143.88,153.2a3.76,3.76,0,0,0,3.67-5.43c-13-25.3-37.83-67.67,6.1-83.2q43.1-15.31,72.77,31.06,5.32,8.31,0,16.64-66.06,104-183.15,108.94c-127,5.43-185.6-166.18-66.46-224.54a4.21,4.21,0,0,0,.67-7.1q-16.63-12.81-31.28-24.29c-69.56-54.47-43.05-126.36,6.21-184.16,65.56-76.87,165.07-49.58,236.63-.22a3.56,3.56,0,0,0,5.1-4.77c-51.59-84.09-88-208.34,28.51-262.14q110.32-50.93,173.5,46.7a9.68,9.68,0,0,0,16.87-1.1c55.57-118.82,221.65-49.48,247.94,52,14.09,54.36-18.53,121.59-51.48,165.3-7.43,10-5.88,11.76,4.88,5.21,100.73-60.9,204.24-66.56,265.59,45.49q44.76,81.71-26.52,139.22c-9.32,7.55-18.64,15.2-28.07,23-3.21,2.66-3.21,5.32.12,8,56.91,46.48,102.72,119.48,46.92,183.82-87.08,100.51-224.87-3-292.65-70.55a7.42,7.42,0,0,1-1.88-8.1c24.74-71.66,137.22-54.25,83.64,43.38a5.08,5.08,0,0,0,5.22,7.43c76.65-12,144.44-50.48,141-137.67-3-74-46.93-128.91-123-133.35-118.26-6.77-183.16,129.35-190.7,232.52Z"/><path class="cls-3" d="M351.89,532.18c-16.4-6.52-22.39-30.15-13.36-52.83s29.57-35.78,46-29.21S406.93,480.29,397.9,503s-29.58,35.77-46,29.2Z"/><path class="cls-3" d="M307.2,618.07c9.43,29.84,2.11,53.7-22.19,71.45-3.33,2.44-4.44,5.65-3.22,9.54,7,22.52,4.77,44-6.65,64.34a12.76,12.76,0,0,1-8.54,6.32c-61.46,12.76-64.9-66.89-18.31-88a8,8,0,0,0,4.33-9.87q-17.15-50.6,27.18-75.55a9.86,9.86,0,0,0,5.43-9.32c.11-16.42-2.88-35.72,5.33-49,9.87-15.87,29.06-22.63,45.48-10.43,19,14.31,22.52,35.5,10.87,63.79-6.1,14.75-17.75,21.63-34.83,20.52-4.66-.33-6.32,1.78-4.88,6.21Z"/><path class="cls-2" d="M1680.72,712.69c-29,9-65.25-24.62-81.07-75.26s-5-98.9,24-108,65.26,24.61,81.07,75.26,5,98.89-24,108M1663.8,653.8c13-4.33,18.45-23.19,12-42.1s-22-30.57-35-26.24-18.46,23.18-12,42.09,22,30.57,35,26.25Z"/><path class="cls-2" d="M126.59,613.3c32.18,25,51.37-22,48.26-46.7a4.18,4.18,0,0,1,4.33-4.66c61.23,2-2.55,102.28-31.73,113.49-28.4,11-52.58-8.21-58-37.06Q78.29,579,118.61,533.1a4.06,4.06,0,0,1,4.88-1.11l13.64,5.65A8.17,8.17,0,0,1,140,550.73c-13.87,15.09-20.08,32.84-18.42,53.25a13.27,13.27,0,0,0,5,9.32Z"/><path class="cls-7" d="M977.58,1036.41q1.5,4.5-1.33,6.33c-3,1.88-4.55,1.11-4.88-2.33-6.88-85.87,29.18-134.9,62.79-202.46C1059,788,1066,745.43,1040.49,698.17c-28.85-53.47-103.06-69.34-130.58-127.91a8,8,0,0,0-14.75.78c-12.2,33.72-67.89,65.23-96,87.52Q737,707.82,746.39,779.82q3,23.46,28.85,70.22,33.45,60.74,47.7,124.25a1058.36,1058.36,0,0,0-47.15-100.51q-35.28-65.73-39-92.74c-8.87-63,18.42-108,71.33-141.78a317.77,317.77,0,0,0,92-88.86c1.66-2.44,3.22-2.44,4.77.11a248.49,248.49,0,0,0,80.87,82.32C1130.23,723.91,1050,827.3,991.45,942q-17.81,34.93-13.87,94.4Z"/><path class="cls-8" d="M977.58,1036.41c4.77,5.22,9.66,1.67,14.76-10.54,1.44-.11,2,1.33,1.77,4.33-.11.22,0,.22.23.11a7,7,0,0,0,1.77-2.11,3.82,3.82,0,0,0,.44-1c20-115.81,67.45-236,209.34-222,72.22,7.1,107.83,126,78.77,182.49q-27.63,53.41-96.74,59.57a5.78,5.78,0,0,1-6.21-6.76,105.4,105.4,0,0,0-5.88-60,13.92,13.92,0,0,0-7.1-7.54q-58.57-26.79-94.41,26c-8.1,12-9.32,22.07-3.66,30.17a6.18,6.18,0,0,1-6.32.89c-11.21,15.2-7.77,29.17,10.42,41.71a12.14,12.14,0,0,1,5.11,10.32c-.45,8.54-4.44,14.53-12.09,18a18.74,18.74,0,0,0-4,31.84c27,21.41,57.69,30.5,92,27.29,5-.45,6.32,1.55,3.77,5.88-14.75,25.73-40.38,42.26-76.66,49.48-11,2.77-21.08,2.1-30.17-1.89L997,1155.67c-6.1-20.75-14.42-30.4-24.85-28.73q-6.33,54.57,32.84,85.64a22.3,22.3,0,0,1,4.77,29.73,288.69,288.69,0,0,1-101.84,95.18,15.12,15.12,0,0,1-16.87-1.44c-37.71-30.73-76.43-53.14-97.4-98.4-3.44-7.21-2.33-13.76,3.22-19.52q37.77-39.62,35.28-86.53c-.11-2.56-2-.45-5.66,6.43l-1.33-4.44c-1.22-4-3.77-5.1-7.55-3.44-4,1.78-6.87,2-8.54.78l-36.16,68.34-19.86,14.42c-14.87-15.53-31.73-5.55-46.59-9.1q-31-7.32-50.81-34.94c-3.44-4.66-2.22-6.77,3.55-6.44,27.84,1.67,90.63-14,91.08-50.14.11-8.88-5.11-14.31-15.76-16.42a10.89,10.89,0,0,1-8.65-12.87q4.83-23.79,26.63-33a6.67,6.67,0,0,0,2.21-10.76c-17.19-17.75-19.52-39.71-33.39-55.24q-29.61-33.12-70-18.2c-28,10.32-39.71,37.83-28.29,65a13.41,13.41,0,0,1-16.42,18Q476.16,1008.18,515.76,877q12.65-41.78,50.47-60.8,31.95-15.8,72.89-11.31Q701,811.72,739.52,863q52.58,70.05,61.34,166.29a4.8,4.8,0,0,0,5.33,4.33c2.11-.33,3.55-1,4.21-2.22a12.84,12.84,0,0,0,4.33,4.66c3.88,2.11,6,.89,6.1-3.55l2.11-58.24Q808.63,910.72,775.24,850q-25.8-46.75-28.85-70.22-9.48-72.06,52.81-121.26c28.07-22.29,83.76-53.8,96-87.52a8,8,0,0,1,14.75-.78c27.52,58.57,101.73,74.44,130.58,127.91C1066,745.43,1059,788,1034.16,838c-33.61,67.56-69.67,116.59-62.79,202.46.33,3.44,1.89,4.21,4.88,2.33q2.84-1.83,1.33-6.33M893.83,819.2l-1.33-6.66c-.56-2.77-2.22-3.66-4.77-2.44s-3.89,3.11-4,5.44c-1.33,37.16-28.18,70.78-2.22,109.94a10.71,10.71,0,0,1,1.89,6.1l.67,95.4a8.7,8.7,0,0,0,2.33,6.1c12.75,13.65,21.18,12.65,25.29-3.21q-6.5-71.38,12.53-136.45a19.06,19.06,0,0,0,.23-9.66L902.7,796.35c-1.11-4.66-2.22-4.66-3.44,0l-5.43,22.85M611.89,907.44c8.48-4.15,11.59-15,7-24.2s-15.07-13.12-23.56-9-11.59,15-7,24.2,15.07,13.12,23.56,9m605.87-12.69a17.86,17.86,0,1,0-17.86,17.86,17.85,17.85,0,0,0,17.86-17.86m-374,180.16-11.87,1.88c-5.77.89-6.33,3.11-1.67,6.55a20.83,20.83,0,0,1,5.44,5.43q65.4,30.8,136.23,3.55c2.33-.88,2.22-2.66-.11-5.32,3.43-3.11,3.66-6.55.66-10.43A5.53,5.53,0,0,0,975,1072a3.85,3.85,0,0,0-3.1-4,318.53,318.53,0,0,0-130.35.67,2.41,2.41,0,0,0-1.11,4.21,16.71,16.71,0,0,0,3.33,2m47.7,98.4c3.66,12.42,21.3,12.31,24.85-.11l9.76-33.73a13.27,13.27,0,0,0-2.66-12.09l-8.54-9.87a13.09,13.09,0,0,0-15.42-3.33l-12.43,5.88a13,13,0,0,0-6.88,15.42l11.32,37.83Z"/><path class="cls-2" d="M47.5,807.88C59.48,775.38,66.24,733.22,90,707a12.81,12.81,0,0,1,6.88-4c89.2-21,51.26,151.09,33.51,191.59-1.45,3.32-3.78,4-6.77,2.1A50.24,50.24,0,0,1,101,866.13a12.74,12.74,0,0,1,1.66-10.21q25-36.78,16.53-81.21c-2.22-11.42-18.19-12.2-21.41-1-8.43,29.62-17.86,59.68-28.18,90-13.2,39-53.25,22-61.46-9.43q-21.3-80.88,13.32-146.33a15.09,15.09,0,0,1,28,10.76C42,748,22.42,779.37,37.51,808.44a5.48,5.48,0,0,0,10-.56Z"/><path class="cls-2" d="M1711.54,804.22c-9.88,29.51.77,88.86-37.39,98.07a11,11,0,0,1-10.54-3c-32.06-33.17-29.73-116-24.4-154.76.55-4.33,2.88-5.66,7-4.1l17.08,6.65a7.53,7.53,0,0,1,4.33,9.1,126.72,126.72,0,0,0-.45,77.76,6,6,0,0,0,11.76-1.33l6.21-77A20.45,20.45,0,0,1,1717.86,741c35.28,27,31.06,107.5,25.52,145.66-.56,3.55-2.56,5.32-6.11,5.21-9.2-.11-15.42-3.77-18.74-11.2-6-13.65,7.1-53.14.44-76.33-2.33-8-4.77-8-7.43-.11Z"/><path class="cls-3" d="M276.47,1049.72q25,45.6,14.09,81.21c-1.11,3.88-3.44,4.88-7.1,3.11q-50.43-24.3-35.83-91.42-53.59-38.43-22.3-87.86a6.29,6.29,0,0,0-1.67-8.54q-48.75-33.78-12.31-82.76a14.25,14.25,0,0,0,2.33-13.86,147.75,147.75,0,0,1-6.32-63.9,7.46,7.46,0,0,1,5.43-6.77c26.52-8.87,51.7-.78,56.47,29.51q5.16,31.78-13,58.68c-1.89,2.78-1.67,5.44.55,8q35.78,40.11-.55,78.66c-2.78,3-2.89,6.1-.11,9.09,17.41,18.75,28.4,42.93,22.41,69.12a79.8,79.8,0,0,0-2.11,17.74Z"/><path class="cls-7" d="M893.83,819.2l-16.31,62a18.15,18.15,0,0,0,.33,10.32A323.34,323.34,0,0,1,890.94,1024a8.11,8.11,0,0,0,5.44,8.54q7.82,2.49,15.31-2.66c-4.11,15.86-12.54,16.86-25.29,3.21a8.7,8.7,0,0,1-2.33-6.1l-.67-95.4a10.71,10.71,0,0,0-1.89-6.1c-26-39.16.89-72.78,2.22-109.94.11-2.33,1.44-4.22,4-5.44s4.21-.33,4.77,2.44l1.33,6.66Z"/><path class="cls-5" d="M1052.69,1212.58c9.09,4,19.19,4.66,30.17,1.89q68.07,1.48,98.18-64.68a4.51,4.51,0,0,0-5.43-6.21q-57.91,18.47-106.73-16.53a10.53,10.53,0,0,1,1.45-18c20.08-10.32,25.07-25.74,14.75-46.26a17,17,0,0,0-7.1-7.44c-9.21-5.1-13.75-13.53-13.64-25.4a6.18,6.18,0,0,0,6.32-.89c56.91,56.47,140.89,117.15,220.43,112.05q89.69-5.67,115.48-110.61c1-4.1,3.55-5.88,7.77-5.43l22.3,2.33c4.55.55,6.1,3,4.55,7.32-60.24,172.39-192.7,323.71-370.09,380.84a17.42,17.42,0,0,1-22.74-17l4.33-186Z"/><path class="cls-5" d="M617.82,1148.9q36.95,72.88,119.25,67.45a8.61,8.61,0,0,1,9.1,8.54L745.84,1403a10.08,10.08,0,0,1-13.42,9.54c-170-60.58-322.5-194.7-377.08-370.64a10.82,10.82,0,0,1,10.32-14.09H394c4.66,0,7.65,2.22,9.1,6.66,17,52.58,45.15,99.73,104.28,108.38,81.42,12,137.78-20.3,203.34-82.31a3.84,3.84,0,0,1,6.21,4.21q-13.14,31.62,17.75,45.82c4.11,1.88,4.77,4.66,2.22,8.32-31.28,44.15-71.33,27.07-115.15,24.29-4.66-.33-6,1.67-3.88,5.77Z"/><path class="cls-4" d="M1064.34,1030c-.11,11.87,4.43,20.3,13.64,25.4a17,17,0,0,1,7.1,7.44c10.32,20.52,5.33,35.94-14.75,46.26a10.53,10.53,0,0,0-1.45,18q48.76,34.93,106.73,16.53a4.51,4.51,0,0,1,5.43,6.21q-30.12,66.23-98.18,64.68c36.28-7.22,61.91-23.75,76.66-49.48,2.55-4.33,1.22-6.33-3.77-5.88-34.28,3.21-65-5.88-92-27.29a18.74,18.74,0,0,1,4-31.84c7.65-3.44,11.64-9.43,12.09-18a12.14,12.14,0,0,0-5.11-10.32c-18.19-12.54-21.63-26.51-10.42-41.71Z"/><path class="cls-3" d="M1541.69,1126c-16.3.46-30.06-20-30.71-45.58s12-46.7,28.28-47.13,30.06,20,30.71,45.59-12,46.7-28.28,47.12Z"/><path class="cls-9" d="M247.63,1042.62q-14.49,67.07,35.83,91.42c3.66,1.77,6,.77,7.1-3.11q10.81-35.61-14.09-81.21,39.6,29.79,26.62,81.21c-1,3.88.23,6.77,3.89,8.65,21.18,11,31.39,29.29,30.5,55.14a22.87,22.87,0,0,1-35.61,18.19q-33.62-22.64-30.17-64.78a13.52,13.52,0,0,0-3.55-10.54c-25.3-27.74-50.81-53.14-20.52-95Z"/><path class="cls-7" d="M972.48,1076.57a431.25,431.25,0,0,0-128.68-1.66,16.71,16.71,0,0,1-3.33-2,2.41,2.41,0,0,1,1.11-4.21,318.53,318.53,0,0,1,130.35-.67,3.85,3.85,0,0,1,3.1,4,5.53,5.53,0,0,1-2.55,4.55Z"/><path class="cls-7" d="M835.7,1088.77q71.55,8.49,136.12-1.77c2.33,2.66,2.44,4.44.11,5.32q-70.89,27.14-136.23-3.55Z"/><path class="cls-7" d="M891.5,1173.31l-11.32-37.83a13,13,0,0,1,6.88-15.42l12.43-5.88a13.09,13.09,0,0,1,15.42,3.33l8.54,9.87a13.27,13.27,0,0,1,2.66,12.09l-9.76,33.73c-3.55,12.42-21.19,12.53-24.85.11m16.86-.11,9.87-39.72a6.87,6.87,0,0,0-7.43-8.54l-14.42,1.66a8.23,8.23,0,0,0-7.1,10.21l9.43,36.5a5,5,0,0,0,9.65-.11Z"/><path class="cls-3" d="M1497.1,1219c-54.69-19.74-18.75-52.36-6.66-82.09a17.26,17.26,0,0,1,29.07-4.77q40.42,47.43-10,85.09a12.56,12.56,0,0,1-12.42,1.77Z"/><path class="cls-7" d="M809.07,1130.93q-.33,47.6-36.16,68.34l36.16-68.34Z"/><path class="cls-7" d="M972.15,1126.94q8.65,59.24,48.92,94.85a7.82,7.82,0,0,1,1.78,9.54q-39.78,76.05-117.37,114a11.12,11.12,0,0,1-10.54-.22,297.78,297.78,0,0,1-108.83-101.84,25,25,0,0,1,5.43-33q30.47-24.46,35-72.33c3.66-6.88,5.55-9,5.66-6.43q2.49,46.92-35.28,86.53c-5.55,5.76-6.66,12.31-3.22,19.52,21,45.26,59.69,67.67,97.4,98.4a15.12,15.12,0,0,0,16.87,1.44,288.69,288.69,0,0,0,101.84-95.18,22.3,22.3,0,0,0-4.77-29.73q-39.11-31.12-32.84-85.64Z"/><path class="cls-4" d="M1447.82,1301.18c-15.84-2.74-25-25.37-20.61-50.49s20.85-43.21,36.63-40.41,25.05,25.37,20.61,50.5-20.85,43.21-36.63,40.4m2.31-11c10.47,1.81,21.45-11.84,24.62-30.49s-2.72-35.15-13.22-36.89-21.45,11.84-24.62,30.49,2.72,35.15,13.22,36.89Z"/><path class="cls-3" d="M384.64,1283.13c-11.77,13.32-35.51,11.43-53.16-4.12s-22.51-38.92-10.75-52.22,35.5-11.44,53.15,4.12,22.51,38.91,10.76,52.22Z"/><path class="cls-3" d="M1450.13,1290.2c-10.5-1.74-16.38-18.27-13.22-36.89s14.15-32.3,24.62-30.49,16.38,18.27,13.22,36.89-14.15,32.3-24.62,30.49Z"/><path class="cls-4" d="M1385.83,1304.32l17.42-24.4a5.77,5.77,0,0,1,8.87-.45q31.79,35,7.21,73.11c-7.87,12.09-16.08,18.19-24.74,18.53-10.31.22-20.52-5.55-26.95-15.31q-18.48-28.62,10.2-44.38a23.3,23.3,0,0,0,8-7.1m27.07,34.39a9.7,9.7,0,0,0,3-6.21l2.44-24.07c1-9.54-10.87-14.87-17.3-7.66l-26.41,29.4a10,10,0,0,0-1.88,10.32l5.21,13a10,10,0,0,0,16.2,3.44l18.75-18.2Z"/><path class="cls-3" d="M427.67,1359.24q-36.43.49-52.8-27.18c-28.51-48.26,72-65.46,76.21,10.87q.17,5.65,5.66,7.32c21.52,6.77,63,20,57.46,51-.66,3.66.78,5.33,4.44,5.22q33.61-.84,56.14,24a18.27,18.27,0,0,1-2.44,26.84c-30.4,23.19-100.4,10.1-77.66-34.94,2.22-4.44,1-5.88-3.77-4.44-38.61,11.87-70.56-13.31-59.13-53.36,1-3.66-.33-5.43-4.11-5.32Z"/><path class="cls-3" d="M1412.9,1338.71l-18.75,18.2a10,10,0,0,1-16.2-3.44l-5.21-13a10,10,0,0,1,1.88-10.32l26.41-29.4c6.43-7.21,18.3-1.88,17.3,7.66l-2.44,24.07a9.7,9.7,0,0,1-3,6.21Z"/><path class="cls-4" d="M1358.34,1361.55c11,12.11,4.86,35.52-13.56,52.17s-42.26,20.4-53.27,8.22-4.86-35.52,13.56-52.18,42.26-20.4,53.27-8.21m-8.82,8.19c-6.51-7.51-22.71-4-36.21,7.81s-19.11,27.39-12.54,34.86,22.71,4,36.22-7.81,19.11-27.39,12.53-34.86Z"/><path class="cls-3" d="M1349.52,1369.74c6.58,7.47.92,23.11-12.53,34.86s-29.7,15.32-36.22,7.81-.92-23.11,12.54-34.86,29.7-15.32,36.21-7.81Z"/><path class="cls-4" d="M1196.13,1467.73q24.8-39.6,67.89-59.79c3.66-1.67,6.66-.89,8.77,2.55,37,57.8-27,94.52-74.55,66.23a6.42,6.42,0,0,1-2.11-9m68.34-51.36-58.69,44.26a1.12,1.12,0,0,0-.22,1.67h0a37.76,37.76,0,0,0,52.69,7.43l.56-.44a37.66,37.66,0,0,0,7.32-52.7h0a1.11,1.11,0,0,0-1.66-.22Z"/><path class="cls-3" d="M1264.47,1416.37a1.11,1.11,0,0,1,1.66.22h0a37.66,37.66,0,0,1-7.32,52.7l-.56.44a37.76,37.76,0,0,1-52.69-7.43h0a1.12,1.12,0,0,1,.22-1.67l58.69-44.26Z"/><path class="cls-9" d="M1187.14,1466a24.6,24.6,0,0,1-.44,5.32c-.67,4-2.77,5.11-6.44,3.33-26.51-13.2-54,15.2-66.45,35.28a11.81,11.81,0,0,0,2.44,15.31,12,12,0,0,0,15.54-.11,24.63,24.63,0,0,1,19.3-6.44,17.9,17.9,0,0,0,9.32-1.88c13.09-6.77,24-17.53,32.72-32.29,3.33,15-3.66,26.74-21.07,35.06-3,1.44-3.67,3.66-1.78,6.43,28.84,43.93-2.88,60.57-23.3,92.08a166.24,166.24,0,0,1-16.75,21.63,3.48,3.48,0,0,0,3.33,5.77q56.91-12,68.78,42a9.62,9.62,0,0,0,6.77,7.54q39.6,13.31,43.48,51.59-40.26-53.6-65.23-32.73a14.47,14.47,0,0,0-3.43,17.86q19.63,36.95,70.88,38.94-71.22,24.79-82.87-59.24a4.31,4.31,0,0,0-4.32-3.77q-41.94.16-52.25-37.94a11.8,11.8,0,0,0-12.87-8.55,11.66,11.66,0,0,0-10.1,11.76v5.11a10.26,10.26,0,0,1-4.88,9.32q-43.1,29.28-92.52,11.53a5.91,5.91,0,0,1-3.88-6l1.44-17.41a6.69,6.69,0,0,0-12.42-4q-22.3,37.44-66.57,35a11,11,0,0,1-9.43-6.55l-2.44-5.43c-2.21-5-5.65-6-10.2-2.78q-28.12,19.63-62.9,7.66a7.24,7.24,0,0,1-4.88-8.1c3.55-23.41,17.3-37.39,41.26-42.16a4.25,4.25,0,0,0,2-7.32l-13.31-12.09a5.37,5.37,0,0,0-7-.11l-18.75,15.75a8.58,8.58,0,0,0-3.1,8.32c1.88,13-4.11,22.3-18,28.18a20.43,20.43,0,0,1-11.2,1.22c-15.86-3-24.07-2.66-24.85,1-1.11,9.43-15.09,15.53-41.93,18.08q-14.14-24-10-55.25c.78-5.1,3.55-7,8.54-5.54l20.42,5.77c4.32,1.22,7.54-.23,9.76-4.22l1.55-2.77c1.89-3.44.89-5.77-2.77-7-38.94-12.54-60.68-73.89-7.66-81,3.89-.55,5.22-2.66,3.78-6.32s-4.55-5.88-9.1-6.54q-4.15-.68-10.32,2.33-51.09,25-80.32-20.08a6.54,6.54,0,0,0-7.32-3.33q-36.44,5.65-61.9-20.19c-14.09-14.2-15.64-28.51,0-41.49,17.31-14.2,58,5.77,73.66,16.19a9.73,9.73,0,0,1,4.66,9.43l-.55,6.22c-.34,5,1.77,6.65,6.54,5.1q46.1-15.81,73.66,25.4a4.48,4.48,0,0,0,8.1-1.44c4.77-19.75,16.64-33.39,35.83-40.82a9.67,9.67,0,0,1,12.65,5.65l15,41.27a7.57,7.57,0,0,0,6.65,5l27,2.1a4,4,0,0,0,2-7.65l-33.4-16.09a8.88,8.88,0,0,1-5.43-9.32c4.1-59.79,73.77-32.94,97.84-8.76a8.86,8.86,0,0,0,8.88,2.33c25.18-7.54,38.72,1.33,40.82,26.51a4.93,4.93,0,0,0,4.77,4.55,5,5,0,0,0,5-4.33l3.55-27.06A9.38,9.38,0,0,1,975,1484q36.94-23.79,81.54-21.52a11.59,11.59,0,0,1,9.65,6.32l2.55,5.1a6.48,6.48,0,0,0,9.21,2.56c14.09-8.77,28.29-9,42.71-.45a7.86,7.86,0,0,0,9.76-.77q27.13-21.65,56.69-9.32m-546.58,42,7.77-17a5.43,5.43,0,0,0-2.67-7.32l-10.42-4.77c-21.64-10-41.72-12.54-44.93-5.66l-1,2.22c-3.11,6.76,11.87,20.41,33.5,30.39l10.43,4.77a5.42,5.42,0,0,0,7.32-2.66m253.11-12.31c1.27-10.32-14.15-20.75-34.41-23.16s-37.65,4-38.94,14.28,14.16,20.75,34.41,23.16,37.66-4,38.94-14.28m132.62.55c6.76-1.44,11-5.43,12.86-11.87a7.86,7.86,0,0,0-9.31-9.87L988.57,1484a16.56,16.56,0,0,0-12.65,17.64,16.38,16.38,0,0,0,15.86,14.75q19.82.67,27.29-14.64a9.8,9.8,0,0,1,7.22-5.55m-21.08,92.86c5.88-9.1,13.09-13.87,21.74-14.2,4.33-.11,5.88-2.33,4.66-6.44q-7.81-28,12.31-48.26a8.26,8.26,0,0,0-11-12.31l-20.85,16.64a6.5,6.5,0,0,0,.55,10.54c21.85,14.09,7.1,42.93-12.31,48.15-14.76,4-33.28,15.31-45.82-3.11a10.74,10.74,0,0,1-.67-10.65l14.2-27.29c1.89-3.55,1.22-6.66-1.88-9.21l-4.22-3.44a.87.87,0,0,0-1.33.45c-8.1,28.84-49.37,60.79-80.09,42.71a13.38,13.38,0,0,0-11.1-1.11,121.59,121.59,0,0,1-59.24,4,10.72,10.72,0,0,1-7.54-5.54c-5.44-10-13.76-12.76-25.18-8.44-3.89,1.45-5.44,4.22-4.77,8.32l4.43,26.3a12.86,12.86,0,0,0,21,7.65q26.29-22.12,46.93,2c1.88,2.1,3.66,2.1,5.32-.22q29.46-39.78,80.21-12.21c4.44,2.44,7.65,8.21,9.76,17.42a9.65,9.65,0,0,0,6.55,7.1q38.43,12.48,52.58-18.19a97.81,97.81,0,0,1,5.77-10.65m-114.11-38c6.94-.42,12-9.07,11.47-19.42s-6.63-18.38-13.56-18-12,9.07-11.47,19.42,6.64,18.38,13.56,18m219.5,19.66,11.09-18.08c1.78-2.89,1.33-5.33-1.44-7.43l-24-18.2c-2.78-2.1-6.77.45-5.88,3.77,5.21,20.75-2.11,33.29-22.19,37.5-3.44.67-4.33,2.55-2.77,5.77q14.47,28.29,43.7,24.18a6,6,0,0,0,4.66-8.32l-3.88-9.09a10.27,10.27,0,0,1,.67-10.1m-241.73,60.57,60.79-6.65a4.72,4.72,0,0,0,4.22-5.11l-.12-.66c-1.55-14-14.75-24.08-29.62-22.41l-16.41,1.77c-14.87,1.56-25.63,14.31-24.08,28.29v.67a4.81,4.81,0,0,0,5.22,4.1m256.26-20c-21.41-4.1-37.28,2.22-47.7,18.75a15,15,0,0,0,13.2,22.86c21.85-.78,34.83-12.43,39.16-34.84.66-3.77-.89-6-4.66-6.77m-94.85,39.5c9.43-3,19.41-4.44,26.62-9.32a10.27,10.27,0,0,0-10.65-17.53,93.15,93.15,0,0,0-26.18,20.64c-3.88,4.54-2.88,6.87,3,7.1a22,22,0,0,0,7.21-.89m-103.84-18.31L901,1643.45a6,6,0,0,0-3.55,7,6.23,6.23,0,0,0,6.43,4.66c11.87-1,21.41-5.88,28.4-14.64a5.07,5.07,0,0,0-5.88-7.88m-114.65,25.58a7,7,0,0,0-5-8.7l-30.84-8.32a7.1,7.1,0,0,0-8.71,5l-2.37,8.79a7,7,0,0,0,5,8.7l30.85,8.32a7.08,7.08,0,0,0,8.7-5l2.37-8.79m376.2,31c3.92-9.19-6.06-22.28-22.35-29.25s-32.63-5.23-36.59,4,6.06,22.29,22.35,29.25,32.64,5.24,36.59-4Z"/><path class="cls-3" d="M1187.14,1466c5.22,7.87,7.21,14.09,6,18.52-8.76,14.76-19.63,25.52-32.72,32.29a17.9,17.9,0,0,1-9.32,1.88,24.63,24.63,0,0,0-19.3,6.44,12,12,0,0,1-15.54.11,11.81,11.81,0,0,1-2.44-15.31c12.43-20.08,39.94-48.48,66.45-35.28,3.67,1.78,5.77.67,6.44-3.33a24.6,24.6,0,0,0,.44-5.32Z"/><path class="cls-3" d="M640.56,1508a5.42,5.42,0,0,1-7.32,2.66l-10.43-4.77c-21.63-10-36.61-23.63-33.5-30.39l1-2.22c3.21-6.88,23.29-4.33,44.93,5.66l10.42,4.77a5.43,5.43,0,0,1,2.67,7.32l-7.77,17Z"/><path class="cls-3" d="M893.67,1495.69c-1.28,10.32-18.7,16.75-38.94,14.28s-35.67-12.84-34.41-23.16,18.71-16.75,38.94-14.28,35.68,12.84,34.41,23.16Z"/><path class="cls-3" d="M1019.07,1501.79q-7.49,15.32-27.29,14.64a16.38,16.38,0,0,1-15.86-14.75A16.56,16.56,0,0,1,988.57,1484l41.27-9.54a7.86,7.86,0,0,1,9.31,9.87c-1.88,6.44-6.1,10.43-12.86,11.87a9.8,9.8,0,0,0-7.22,5.55Z"/><path class="cls-3" d="M868.87,1631.36a4.81,4.81,0,0,1-5.22-4.1v-.67c-1.55-14,9.21-26.73,24.08-28.29l16.41-1.77c14.87-1.67,28.07,8.43,29.62,22.41l.12.66a4.72,4.72,0,0,1-4.22,5.11l-60.79,6.65Z"/><path class="cls-3" d="M1125.13,1611.39c3.77.78,5.32,3,4.66,6.77-4.33,22.41-17.31,34.06-39.16,34.84a15,15,0,0,1-13.2-22.86c10.42-16.53,26.29-22.85,47.7-18.75Z"/><path class="cls-3" d="M926.44,1632.58a5.07,5.07,0,0,1,5.88,7.88c-7,8.76-16.53,13.64-28.4,14.64a6.23,6.23,0,0,1-6.43-4.66,6,6,0,0,1,3.55-7l25.4-10.87Z"/><path class="cls-3" d="M809.42,1667a7.08,7.08,0,0,1-8.7,5l-30.85-8.32a7,7,0,0,1-5-8.7l2.37-8.79a7.1,7.1,0,0,1,8.71-5l30.84,8.32a7,7,0,0,1,5,8.7l-2.37,8.79Z"/><path class="cls-3" d="M1188,1689.14c-4,9.23-20.37,11-36.59,4s-26.27-20.06-22.35-29.25,20.37-11,36.59-4,26.27,20.06,22.35,29.25Z"/><path class="cls-4" d="M684.59,1769.61c-19.18-2.68-32.05-24-28.71-47.61s21.51-40.61,40.72-37.86,32,24,28.71,47.62-21.52,40.6-40.72,37.85m1-9.13c14,2.34,27.83-10.08,30.79-27.76s-6-34-19.95-36.34-27.83,10.09-30.8,27.76,6,34,20,36.34Z"/><path class="cls-4" d="M770.8,1684.06c10.43,24.29-3.55,30.39-41.93,18.08,26.84-2.55,40.82-8.65,41.93-18.08Z"/><path class="cls-3" d="M685.62,1760.48c-14-2.32-23-18.63-20-36.34s16.83-30.1,30.8-27.76,23,18.63,19.95,36.34-16.83,30.1-30.79,27.76Z"/><path class="cls-3" d="M1252.59,1746.63c5,1.33,5.66,9.31,2.22,24.07q-51.24-2-70.88-38.94a14.47,14.47,0,0,1,3.43-17.86q25-20.81,65.23,32.73Z"/><path class="cls-4" d="M644.49,1821.37c-15.47,4.91-33.66-9.07-40.52-31s.09-43.73,15.57-48.59,33.67,9.07,40.53,31-.1,43.74-15.58,48.59m-34.55-50.45L626,1807a7.88,7.88,0,0,0,10.43,4l1.44-.67c13.75-6.1,20.3-21.63,14.42-34.61l-1.44-3.44c-5.88-13-21.75-18.52-35.61-12.31l-1.33.55a8,8,0,0,0-4,10.43Z"/><path class="cls-3" d="M609.94,1770.92a8,8,0,0,1,4-10.43l1.33-.55c13.86-6.21,29.73-.67,35.61,12.31l1.44,3.44c5.88,13-.67,28.51-14.42,34.61l-1.44.67a7.88,7.88,0,0,1-10.43-4l-16.09-36Z"/><path class="cls-2" d="M1393.48,1824.39l65.68-34.61a5.87,5.87,0,0,1,8.21,2.88l7.32,16.64a6.13,6.13,0,0,1-3.44,8.1l-84.09,30.4a6,6,0,0,1-6.54-9.65l11.2-12.43a4.93,4.93,0,0,1,1.66-1.33Z"/><path class="cls-2" d="M453.41,2117.82q-3.66,22.62,8.32,2.33a345.5,345.5,0,0,1,81.87-94.41,6,6,0,0,1,8-.11c33.95,24.85-12.09,64.12-18,94.63a8.1,8.1,0,0,0,13.53,7.43c49-47.15,61.35-111.82,144.77-127.35a8,8,0,0,0,6.88-7,229.23,229.23,0,0,1,34.73-88.09,13.16,13.16,0,0,1,10.65-5.88c12.53-.44,18.19,6.33,17,20.42-.33,4.21-1.89,9.43-4.44,15.75-18.75,45-64.12,136.23-43,165.07,2.33,3.22,5.21,3.77,8.54,1.56,18.3-12.1,30.17-23.86,35.61-35.06q38.45-78.37,125.47-109.72A17.24,17.24,0,0,1,906,1970.49l4.88,26.52a18.24,18.24,0,0,1-1.33,10.87l-19.19,44.26c-4.88,11.21,9,21.08,18.08,12.87L942.75,2034a13.41,13.41,0,0,0,4.55-9.21q8-109,83.76-187.15a8,8,0,0,1,13.42,3.44c13.64,52.36-20.75,114.49-54.91,159.86-11,14.42-13,32.95,2.33,44a20.78,20.78,0,0,0,24.62-.22,200.26,200.26,0,0,0,29.73-26.51c26.85-29.73,24.85-105.06,82.21-97.07a8.2,8.2,0,0,1,5.66,12.76l-48.93,70.55c-5.77,8.32,3.44,18.86,12.54,14.2,26.4-13.64,78.76-94.29,98.84-120.81a8.46,8.46,0,0,1,13.76.22c9.1,12.54,7.43,24.85-1.89,37.72q-19,26.46-31.06,63.35a9.27,9.27,0,0,0,13.76,10.76,143.34,143.34,0,0,0,29.17-24.41c5.88-6.32,12.09-17.08,18.75-32.39q26.3-60.24,88.86-83.65a14.85,14.85,0,0,1,20.08,13.42q1,28.8-17.64,48.59a12.88,12.88,0,0,1-11.2,4.22q-40.28-4.32-51,37.28a16.64,16.64,0,0,0,12.42,20.41c33.28,7.32,86.64-44.6,93.3-68,7-24.51,21.85-44,44.37-58.57,11.32-7.21,25.3,4.1,20.64,16.64a188.23,188.23,0,0,1-36.72,60.68c-9.88,11,1.11,28,15.08,23.3,23.63-7.88,34.39-18.86,46.6-42.82,20.63-40.49,84.09-108.72,139.33-99a6.73,6.73,0,0,1,5.44,8.32,36.62,36.62,0,0,0,3.22,26.29,9.91,9.91,0,0,1,.33,9L1590.73,1917c-5.22,11.54,9.32,21.86,18.52,13.09l36.61-34.72a6.85,6.85,0,0,1,10.65,8.43,236.34,236.34,0,0,1-63.9,70.78c-14.42,10.65-34.5-1.78-31.5-19.41l4.55-27.52a3.26,3.26,0,0,0-5.77-2.55c-11.87,15.64-24.08,30.73-36.39,45.15q-21.63,25.13-50.92-7c-4.1-4.54-7.88-4.32-11.43.67-21.29,29.62-72.1,77.43-90.74,10.21-1.33-4.78-3.66-5.33-7-1.56-31,35.39-85.42,96.41-122.14,22.19a4,4,0,0,0-7.21-.22,186.46,186.46,0,0,1-54.58,60.46,21.61,21.61,0,0,1-34.06-15.87l-2-26a2.89,2.89,0,0,0-5.32-1.33c-12.76,19.42-29.62,63.13-61,43.71a19.72,19.72,0,0,1-6.65-6.54l-8.54-13.43a5.71,5.71,0,0,0-9.43-.11c-18.09,26.52-52.81,69.23-87.2,40.72a12,12,0,0,1-3.44-4.66l-7-17.31a5.39,5.39,0,0,0-9.54-.89,181.65,181.65,0,0,1-55.24,56.58A18.14,18.14,0,0,1,862,2094.41l.66-28.07a3.27,3.27,0,0,0-5.76-2.22l-42.49,49.81a10.49,10.49,0,0,1-10.65,3.33,56.59,56.59,0,0,1-35.17-26.07,4.84,4.84,0,0,0-7.88-.55c-18.63,22.63-45,61.68-72.33,45.81a12.49,12.49,0,0,1-6.21-9.31l-3.1-24.85q-1.17-9.15-7.66-2.67a414.09,414.09,0,0,0-32.95,37.17q-17.3,22.13-34.17-.34c-5.21-7-10.65-13.75-16.08-20.3-2.77-3.21-5.22-3-7.32.67-14.31,23.74-48,75.77-76.88,57.35a13.42,13.42,0,0,1-6-8.32c-7.55-30.17,5.1-37.94,11.42-62.23a4.42,4.42,0,0,0-2.44-5.11,4.27,4.27,0,0,0-5.32,1.78l-44.15,75.44c-9.1,15.53-32.4,12.2-36.83-5.22q-13.81-54.59,18.52-100.51c9.65-13.86,21.3-18.19,34.84-13a11.76,11.76,0,0,1,4.66,18.64q-22.8,26.3-25.3,42.16m1112.25-248.28c-30.07,15.31-59.58,37.39-75.88,69.34a11.9,11.9,0,0,0,19.08,13.75,466.21,466.21,0,0,0,61.79-77.54c5.1-8,3.44-9.87-5-5.55m-579.15,98c3.17,1.4,13.48-15.46,23-37.72s14.6-41.31,11.33-42.68-13.48,15.46-23,37.72-14.6,41.31-11.33,42.68m-113.43,40.34a3.5,3.5,0,0,0-4.21-5.33q-48.93,22.31-77.55,66.68a13.42,13.42,0,0,0,21.86,15.53l59.9-76.88M617.57,2109.31c4.91,4.29,22.88-8.13,40.13-27.83s27.24-39.1,22.27-43.46-22.88,8.13-40.13,27.83-27.24,39.1-22.27,43.46Z"/><path class="cls-2" d="M299,2129.91l-69.11,16.86a14.79,14.79,0,0,0-8.88,6.33c-16.31,25.51-62,106.38-87.86,114.59a12.34,12.34,0,0,1-14.42-17.86,273.06,273.06,0,0,1,65.12-77.21,8.92,8.92,0,0,0-6.33-15.75L160.76,2158c-6.1.33-8-2.22-5.88-7.88q16-43.6,57-61.13,4.33-1.83,7.33-1a6.68,6.68,0,0,1,4.43,3.1,3.39,3.39,0,0,1-2.22,5,24.24,24.24,0,0,0-11.42,6c-4.11,3.89-3.44,5.55,2.22,5a38.73,38.73,0,0,0,28.4-16.31,1235.07,1235.07,0,0,1,121.8-141.56c7.88-7.87,16.09-12.2,24.41-12.86a14.51,14.51,0,0,1,14.87,19.08L367.1,2059.35a4,4,0,0,0,4.66,5.22L390,2061a5.21,5.21,0,0,1,5.76,7.32l-15,32.06a19.87,19.87,0,0,1-11.54,10.65q-34.6,13.14-30.62,54.36a5.84,5.84,0,0,0,10.1,3.44l22.52-24.63a5.28,5.28,0,0,1,7-.78,5.4,5.4,0,0,1,1.77,6.88q-20.46,41.78-60.68,64.12A19.74,19.74,0,0,1,290,2196.8a159.54,159.54,0,0,1,13.54-61.57,3.87,3.87,0,0,0-4.55-5.32m54.47-135.68a2.3,2.3,0,0,0-1-2.88,2.41,2.41,0,0,0-3,.56l-75.76,90.63a3.44,3.44,0,0,0,3.54,5.55l39.17-10.54a11.65,11.65,0,0,0,8.54-7.77l28.51-75.55Z"/></g></g></svg>